# Blender v2.90.1 OBJ File: ''
# www.blender.org
mtllib atmosphere_no_tex.mtl
o Sphere
v 0.000000 -0.500000 -0.000000
v 0.135299 -0.461940 -0.135299
v 0.000000 -0.461940 -0.191342
v 0.000000 -0.353553 -0.353553
v 0.250000 -0.353553 -0.250000
v 0.326641 -0.191342 -0.326641
v 0.000000 0.191342 -0.461940
v 0.000000 0.000000 -0.500000
v 0.353553 0.000000 -0.353553
v 0.000000 0.353553 -0.353553
v 0.250000 0.353553 -0.250000
v 0.135299 0.461940 -0.135299
v 0.000000 -0.191342 -0.461940
v 0.326641 0.191342 -0.326641
v 0.000000 0.461940 -0.191342
v 0.000000 0.500000 0.000000
v 0.353553 0.353553 0.000000
v 0.191342 -0.461940 -0.000000
v 0.353553 -0.353553 -0.000000
v 0.461940 -0.191342 -0.000000
v 0.461940 0.191342 0.000000
v 0.191342 0.461940 0.000000
v 0.500000 0.000000 0.000000
v 0.135299 -0.461940 0.135299
v 0.326641 -0.191342 0.326641
v 0.326641 0.191342 0.326641
v 0.250000 0.353553 0.250000
v 0.135299 0.461940 0.135299
v 0.250000 -0.353553 0.250000
v 0.353553 -0.000000 0.353553
v 0.000000 0.461940 0.191342
v 0.000000 -0.461940 0.191342
v 0.000000 -0.353553 0.353553
v 0.000000 -0.191342 0.461940
v 0.000000 -0.000000 0.500000
v 0.000000 0.353553 0.353553
v 0.000000 0.191342 0.461940
v -0.250000 -0.353553 0.250000
v -0.326641 -0.191342 0.326641
v -0.353553 -0.000000 0.353553
v -0.250000 0.353553 0.250000
v -0.135299 -0.461940 0.135299
v -0.326641 0.191342 0.326641
v -0.135299 0.461940 0.135299
v -0.191342 -0.461940 -0.000000
v -0.461940 -0.191342 -0.000000
v -0.461940 0.191342 0.000000
v -0.191342 0.461940 0.000000
v -0.353553 -0.353553 -0.000000
v -0.500000 0.000000 0.000000
v -0.353553 0.353553 0.000000
v -0.326641 -0.191342 -0.326641
v -0.326641 0.191342 -0.326641
v -0.135299 0.461940 -0.135299
v -0.135299 -0.461940 -0.135299
v -0.250000 -0.353553 -0.250000
v -0.353553 0.000000 -0.353553
v -0.250000 0.353553 -0.250000
v 0.000000 -0.500000 -0.000000
v 0.000000 -0.461940 -0.191342
v 0.135299 -0.461940 -0.135299
v 0.000000 -0.353553 -0.353553
v 0.326641 -0.191342 -0.326641
v 0.250000 -0.353553 -0.250000
v 0.000000 0.191342 -0.461940
v 0.353553 0.000000 -0.353553
v 0.000000 0.000000 -0.500000
v 0.000000 0.353553 -0.353553
v 0.135299 0.461940 -0.135299
v 0.250000 0.353553 -0.250000
v 0.000000 -0.191342 -0.461940
v 0.326641 0.191342 -0.326641
v 0.000000 0.461940 -0.191342
v 0.000000 0.500000 0.000000
v 0.353553 0.353553 0.000000
v 0.353553 -0.353553 -0.000000
v 0.191342 -0.461940 -0.000000
v 0.461940 -0.191342 -0.000000
v 0.461940 0.191342 0.000000
v 0.191342 0.461940 0.000000
v 0.500000 0.000000 0.000000
v 0.135299 -0.461940 0.135299
v 0.326641 -0.191342 0.326641
v 0.250000 0.353553 0.250000
v 0.326641 0.191342 0.326641
v 0.135299 0.461940 0.135299
v 0.250000 -0.353553 0.250000
v 0.353553 -0.000000 0.353553
v 0.000000 0.461940 0.191342
v 0.000000 -0.461940 0.191342
v 0.000000 -0.191342 0.461940
v 0.000000 -0.353553 0.353553
v 0.000000 -0.000000 0.500000
v 0.000000 0.353553 0.353553
v 0.000000 0.191342 0.461940
v -0.326641 -0.191342 0.326641
v -0.250000 -0.353553 0.250000
v -0.353553 -0.000000 0.353553
v -0.250000 0.353553 0.250000
v -0.135299 -0.461940 0.135299
v -0.326641 0.191342 0.326641
v -0.135299 0.461940 0.135299
v -0.191342 -0.461940 -0.000000
v -0.461940 -0.191342 -0.000000
v -0.461940 0.191342 0.000000
v -0.191342 0.461940 0.000000
v -0.353553 -0.353553 -0.000000
v -0.500000 0.000000 0.000000
v -0.353553 0.353553 0.000000
v -0.326641 -0.191342 -0.326641
v -0.326641 0.191342 -0.326641
v -0.135299 0.461940 -0.135299
v -0.135299 -0.461940 -0.135299
v -0.250000 -0.353553 -0.250000
v -0.353553 0.000000 -0.353553
v -0.250000 0.353553 -0.250000
vn -0.0805 0.9776 0.1945
vn -0.3256 0.5253 0.7861
vn -0.3256 0.5253 0.7862
vn -0.3764 -0.1807 0.9087
vn -0.2243 -0.8103 0.5414
vn -0.2243 0.8103 0.5414
vn -0.3764 0.1807 0.9087
vn -0.3256 -0.5253 0.7861
vn -0.0805 -0.9776 0.1945
vn -0.5414 -0.8103 0.2243
vn -0.5414 0.8103 0.2243
vn -0.9087 0.1807 0.3764
vn -0.7861 -0.5253 0.3256
vn -0.1945 -0.9776 0.0805
vn -0.1945 0.9776 0.0805
vn -0.7861 0.5253 0.3256
vn -0.9087 -0.1807 0.3764
vn -0.5414 0.8103 -0.2243
vn -0.9087 0.1807 -0.3764
vn -0.7861 -0.5253 -0.3256
vn -0.1945 -0.9776 -0.0805
vn -0.1945 0.9776 -0.0805
vn -0.7861 0.5253 -0.3256
vn -0.9087 -0.1807 -0.3764
vn -0.5414 -0.8103 -0.2243
vn -0.0805 -0.9776 -0.1945
vn -0.0805 0.9776 -0.1945
vn -0.3256 0.5253 -0.7861
vn -0.3764 -0.1807 -0.9087
vn -0.2243 -0.8103 -0.5414
vn -0.2243 0.8103 -0.5414
vn -0.3764 0.1807 -0.9087
vn -0.3256 -0.5253 -0.7861
vn 0.3256 0.5253 -0.7861
vn 0.3764 -0.1807 -0.9087
vn 0.2243 -0.8103 -0.5414
vn 0.2243 0.8103 -0.5414
vn 0.3764 0.1807 -0.9087
vn 0.3256 -0.5253 -0.7861
vn 0.0805 -0.9776 -0.1945
vn 0.0805 0.9776 -0.1945
vn 0.5414 0.8103 -0.2243
vn 0.9087 0.1807 -0.3764
vn 0.7861 -0.5253 -0.3256
vn 0.1945 -0.9776 -0.0805
vn 0.1945 0.9776 -0.0805
vn 0.7861 0.5253 -0.3256
vn 0.9087 -0.1807 -0.3764
vn 0.5414 -0.8103 -0.2243
vn 0.9087 0.1807 0.3764
vn 0.7861 -0.5253 0.3256
vn 0.1945 -0.9776 0.0805
vn 0.1945 0.9776 0.0805
vn 0.7861 0.5253 0.3256
vn 0.9087 -0.1807 0.3764
vn 0.5414 -0.8103 0.2243
vn 0.5414 0.8103 0.2243
vn 0.0805 0.9776 0.1945
vn 0.3256 0.5253 0.7861
vn 0.3256 0.5253 0.7862
vn 0.3764 -0.1807 0.9087
vn 0.2243 -0.8103 0.5414
vn 0.2243 0.8103 0.5414
vn 0.3764 0.1807 0.9087
vn 0.3256 -0.5253 0.7861
vn 0.0805 -0.9776 0.1945
vn 0.3256 -0.5253 -0.7862
vn -0.3256 -0.5253 -0.7862
usemtl None
s 1
f 1//1 2//1 3//1
f 4//2 5//3 6//2
f 7//4 8//4 9//4
f 10//5 11//5 12//5
f 4//6 3//6 2//6
f 8//7 13//7 6//7
f 10//8 7//8 14//8
f 15//9 12//9 16//9
f 12//10 11//10 17//10
f 2//11 18//11 19//11
f 9//12 6//12 20//12
f 11//13 14//13 21//13
f 12//14 22//14 16//14
f 1//15 18//15 2//15
f 5//16 19//16 20//16
f 14//17 9//17 23//17
f 19//18 18//18 24//18
f 23//19 20//19 25//19
f 21//20 26//20 27//20
f 22//21 28//21 16//21
f 1//22 24//22 18//22
f 20//23 19//23 29//23
f 21//24 23//24 30//24
f 22//25 17//25 27//25
f 28//26 31//26 16//26
f 1//27 32//27 24//27
f 29//28 33//28 34//28
f 26//29 30//29 35//29
f 28//30 27//30 36//30
f 29//31 24//31 32//31
f 30//32 25//32 34//32
f 27//33 26//33 37//33
f 33//34 38//34 39//34
f 37//35 35//35 40//35
f 31//36 36//36 41//36
f 33//37 32//37 42//37
f 35//38 34//38 39//38
f 36//39 37//39 43//39
f 31//40 44//40 16//40
f 1//41 42//41 32//41
f 38//42 42//42 45//42
f 40//43 39//43 46//43
f 41//44 43//44 47//44
f 44//45 48//45 16//45
f 1//46 45//46 42//46
f 38//47 49//47 46//47
f 40//48 50//48 47//48
f 44//49 41//49 51//49
f 50//50 46//50 52//50
f 51//51 47//51 53//51
f 48//52 54//52 16//52
f 1//53 55//53 45//53
f 46//54 49//54 56//54
f 47//55 50//55 57//55
f 48//56 51//56 58//56
f 45//57 55//57 56//57
f 1//58 3//58 55//58
f 52//59 56//60 4//59
f 53//61 57//61 8//61
f 54//62 58//62 10//62
f 55//63 3//63 4//63
f 57//64 52//64 13//64
f 58//65 53//65 7//65
f 54//66 15//66 16//66
f 4//2 6//2 13//2
f 7//4 9//4 14//4
f 10//5 12//5 15//5
f 4//6 2//6 5//6
f 8//7 6//7 9//7
f 10//8 14//8 11//8
f 12//10 17//10 22//10
f 2//11 19//11 5//11
f 9//12 20//12 23//12
f 11//13 21//13 17//13
f 5//16 20//16 6//16
f 14//17 23//17 21//17
f 19//18 24//18 29//18
f 23//19 25//19 30//19
f 21//20 27//20 17//20
f 20//23 29//23 25//23
f 21//24 30//24 26//24
f 22//25 27//25 28//25
f 29//28 34//28 25//28
f 26//29 35//29 37//29
f 28//30 36//30 31//30
f 29//31 32//31 33//31
f 30//32 34//32 35//32
f 27//33 37//33 36//33
f 33//34 39//34 34//34
f 37//35 40//35 43//35
f 31//36 41//36 44//36
f 33//37 42//37 38//37
f 35//38 39//38 40//38
f 36//39 43//39 41//67
f 38//42 45//42 49//42
f 40//43 46//43 50//43
f 41//44 47//44 51//44
f 38//47 46//47 39//47
f 40//48 47//48 43//48
f 44//49 51//49 48//49
f 50//50 52//50 57//50
f 51//51 53//51 58//51
f 46//54 56//54 52//54
f 47//55 57//55 53//55
f 48//56 58//56 54//56
f 45//57 56//57 49//57
f 52//59 4//59 13//59
f 53//61 8//61 7//61
f 54//62 10//62 15//62
f 55//63 4//63 56//63
f 57//64 13//64 8//64
f 58//65 7//65 10//65
f 59//40 60//40 61//40
f 62//39 63//39 64//67
f 65//38 66//38 67//38
f 68//37 69//37 70//37
f 62//36 61//36 60//36
f 67//35 63//35 71//35
f 68//34 72//34 65//34
f 73//41 74//41 69//41
f 69//42 75//42 70//42
f 61//49 76//49 77//49
f 66//48 78//48 63//48
f 70//47 79//47 72//47
f 69//46 74//46 80//46
f 59//45 61//45 77//45
f 64//44 78//44 76//44
f 72//43 81//43 66//43
f 76//56 82//56 77//56
f 81//55 83//55 78//55
f 79//54 84//54 85//54
f 80//53 74//53 86//53
f 59//52 77//52 82//52
f 78//51 87//51 76//51
f 79//50 88//50 81//50
f 80//57 84//57 75//57
f 86//58 74//58 89//58
f 59//66 82//66 90//66
f 87//65 91//65 92//65
f 85//64 93//64 88//64
f 86//63 94//63 84//63
f 87//62 90//62 82//62
f 88//61 91//61 83//61
f 84//59 95//59 85//59
f 92//8 96//8 97//8
f 95//7 98//7 93//7
f 89//6 99//6 94//6
f 92//5 100//5 90//5
f 93//4 96//4 91//4
f 94//2 101//2 95//2
f 89//1 74//1 102//1
f 59//9 90//9 100//9
f 97//10 103//10 100//10
f 98//17 104//17 96//17
f 99//16 105//16 101//16
f 102//15 74//15 106//15
f 59//14 100//14 103//14
f 97//13 104//13 107//13
f 98//12 105//12 108//12
f 102//11 109//11 99//11
f 108//24 110//24 104//24
f 109//23 111//23 105//23
f 106//22 74//22 112//22
f 59//21 103//21 113//21
f 104//20 114//20 107//20
f 105//19 115//19 108//19
f 106//18 116//18 109//18
f 103//25 114//25 113//25
f 59//26 113//26 60//26
f 110//33 62//33 114//68
f 111//32 67//32 115//32
f 112//31 68//31 116//31
f 113//30 62//30 60//30
f 115//29 71//29 110//29
f 116//28 65//28 111//28
f 112//27 74//27 73//27
f 62//39 71//39 63//39
f 65//38 72//38 66//38
f 68//37 73//37 69//37
f 62//36 64//36 61//36
f 67//35 66//35 63//35
f 68//34 70//34 72//34
f 69//42 80//42 75//42
f 61//49 64//49 76//49
f 66//48 81//48 78//48
f 70//47 75//47 79//47
f 64//44 63//44 78//44
f 72//43 79//43 81//43
f 76//56 87//56 82//56
f 81//55 88//55 83//55
f 79//54 75//54 84//54
f 78//51 83//51 87//51
f 79//50 85//50 88//50
f 80//57 86//57 84//57
f 87//65 83//65 91//65
f 85//64 95//64 93//64
f 86//63 89//63 94//63
f 87//62 92//62 90//62
f 88//61 93//61 91//61
f 84//59 94//59 95//59
f 92//8 91//8 96//8
f 95//7 101//7 98//7
f 89//6 102//6 99//6
f 92//5 97//5 100//5
f 93//4 98//4 96//4
f 94//2 99//3 101//2
f 97//10 107//10 103//10
f 98//17 108//17 104//17
f 99//16 109//16 105//16
f 97//13 96//13 104//13
f 98//12 101//12 105//12
f 102//11 106//11 109//11
f 108//24 115//24 110//24
f 109//23 116//23 111//23
f 104//20 110//20 114//20
f 105//19 111//19 115//19
f 106//18 112//18 116//18
f 103//25 107//25 114//25
f 110//33 71//33 62//33
f 111//32 65//32 67//32
f 112//31 73//31 68//31
f 113//30 114//30 62//30
f 115//29 67//29 71//29
f 116//28 68//28 65//28
