# Blender v2.79 (sub 0) OBJ File: ''
# www.blender.org
mtllib atmosphere.mtl
o Sphere
v 0.000000 -0.500000 -0.000000
v 0.000000 -0.461940 -0.191342
v 0.135299 -0.461940 -0.135299
v 0.000000 -0.353553 -0.353553
v 0.326641 -0.191342 -0.326641
v 0.250000 -0.353553 -0.250000
v 0.000000 0.191342 -0.461940
v 0.353553 0.000000 -0.353553
v 0.000000 0.000000 -0.500000
v 0.000000 0.353553 -0.353553
v 0.135299 0.461940 -0.135299
v 0.250000 0.353553 -0.250000
v 0.000000 -0.191342 -0.461940
v 0.326641 0.191342 -0.326641
v 0.000000 0.461940 -0.191342
v 0.000000 0.500000 0.000000
v 0.353553 0.353553 0.000000
v 0.353553 -0.353553 -0.000000
v 0.191342 -0.461940 -0.000000
v 0.461940 -0.191342 -0.000000
v 0.461940 0.191342 0.000000
v 0.191342 0.461940 0.000000
v 0.500000 0.000000 0.000000
v 0.135299 -0.461940 0.135299
v 0.326641 -0.191342 0.326641
v 0.250000 0.353553 0.250000
v 0.326641 0.191342 0.326641
v 0.135299 0.461940 0.135299
v 0.250000 -0.353553 0.250000
v 0.353553 -0.000000 0.353553
v 0.000000 0.461940 0.191342
v 0.000000 -0.461940 0.191342
v 0.000000 -0.191342 0.461940
v 0.000000 -0.353553 0.353553
v 0.000000 -0.000000 0.500000
v 0.000000 0.353553 0.353553
v 0.000000 0.191342 0.461940
v -0.326641 -0.191342 0.326641
v -0.250000 -0.353553 0.250000
v -0.353553 -0.000000 0.353553
v -0.250000 0.353553 0.250000
v -0.135299 -0.461940 0.135299
v -0.326641 0.191342 0.326641
v -0.135299 0.461940 0.135299
v -0.191342 -0.461940 -0.000000
v -0.461940 -0.191342 -0.000000
v -0.461940 0.191342 0.000000
v -0.191342 0.461940 0.000000
v -0.353553 -0.353553 -0.000000
v -0.500000 0.000000 0.000000
v -0.353553 0.353553 0.000000
v -0.326641 -0.191342 -0.326641
v -0.326641 0.191342 -0.326641
v -0.135299 0.461940 -0.135299
v -0.135299 -0.461940 -0.135299
v -0.250000 -0.353553 -0.250000
v -0.353553 0.000000 -0.353553
v -0.250000 0.353553 -0.250000
v 0.000000 -0.500000 -0.000000
v 0.000000 -0.461940 -0.191342
v 0.135299 -0.461940 -0.135299
v 0.000000 -0.353553 -0.353553
v 0.326641 -0.191342 -0.326641
v 0.250000 -0.353553 -0.250000
v 0.000000 0.191342 -0.461940
v 0.353553 0.000000 -0.353553
v 0.000000 0.000000 -0.500000
v 0.000000 0.353553 -0.353553
v 0.135299 0.461940 -0.135299
v 0.250000 0.353553 -0.250000
v 0.000000 -0.191342 -0.461940
v 0.326641 0.191342 -0.326641
v 0.000000 0.461940 -0.191342
v 0.000000 0.500000 0.000000
v 0.353553 0.353553 0.000000
v 0.353553 -0.353553 -0.000000
v 0.191342 -0.461940 -0.000000
v 0.461940 -0.191342 -0.000000
v 0.461940 0.191342 0.000000
v 0.191342 0.461940 0.000000
v 0.500000 0.000000 0.000000
v 0.135299 -0.461940 0.135299
v 0.326641 -0.191342 0.326641
v 0.250000 0.353553 0.250000
v 0.326641 0.191342 0.326641
v 0.135299 0.461940 0.135299
v 0.250000 -0.353553 0.250000
v 0.353553 -0.000000 0.353553
v 0.000000 0.461940 0.191342
v 0.000000 -0.461940 0.191342
v 0.000000 -0.191342 0.461940
v 0.000000 -0.353553 0.353553
v 0.000000 -0.000000 0.500000
v 0.000000 0.353553 0.353553
v 0.000000 0.191342 0.461940
v -0.326641 -0.191342 0.326641
v -0.250000 -0.353553 0.250000
v -0.353553 -0.000000 0.353553
v -0.250000 0.353553 0.250000
v -0.135299 -0.461940 0.135299
v -0.326641 0.191342 0.326641
v -0.135299 0.461940 0.135299
v -0.191342 -0.461940 -0.000000
v -0.461940 -0.191342 -0.000000
v -0.461940 0.191342 0.000000
v -0.191342 0.461940 0.000000
v -0.353553 -0.353553 -0.000000
v -0.500000 0.000000 0.000000
v -0.353553 0.353553 0.000000
v -0.326641 -0.191342 -0.326641
v -0.326641 0.191342 -0.326641
v -0.135299 0.461940 -0.135299
v -0.135299 -0.461940 -0.135299
v -0.250000 -0.353553 -0.250000
v -0.353553 0.000000 -0.353553
v -0.250000 0.353553 -0.250000
vt 0.500000 0.000000
vt 0.875000 0.125000
vt 1.000000 0.125000
vt 1.000000 0.250000
vt 0.875000 0.250000
vt 0.875000 0.375000
vt 1.000000 0.625000
vt 1.000000 0.500000
vt 0.875000 0.500000
vt 1.000000 0.750000
vt 0.875000 0.750000
vt 0.875000 0.875000
vt 1.000000 0.375000
vt 0.875000 0.625000
vt 1.000000 0.875000
vt 0.500000 1.000000
vt 0.750000 0.750000
vt 0.750000 0.125000
vt 0.750000 0.250000
vt 0.750000 0.375000
vt 0.750000 0.625000
vt 0.750000 0.875000
vt 0.750000 0.500000
vt 0.625000 0.125000
vt 0.625000 0.375000
vt 0.625000 0.625000
vt 0.625000 0.750000
vt 0.625000 0.875000
vt 0.625000 0.250000
vt 0.625000 0.500000
vt 0.500000 0.875000
vt 0.500000 0.125000
vt 0.500000 0.250000
vt 0.500000 0.375000
vt 0.500000 0.500000
vt 0.500000 0.750000
vt 0.500000 0.625000
vt 0.375000 0.250000
vt 0.375000 0.375000
vt 0.375000 0.500000
vt 0.375000 0.750000
vt 0.375000 0.125000
vt 0.375000 0.625000
vt 0.375000 0.875000
vt 0.250000 0.125000
vt 0.250000 0.375000
vt 0.250000 0.625000
vt 0.250000 0.875000
vt 0.250000 0.250000
vt 0.250000 0.500000
vt 0.250000 0.750000
vt 0.125000 0.375000
vt 0.125000 0.625000
vt 0.125000 0.875000
vt 0.125000 0.125000
vt 0.125000 0.250000
vt 0.125000 0.500000
vt 0.125000 0.750000
vt 0.000000 0.125000
vt 0.000000 0.250000
vt 0.000000 0.500000
vt 0.000000 0.750000
vt 0.000000 0.375000
vt 0.000000 0.625000
vt 0.000000 0.875000
vt 0.500000 0.000000
vt 1.000000 0.125000
vt 0.875000 0.125000
vt 1.000000 0.250000
vt 0.875000 0.375000
vt 0.875000 0.250000
vt 1.000000 0.625000
vt 0.875000 0.500000
vt 1.000000 0.500000
vt 1.000000 0.750000
vt 0.875000 0.875000
vt 0.875000 0.750000
vt 1.000000 0.375000
vt 0.875000 0.625000
vt 1.000000 0.875000
vt 0.500000 1.000000
vt 0.750000 0.750000
vt 0.750000 0.250000
vt 0.750000 0.125000
vt 0.750000 0.375000
vt 0.750000 0.625000
vt 0.750000 0.875000
vt 0.750000 0.500000
vt 0.625000 0.125000
vt 0.625000 0.375000
vt 0.625000 0.750000
vt 0.625000 0.625000
vt 0.625000 0.875000
vt 0.625000 0.250000
vt 0.625000 0.500000
vt 0.500000 0.875000
vt 0.500000 0.125000
vt 0.500000 0.375000
vt 0.500000 0.250000
vt 0.500000 0.500000
vt 0.500000 0.750000
vt 0.500000 0.625000
vt 0.375000 0.375000
vt 0.375000 0.250000
vt 0.375000 0.500000
vt 0.375000 0.750000
vt 0.375000 0.125000
vt 0.375000 0.625000
vt 0.375000 0.875000
vt 0.250000 0.125000
vt 0.250000 0.375000
vt 0.250000 0.625000
vt 0.250000 0.875000
vt 0.250000 0.250000
vt 0.250000 0.500000
vt 0.250000 0.750000
vt 0.125000 0.375000
vt 0.125000 0.625000
vt 0.125000 0.875000
vt 0.125000 0.125000
vt 0.125000 0.250000
vt 0.125000 0.500000
vt 0.125000 0.750000
vt 0.000000 0.125000
vt 0.000000 0.250000
vt 0.000000 0.500000
vt 0.000000 0.750000
vt 0.000000 0.375000
vt 0.000000 0.625000
vt 0.000000 0.875000
vn -0.0805 0.9776 0.1945
vn -0.3256 0.5253 0.7861
vn -0.3256 0.5253 0.7862
vn -0.3764 -0.1807 0.9087
vn -0.2243 -0.8103 0.5414
vn -0.2243 0.8103 0.5414
vn -0.3764 0.1807 0.9087
vn -0.3256 -0.5253 0.7861
vn -0.0805 -0.9776 0.1945
vn -0.5414 -0.8103 0.2243
vn -0.5414 0.8103 0.2243
vn -0.9087 0.1807 0.3764
vn -0.7861 -0.5253 0.3256
vn -0.1945 -0.9776 0.0805
vn -0.1945 0.9776 0.0805
vn -0.7861 0.5253 0.3256
vn -0.9087 -0.1807 0.3764
vn -0.5414 0.8103 -0.2243
vn -0.9087 0.1807 -0.3764
vn -0.7861 -0.5253 -0.3256
vn -0.1945 -0.9776 -0.0805
vn -0.1945 0.9776 -0.0805
vn -0.7861 0.5253 -0.3256
vn -0.9087 -0.1807 -0.3764
vn -0.5414 -0.8103 -0.2243
vn -0.0805 -0.9776 -0.1945
vn -0.0805 0.9776 -0.1945
vn -0.3256 0.5253 -0.7861
vn -0.3764 -0.1807 -0.9087
vn -0.2243 -0.8103 -0.5414
vn -0.2243 0.8103 -0.5414
vn -0.3764 0.1807 -0.9087
vn -0.3256 -0.5253 -0.7861
vn 0.3256 0.5253 -0.7861
vn 0.3764 -0.1807 -0.9087
vn 0.2243 -0.8103 -0.5414
vn 0.2243 0.8103 -0.5414
vn 0.3764 0.1807 -0.9087
vn 0.3256 -0.5253 -0.7861
vn 0.0805 -0.9776 -0.1945
vn 0.0805 0.9776 -0.1945
vn 0.5414 0.8103 -0.2243
vn 0.9087 0.1807 -0.3764
vn 0.7861 -0.5253 -0.3256
vn 0.1945 -0.9776 -0.0805
vn 0.1945 0.9776 -0.0805
vn 0.7861 0.5253 -0.3256
vn 0.9087 -0.1807 -0.3764
vn 0.5414 -0.8103 -0.2243
vn 0.9087 0.1807 0.3764
vn 0.7861 -0.5253 0.3256
vn 0.1945 -0.9776 0.0805
vn 0.1945 0.9776 0.0805
vn 0.7861 0.5253 0.3256
vn 0.9087 -0.1807 0.3764
vn 0.5414 -0.8103 0.2243
vn 0.5414 0.8103 0.2243
vn 0.0805 0.9776 0.1945
vn 0.3256 0.5253 0.7861
vn 0.3256 0.5253 0.7862
vn 0.3764 -0.1807 0.9087
vn 0.2243 -0.8103 0.5414
vn 0.2243 0.8103 0.5414
vn 0.3764 0.1807 0.9087
vn 0.3256 -0.5253 0.7861
vn 0.0805 -0.9776 0.1945
vn 0.3256 -0.5253 -0.7862
vn -0.3256 -0.5253 -0.7862
usemtl None
s 1
f 1/1/1 3/2/1 2/3/1
f 4/4/2 6/5/3 5/6/2
f 7/7/4 9/8/4 8/9/4
f 10/10/5 12/11/5 11/12/5
f 4/4/6 2/3/6 3/2/6
f 9/8/7 13/13/7 5/6/7
f 10/10/8 7/7/8 14/14/8
f 15/15/9 11/12/9 16/16/9
f 11/12/10 12/11/10 17/17/10
f 3/2/11 19/18/11 18/19/11
f 8/9/12 5/6/12 20/20/12
f 12/11/13 14/14/13 21/21/13
f 11/12/14 22/22/14 16/16/14
f 1/1/15 19/18/15 3/2/15
f 6/5/16 18/19/16 20/20/16
f 14/14/17 8/9/17 23/23/17
f 18/19/18 19/18/18 24/24/18
f 23/23/19 20/20/19 25/25/19
f 21/21/20 27/26/20 26/27/20
f 22/22/21 28/28/21 16/16/21
f 1/1/22 24/24/22 19/18/22
f 20/20/23 18/19/23 29/29/23
f 21/21/24 23/23/24 30/30/24
f 22/22/25 17/17/25 26/27/25
f 28/28/26 31/31/26 16/16/26
f 1/1/27 32/32/27 24/24/27
f 29/29/28 34/33/28 33/34/28
f 27/26/29 30/30/29 35/35/29
f 28/28/30 26/27/30 36/36/30
f 29/29/31 24/24/31 32/32/31
f 30/30/32 25/25/32 33/34/32
f 26/27/33 27/26/33 37/37/33
f 34/33/34 39/38/34 38/39/34
f 37/37/35 35/35/35 40/40/35
f 31/31/36 36/36/36 41/41/36
f 34/33/37 32/32/37 42/42/37
f 35/35/38 33/34/38 38/39/38
f 36/36/39 37/37/39 43/43/39
f 31/31/40 44/44/40 16/16/40
f 1/1/41 42/42/41 32/32/41
f 39/38/42 42/42/42 45/45/42
f 40/40/43 38/39/43 46/46/43
f 41/41/44 43/43/44 47/47/44
f 44/44/45 48/48/45 16/16/45
f 1/1/46 45/45/46 42/42/46
f 39/38/47 49/49/47 46/46/47
f 40/40/48 50/50/48 47/47/48
f 44/44/49 41/41/49 51/51/49
f 50/50/50 46/46/50 52/52/50
f 51/51/51 47/47/51 53/53/51
f 48/48/52 54/54/52 16/16/52
f 1/1/53 55/55/53 45/45/53
f 46/46/54 49/49/54 56/56/54
f 47/47/55 50/50/55 57/57/55
f 48/48/56 51/51/56 58/58/56
f 45/45/57 55/55/57 56/56/57
f 1/1/58 2/59/58 55/55/58
f 52/52/59 56/56/60 4/60/59
f 53/53/61 57/57/61 9/61/61
f 54/54/62 58/58/62 10/62/62
f 55/55/63 2/59/63 4/60/63
f 57/57/64 52/52/64 13/63/64
f 58/58/65 53/53/65 7/64/65
f 54/54/66 15/65/66 16/16/66
f 4/4/2 5/6/2 13/13/2
f 7/7/4 8/9/4 14/14/4
f 10/10/5 11/12/5 15/15/5
f 4/4/6 3/2/6 6/5/6
f 9/8/7 5/6/7 8/9/7
f 10/10/8 14/14/8 12/11/8
f 11/12/10 17/17/10 22/22/10
f 3/2/11 18/19/11 6/5/11
f 8/9/12 20/20/12 23/23/12
f 12/11/13 21/21/13 17/17/13
f 6/5/16 20/20/16 5/6/16
f 14/14/17 23/23/17 21/21/17
f 18/19/18 24/24/18 29/29/18
f 23/23/19 25/25/19 30/30/19
f 21/21/20 26/27/20 17/17/20
f 20/20/23 29/29/23 25/25/23
f 21/21/24 30/30/24 27/26/24
f 22/22/25 26/27/25 28/28/25
f 29/29/28 33/34/28 25/25/28
f 27/26/29 35/35/29 37/37/29
f 28/28/30 36/36/30 31/31/30
f 29/29/31 32/32/31 34/33/31
f 30/30/32 33/34/32 35/35/32
f 26/27/33 37/37/33 36/36/33
f 34/33/34 38/39/34 33/34/34
f 37/37/35 40/40/35 43/43/35
f 31/31/36 41/41/36 44/44/36
f 34/33/37 42/42/37 39/38/37
f 35/35/38 38/39/38 40/40/38
f 36/36/39 43/43/39 41/41/67
f 39/38/42 45/45/42 49/49/42
f 40/40/43 46/46/43 50/50/43
f 41/41/44 47/47/44 51/51/44
f 39/38/47 46/46/47 38/39/47
f 40/40/48 47/47/48 43/43/48
f 44/44/49 51/51/49 48/48/49
f 50/50/50 52/52/50 57/57/50
f 51/51/51 53/53/51 58/58/51
f 46/46/54 56/56/54 52/52/54
f 47/47/55 57/57/55 53/53/55
f 48/48/56 58/58/56 54/54/56
f 45/45/57 56/56/57 49/49/57
f 52/52/59 4/60/59 13/63/59
f 53/53/61 9/61/61 7/64/61
f 54/54/62 10/62/62 15/65/62
f 55/55/63 4/60/63 56/56/63
f 57/57/64 13/63/64 9/61/64
f 58/58/65 7/64/65 10/62/65
f 59/66/40 60/67/40 61/68/40
f 62/69/39 63/70/39 64/71/67
f 65/72/38 66/73/38 67/74/38
f 68/75/37 69/76/37 70/77/37
f 62/69/36 61/68/36 60/67/36
f 67/74/35 63/70/35 71/78/35
f 68/75/34 72/79/34 65/72/34
f 73/80/41 74/81/41 69/76/41
f 69/76/42 75/82/42 70/77/42
f 61/68/49 76/83/49 77/84/49
f 66/73/48 78/85/48 63/70/48
f 70/77/47 79/86/47 72/79/47
f 69/76/46 74/81/46 80/87/46
f 59/66/45 61/68/45 77/84/45
f 64/71/44 78/85/44 76/83/44
f 72/79/43 81/88/43 66/73/43
f 76/83/56 82/89/56 77/84/56
f 81/88/55 83/90/55 78/85/55
f 79/86/54 84/91/54 85/92/54
f 80/87/53 74/81/53 86/93/53
f 59/66/52 77/84/52 82/89/52
f 78/85/51 87/94/51 76/83/51
f 79/86/50 88/95/50 81/88/50
f 80/87/57 84/91/57 75/82/57
f 86/93/58 74/81/58 89/96/58
f 59/66/66 82/89/66 90/97/66
f 87/94/65 91/98/65 92/99/65
f 85/92/64 93/100/64 88/95/64
f 86/93/63 94/101/63 84/91/63
f 87/94/62 90/97/62 82/89/62
f 88/95/61 91/98/61 83/90/61
f 84/91/59 95/102/59 85/92/59
f 92/99/8 96/103/8 97/104/8
f 95/102/7 98/105/7 93/100/7
f 89/96/6 99/106/6 94/101/6
f 92/99/5 100/107/5 90/97/5
f 93/100/4 96/103/4 91/98/4
f 94/101/2 101/108/2 95/102/2
f 89/96/1 74/81/1 102/109/1
f 59/66/9 90/97/9 100/107/9
f 97/104/10 103/110/10 100/107/10
f 98/105/17 104/111/17 96/103/17
f 99/106/16 105/112/16 101/108/16
f 102/109/15 74/81/15 106/113/15
f 59/66/14 100/107/14 103/110/14
f 97/104/13 104/111/13 107/114/13
f 98/105/12 105/112/12 108/115/12
f 102/109/11 109/116/11 99/106/11
f 108/115/24 110/117/24 104/111/24
f 109/116/23 111/118/23 105/112/23
f 106/113/22 74/81/22 112/119/22
f 59/66/21 103/110/21 113/120/21
f 104/111/20 114/121/20 107/114/20
f 105/112/19 115/122/19 108/115/19
f 106/113/18 116/123/18 109/116/18
f 103/110/25 114/121/25 113/120/25
f 59/66/26 113/120/26 60/124/26
f 110/117/33 62/125/33 114/121/68
f 111/118/32 67/126/32 115/122/32
f 112/119/31 68/127/31 116/123/31
f 113/120/30 62/125/30 60/124/30
f 115/122/29 71/128/29 110/117/29
f 116/123/28 65/129/28 111/118/28
f 112/119/27 74/81/27 73/130/27
f 62/69/39 71/78/39 63/70/39
f 65/72/38 72/79/38 66/73/38
f 68/75/37 73/80/37 69/76/37
f 62/69/36 64/71/36 61/68/36
f 67/74/35 66/73/35 63/70/35
f 68/75/34 70/77/34 72/79/34
f 69/76/42 80/87/42 75/82/42
f 61/68/49 64/71/49 76/83/49
f 66/73/48 81/88/48 78/85/48
f 70/77/47 75/82/47 79/86/47
f 64/71/44 63/70/44 78/85/44
f 72/79/43 79/86/43 81/88/43
f 76/83/56 87/94/56 82/89/56
f 81/88/55 88/95/55 83/90/55
f 79/86/54 75/82/54 84/91/54
f 78/85/51 83/90/51 87/94/51
f 79/86/50 85/92/50 88/95/50
f 80/87/57 86/93/57 84/91/57
f 87/94/65 83/90/65 91/98/65
f 85/92/64 95/102/64 93/100/64
f 86/93/63 89/96/63 94/101/63
f 87/94/62 92/99/62 90/97/62
f 88/95/61 93/100/61 91/98/61
f 84/91/59 94/101/59 95/102/59
f 92/99/8 91/98/8 96/103/8
f 95/102/7 101/108/7 98/105/7
f 89/96/6 102/109/6 99/106/6
f 92/99/5 97/104/5 100/107/5
f 93/100/4 98/105/4 96/103/4
f 94/101/2 99/106/3 101/108/2
f 97/104/10 107/114/10 103/110/10
f 98/105/17 108/115/17 104/111/17
f 99/106/16 109/116/16 105/112/16
f 97/104/13 96/103/13 104/111/13
f 98/105/12 101/108/12 105/112/12
f 102/109/11 106/113/11 109/116/11
f 108/115/24 115/122/24 110/117/24
f 109/116/23 116/123/23 111/118/23
f 104/111/20 110/117/20 114/121/20
f 105/112/19 111/118/19 115/122/19
f 106/113/18 112/119/18 116/123/18
f 103/110/25 107/114/25 114/121/25
f 110/117/33 71/128/33 62/125/33
f 111/118/32 65/129/32 67/126/32
f 112/119/31 73/130/31 68/127/31
f 113/120/30 114/121/30 62/125/30
f 115/122/29 67/126/29 71/128/29
f 116/123/28 68/127/28 65/129/28
