# Blender v2.78 (sub 0) OBJ File: 'beacon.blend'
# www.blender.org
o InnerSpin
v 0.424264 2.050000 -0.247487
v 0.424264 3.950000 -0.247487
v 0.247487 2.050000 -0.424264
v 0.247487 3.950000 -0.424264
v 0.459619 1.950000 -0.282843
v 0.459619 4.050000 -0.282843
v 0.282843 1.950000 -0.459619
v 0.282843 4.050000 -0.459619
v 0.080917 4.454685 0.095859
v -0.095859 4.454685 -0.080917
v -0.080917 4.545315 -0.095859
v 0.095859 4.545315 0.080917
v -0.102513 1.060050 -0.074264
v 0.074264 1.060050 0.102513
v -0.067157 0.960050 -0.109619
v 0.109619 0.960050 0.067157
v -0.247487 2.050000 -0.424264
v -0.247487 3.950000 -0.424264
v -0.424264 2.050000 -0.247487
v -0.424264 3.950000 -0.247487
v -0.282843 1.950000 -0.459619
v -0.282843 4.050000 -0.459619
v -0.459619 1.950000 -0.282843
v -0.459619 4.050000 -0.282843
v 0.095859 4.454685 -0.080917
v -0.080917 4.454685 0.095859
v -0.095859 4.545315 0.080917
v 0.080918 4.545315 -0.095859
v -0.074264 1.060050 0.102513
v 0.102513 1.060050 -0.074264
v -0.109619 0.960050 0.067157
v 0.067157 0.960050 -0.109620
v 0.247487 2.050000 0.424264
v 0.247487 3.950000 0.424264
v 0.424264 2.050000 0.247487
v 0.424264 3.950000 0.247487
v 0.282843 1.950000 0.459619
v 0.282843 4.050000 0.459619
v 0.459619 1.950000 0.282843
v 0.459619 4.050000 0.282843
v -0.095859 4.454685 0.080917
v 0.080917 4.454685 -0.095859
v 0.095859 4.545315 -0.080917
v -0.080917 4.545315 0.095859
v 0.074264 1.060050 -0.102513
v -0.102513 1.060050 0.074264
v 0.109619 0.960050 -0.067157
v -0.067157 0.960050 0.109619
v -0.424264 2.050000 0.247487
v -0.424264 3.950000 0.247487
v -0.247487 2.050000 0.424264
v -0.247487 3.950000 0.424264
v -0.459619 1.950000 0.282843
v -0.459619 4.050000 0.282843
v -0.282843 1.950000 0.459619
v -0.282843 4.050000 0.459619
v -0.080917 4.454685 -0.095859
v 0.095859 4.454685 0.080917
v 0.080918 4.545315 0.095859
v -0.095859 4.545315 -0.080917
v 0.102513 1.060050 0.074264
v -0.074264 1.060050 -0.102513
v 0.067157 0.960050 0.109620
v -0.109619 0.960050 -0.067157
vt 0.9996 0.2714
vt 0.9771 0.1002
vt 0.9996 0.1002
vt 0.8539 0.6987
vt 0.8515 0.5149
vt 0.8560 0.5241
vt 0.8492 0.7079
vt 0.8293 0.5180
vt 0.8264 0.7018
vt 0.8241 0.5269
vt 0.7994 0.4247
vt 0.8227 0.4175
vt 0.9771 0.2714
vt 0.9996 0.3346
vt 0.9771 0.3346
vt 0.7933 0.7447
vt 0.8219 0.6940
vt 0.8255 0.7636
vt 0.8171 0.7638
vt 0.7975 0.7525
vt 0.7933 0.4334
vt 0.8323 0.4210
vt 0.8612 0.5185
vt 0.9996 0.0004
vt 0.9763 0.2714
vt 0.9538 0.1002
vt 0.9763 0.1002
vt 0.8560 0.1071
vt 0.8492 0.2908
vt 0.8515 0.0978
vt 0.8294 0.1009
vt 0.8264 0.2848
vt 0.8242 0.1098
vt 0.7994 0.0076
vt 0.8227 0.0004
vt 0.9538 0.2714
vt 0.9763 0.3346
vt 0.9538 0.3346
vt 0.7933 0.3277
vt 0.8219 0.2770
vt 0.8255 0.3466
vt 0.8171 0.3467
vt 0.7975 0.3354
vt 0.7933 0.0163
vt 0.8323 0.0040
vt 0.8612 0.1014
vt 0.9763 0.0004
vt 0.9995 0.6885
vt 0.9769 0.5172
vt 0.9995 0.5172
vt 0.3359 0.5321
vt 0.3291 0.7159
vt 0.3314 0.5229
vt 0.3092 0.5260
vt 0.3018 0.7020
vt 0.3040 0.5349
vt 0.3026 0.4255
vt 0.9769 0.7516
vt 0.9769 0.6885
vt 0.3063 0.7098
vt 0.2731 0.7528
vt 0.3054 0.7716
vt 0.2969 0.7718
vt 0.2774 0.7605
vt 0.2731 0.4414
vt 0.2793 0.4327
vt 0.3122 0.4290
vt 0.3410 0.5265
vt 0.9769 0.4175
vt 0.9995 0.4175
vt 0.9762 0.6885
vt 0.9536 0.5172
vt 0.9762 0.5172
vt 0.4025 0.7068
vt 0.4001 0.5229
vt 0.4046 0.5321
vt 0.3978 0.7159
vt 0.3779 0.5260
vt 0.3750 0.7098
vt 0.3727 0.5349
vt 0.3712 0.4255
vt 0.9536 0.7516
vt 0.9536 0.6885
vt 0.3418 0.7528
vt 0.3705 0.7020
vt 0.3740 0.7716
vt 0.3656 0.7718
vt 0.3461 0.7605
vt 0.3418 0.4414
vt 0.3480 0.4327
vt 0.3809 0.4290
vt 0.4097 0.5265
vt 0.9762 0.4175
vt 0.8591 0.7101
vt 0.9771 0.0004
vt 0.8540 0.2817
vt 0.8591 0.2930
vt 0.9538 0.0004
vt 0.3338 0.7068
vt 0.9995 0.7516
vt 0.3390 0.7181
vt 0.9762 0.7516
vt 0.4077 0.7181
vt 0.9536 0.4175
vn -0.7071 0.0000 0.7071
vn -0.7071 0.0000 -0.7071
vn 0.7071 0.0000 -0.7071
vn 0.7071 0.0000 0.7071
vn 0.6325 -0.4472 -0.6325
vn -0.5096 -0.6933 0.5096
vn 0.4904 0.7204 -0.4904
vn -0.6325 0.4472 0.6325
vn -0.6325 -0.4472 -0.6325
vn 0.5096 -0.6933 0.5096
vn -0.4904 0.7204 -0.4904
vn 0.6325 0.4472 0.6325
vn 0.6325 -0.4472 0.6325
vn -0.5096 -0.6933 -0.5096
vn 0.4904 0.7204 0.4904
vn -0.6325 0.4472 -0.6325
vn -0.6325 -0.4472 0.6325
vn 0.5096 -0.6933 -0.5096
vn -0.4904 0.7204 0.4904
vn 0.6325 0.4472 -0.6325
s off
f 2/1/1 3/2/1 1/3/1
f 4/4/2 7/5/2 3/6/2
f 8/7/3 5/8/3 7/5/3
f 6/9/4 1/10/4 5/8/4
f 7/5/5 16/11/5 15/12/5
f 4/13/6 9/14/6 10/15/6
f 6/9/4 9/16/4 2/17/4
f 8/7/2 10/18/2 11/19/2
f 8/7/7 12/20/7 6/9/7
f 5/8/4 14/21/4 16/11/4
f 7/5/2 13/22/2 3/23/2
f 3/2/8 14/24/8 1/3/8
f 18/25/4 19/26/4 17/27/4
f 19/28/1 24/29/1 23/30/1
f 24/29/2 21/31/2 23/30/2
f 22/32/3 17/33/3 21/31/3
f 23/30/9 32/34/9 31/35/9
f 20/36/10 25/37/10 26/38/10
f 22/32/3 25/39/3 18/40/3
f 24/29/1 26/41/1 27/42/1
f 24/29/11 28/43/11 22/32/11
f 21/31/3 30/44/3 32/34/3
f 23/30/1 29/45/1 19/46/1
f 19/26/12 30/47/12 17/27/12
f 34/48/2 35/49/2 33/50/2
f 35/51/3 40/52/3 39/53/3
f 40/52/4 37/54/4 39/53/4
f 37/54/1 34/55/1 33/56/1
f 37/54/13 47/57/13 39/53/13
f 34/48/14 42/58/14 36/59/14
f 38/60/1 41/61/1 34/55/1
f 40/52/3 42/62/3 43/63/3
f 40/52/15 44/64/15 38/60/15
f 37/54/1 46/65/1 48/66/1
f 39/53/3 45/67/3 35/68/3
f 33/50/16 45/69/16 46/70/16
f 50/71/3 51/72/3 49/73/3
f 52/74/4 55/75/4 51/76/4
f 56/77/1 53/78/1 55/75/1
f 54/79/2 49/80/2 53/78/2
f 53/78/17 63/81/17 55/75/17
f 50/71/18 58/82/18 52/83/18
f 54/79/2 57/84/2 50/85/2
f 56/77/4 58/86/4 59/87/4
f 54/79/19 59/87/19 60/88/19
f 53/78/2 62/89/2 64/90/2
f 55/75/4 61/91/4 51/92/4
f 51/72/20 62/93/20 49/73/20
f 2/1/1 4/13/1 3/2/1
f 4/4/2 8/7/2 7/5/2
f 8/7/3 6/9/3 5/8/3
f 6/9/4 2/17/4 1/10/4
f 7/5/5 5/8/5 16/11/5
f 4/13/6 2/1/6 9/14/6
f 6/9/4 12/20/4 9/16/4
f 8/7/2 4/94/2 10/18/2
f 8/7/7 11/19/7 12/20/7
f 5/8/4 1/10/4 14/21/4
f 7/5/2 15/12/2 13/22/2
f 3/2/8 13/95/8 14/24/8
f 18/25/4 20/36/4 19/26/4
f 19/28/1 20/96/1 24/29/1
f 24/29/2 22/32/2 21/31/2
f 22/32/3 18/40/3 17/33/3
f 23/30/9 21/31/9 32/34/9
f 20/36/10 18/25/10 25/37/10
f 22/32/3 28/43/3 25/39/3
f 24/29/1 20/97/1 26/41/1
f 24/29/11 27/42/11 28/43/11
f 21/31/3 17/33/3 30/44/3
f 23/30/1 31/35/1 29/45/1
f 19/26/12 29/98/12 30/47/12
f 34/48/2 36/59/2 35/49/2
f 35/51/3 36/99/3 40/52/3
f 40/52/4 38/60/4 37/54/4
f 37/54/1 38/60/1 34/55/1
f 37/54/13 48/66/13 47/57/13
f 34/48/14 41/100/14 42/58/14
f 38/60/1 44/64/1 41/61/1
f 40/52/3 36/101/3 42/62/3
f 40/52/15 43/63/15 44/64/15
f 37/54/1 33/56/1 46/65/1
f 39/53/3 47/57/3 45/67/3
f 33/50/16 35/49/16 45/69/16
f 50/71/3 52/83/3 51/72/3
f 52/74/4 56/77/4 55/75/4
f 56/77/1 54/79/1 53/78/1
f 54/79/2 50/85/2 49/80/2
f 53/78/17 64/90/17 63/81/17
f 50/71/18 57/102/18 58/82/18
f 54/79/2 60/88/2 57/84/2
f 56/77/4 52/103/4 58/86/4
f 54/79/19 56/77/19 59/87/19
f 53/78/2 49/80/2 62/89/2
f 55/75/4 63/81/4 61/91/4
f 51/72/20 61/104/20 62/93/20
o OuterSpin
v -0.950000 2.050000 -0.250000
v -0.950000 3.950000 -0.250000
v -0.950000 2.050000 0.250000
v -0.950000 3.950000 0.250000
v -1.050000 1.950000 -0.250000
v -1.050000 4.050000 -0.250000
v -1.050000 1.950000 0.250000
v -1.050000 4.050000 0.250000
v 0.021131 4.454685 -0.250000
v 0.021131 4.454685 0.250000
v -0.021131 4.545315 0.250000
v -0.021131 4.545315 -0.250000
v 0.039949 1.060050 0.250000
v 0.039949 1.060050 -0.250000
v -0.060051 0.960050 0.250000
v -0.060051 0.960050 -0.250000
v -0.250000 2.050000 0.950000
v -0.250000 3.950000 0.950000
v 0.250000 2.050000 0.950000
v 0.250000 3.950000 0.950000
v -0.250000 1.950000 1.050000
v -0.250000 4.050000 1.050000
v 0.250000 1.950000 1.050000
v 0.250000 4.050000 1.050000
v -0.250000 4.454685 -0.021131
v 0.250000 4.454685 -0.021131
v 0.250000 4.545315 0.021131
v -0.250000 4.545315 0.021131
v 0.250000 1.060050 -0.039949
v -0.250000 1.060050 -0.039949
v 0.250000 0.960050 0.060051
v -0.250000 0.960050 0.060051
v 0.250000 2.050000 -0.950000
v 0.250000 3.950000 -0.950000
v -0.250000 2.050000 -0.950000
v -0.250000 3.950000 -0.950000
v 0.250000 1.950000 -1.050000
v 0.250000 4.050000 -1.050000
v -0.250000 1.950000 -1.050000
v -0.250000 4.050000 -1.050000
v 0.250000 4.454685 0.021131
v -0.250000 4.454685 0.021131
v -0.250000 4.545315 -0.021131
v 0.250000 4.545315 -0.021131
v -0.250000 1.060050 0.039949
v 0.250000 1.060050 0.039949
v -0.250000 0.960050 -0.060051
v 0.250000 0.960050 -0.060051
v 0.950000 2.050000 0.250000
v 0.950000 3.950000 0.250000
v 0.950000 2.050000 -0.250000
v 0.950000 3.950000 -0.250000
v 1.050000 1.950000 0.250000
v 1.050000 4.050000 0.250000
v 1.050000 1.950000 -0.250000
v 1.050000 4.050000 -0.250000
v -0.021131 4.454685 0.250000
v -0.021131 4.454685 -0.250000
v 0.021131 4.545315 -0.250000
v 0.021131 4.545315 0.250000
v -0.039949 1.060050 -0.250000
v -0.039949 1.060050 0.250000
v 0.060051 0.960050 -0.250000
v 0.060051 0.960050 0.250000
vt 0.9070 0.2979
vt 0.8620 0.1266
vt 0.9071 0.1266
vt 0.7890 0.7301
vt 0.7801 0.5450
vt 0.7893 0.5543
vt 0.7797 0.7394
vt 0.7368 0.5531
vt 0.7245 0.7200
vt 0.7266 0.5605
vt 0.7332 0.4222
vt 0.8619 0.3965
vt 0.8620 0.2979
vt 0.6816 0.8029
vt 0.6747 0.7980
vt 0.7877 0.7499
vt 0.7207 0.8287
vt 0.7331 0.7258
vt 0.6747 0.4470
vt 0.6862 0.4418
vt 0.7457 0.4175
vt 0.7925 0.5403
vt 0.8621 0.0004
vt 0.9071 0.0004
vt 0.9530 0.2979
vt 0.9079 0.1266
vt 0.9530 0.1266
vt 0.5397 0.7233
vt 0.5308 0.5382
vt 0.5401 0.5475
vt 0.5305 0.7325
vt 0.4876 0.5463
vt 0.4839 0.7190
vt 0.4773 0.5537
vt 0.4840 0.4153
vt 0.9079 0.3965
vt 0.9079 0.2979
vt 0.4753 0.7132
vt 0.4324 0.7960
vt 0.4255 0.7912
vt 0.5385 0.7431
vt 0.4715 0.8218
vt 0.4255 0.4402
vt 0.4369 0.4349
vt 0.4964 0.4106
vt 0.5433 0.5335
vt 0.9530 0.0004
vt 0.9529 0.7149
vt 0.9078 0.5437
vt 0.9529 0.5437
vt 0.6583 0.7233
vt 0.6494 0.5382
vt 0.6586 0.5475
vt 0.6490 0.7325
vt 0.6062 0.5463
vt 0.6024 0.7190
vt 0.5959 0.5537
vt 0.6026 0.4153
vt 0.9078 0.8136
vt 0.9078 0.7149
vt 0.5938 0.7132
vt 0.5510 0.7960
vt 0.5440 0.7912
vt 0.6570 0.7431
vt 0.5901 0.8218
vt 0.5440 0.4402
vt 0.5555 0.4349
vt 0.6150 0.4106
vt 0.6618 0.5335
vt 0.9529 0.4175
vt 0.9070 0.7149
vt 0.8619 0.5437
vt 0.9070 0.5437
vt 0.7890 0.3131
vt 0.7801 0.1280
vt 0.7893 0.1372
vt 0.7797 0.3223
vt 0.7368 0.1361
vt 0.7331 0.3087
vt 0.7266 0.1434
vt 0.7332 0.0051
vt 0.8619 0.8136
vt 0.8619 0.7149
vt 0.7245 0.3029
vt 0.6816 0.3858
vt 0.6747 0.3809
vt 0.7877 0.3328
vt 0.7207 0.4116
vt 0.6747 0.0300
vt 0.6862 0.0247
vt 0.7457 0.0004
vt 0.7925 0.1232
vt 0.9070 0.4175
vt 0.9070 0.3965
vt 0.7286 0.8337
vt 0.9530 0.3965
vt 0.4794 0.8269
vt 0.9079 0.0004
vt 0.9529 0.8136
vt 0.5979 0.8269
vt 0.9078 0.4175
vt 0.9070 0.8136
vt 0.7286 0.4167
vt 0.8619 0.4175
vn 1.0000 0.0000 -0.0000
vn -0.0000 0.0000 1.0000
vn -1.0000 0.0000 0.0000
vn 0.0000 0.0000 -1.0000
vn -0.7071 -0.7071 0.0000
vn 0.4611 -0.8873 0.0000
vn -0.4338 0.9010 0.0000
vn 0.7071 0.7071 0.0000
vn 0.0000 -0.7071 0.7071
vn 0.0000 -0.8873 -0.4611
vn 0.0000 0.9010 0.4338
vn 0.0000 0.7071 -0.7071
vn 0.0000 -0.7071 -0.7071
vn 0.0000 -0.8873 0.4611
vn 0.0000 0.9010 -0.4338
vn 0.0000 0.7071 0.7071
vn 0.7071 -0.7071 0.0000
vn -0.4611 -0.8873 0.0000
vn 0.4338 0.9010 0.0000
vn -0.7071 0.7071 0.0000
s off
f 66/105/21 67/106/21 65/107/21
f 68/108/22 71/109/22 67/110/22
f 72/111/23 69/112/23 71/109/23
f 69/112/24 66/113/24 65/114/24
f 69/112/25 79/115/25 71/109/25
f 66/105/26 74/116/26 68/117/26
f 66/113/24 76/118/24 73/119/24
f 68/120/22 75/121/22 72/111/22
f 70/122/27 75/121/27 76/118/27
f 69/112/24 78/123/24 80/124/24
f 71/109/22 77/125/22 67/126/22
f 65/107/28 77/127/28 78/128/28
f 82/129/24 83/130/24 81/131/24
f 84/132/21 87/133/21 83/134/21
f 88/135/22 85/136/22 87/133/22
f 86/137/23 81/138/23 85/136/23
f 85/136/29 95/139/29 87/133/29
f 82/129/30 90/140/30 84/141/30
f 82/142/23 92/143/23 89/144/23
f 84/145/21 91/146/21 88/135/21
f 88/135/31 92/143/31 86/137/31
f 85/136/23 94/147/23 96/148/23
f 87/133/21 93/149/21 83/150/21
f 83/130/32 94/151/32 81/131/32
f 98/152/22 99/153/22 97/154/22
f 100/155/23 103/156/23 99/157/23
f 104/158/24 101/159/24 103/156/24
f 102/160/21 97/161/21 101/159/21
f 101/159/33 111/162/33 103/156/33
f 98/152/34 106/163/34 100/164/34
f 98/165/21 108/166/21 105/167/21
f 100/168/23 107/169/23 104/158/23
f 104/158/35 108/166/35 102/160/35
f 101/159/21 110/170/21 112/171/21
f 103/156/23 109/172/23 99/173/23
f 99/153/36 110/174/36 97/154/36
f 114/175/23 115/176/23 113/177/23
f 116/178/24 119/179/24 115/180/24
f 120/181/21 117/182/21 119/179/21
f 118/183/22 113/184/22 117/182/22
f 117/182/37 127/185/37 119/179/37
f 114/175/38 122/186/38 116/187/38
f 114/188/22 124/189/22 121/190/22
f 116/191/24 123/192/24 120/181/24
f 120/181/39 124/189/39 118/183/39
f 117/182/22 126/193/22 128/194/22
f 119/179/24 125/195/24 115/196/24
f 115/176/40 126/197/40 113/177/40
f 66/105/21 68/117/21 67/106/21
f 68/108/22 72/111/22 71/109/22
f 72/111/23 70/122/23 69/112/23
f 69/112/24 70/122/24 66/113/24
f 69/112/25 80/124/25 79/115/25
f 66/105/26 73/198/26 74/116/26
f 66/113/24 70/122/24 76/118/24
f 68/120/22 74/199/22 75/121/22
f 70/122/27 72/111/27 75/121/27
f 69/112/24 65/114/24 78/123/24
f 71/109/22 79/115/22 77/125/22
f 65/107/28 67/106/28 77/127/28
f 82/129/24 84/141/24 83/130/24
f 84/132/21 88/135/21 87/133/21
f 88/135/22 86/137/22 85/136/22
f 86/137/23 82/142/23 81/138/23
f 85/136/29 96/148/29 95/139/29
f 82/129/30 89/200/30 90/140/30
f 82/142/23 86/137/23 92/143/23
f 84/145/21 90/201/21 91/146/21
f 88/135/31 91/146/31 92/143/31
f 85/136/23 81/138/23 94/147/23
f 87/133/21 95/139/21 93/149/21
f 83/130/32 93/202/32 94/151/32
f 98/152/22 100/164/22 99/153/22
f 100/155/23 104/158/23 103/156/23
f 104/158/24 102/160/24 101/159/24
f 102/160/21 98/165/21 97/161/21
f 101/159/33 112/171/33 111/162/33
f 98/152/34 105/203/34 106/163/34
f 98/165/21 102/160/21 108/166/21
f 100/168/23 106/204/23 107/169/23
f 104/158/35 107/169/35 108/166/35
f 101/159/21 97/161/21 110/170/21
f 103/156/23 111/162/23 109/172/23
f 99/153/36 109/205/36 110/174/36
f 114/175/23 116/187/23 115/176/23
f 116/178/24 120/181/24 119/179/24
f 120/181/21 118/183/21 117/182/21
f 118/183/22 114/188/22 113/184/22
f 117/182/37 128/194/37 127/185/37
f 114/175/38 121/206/38 122/186/38
f 114/188/22 118/183/22 124/189/22
f 116/191/24 122/207/24 123/192/24
f 120/181/39 123/192/39 124/189/39
f 117/182/22 113/184/22 126/193/22
f 119/179/24 127/185/24 125/195/24
f 115/176/40 125/208/40 126/197/40
o Base
v 1.000000 1.000000 -0.500000
v 1.000000 2.000000 -0.250000
v 1.353553 1.000000 -0.353553
v 1.176777 2.000000 -0.176777
v 1.500000 1.000000 0.000000
v 1.250000 2.000000 0.000000
v 1.353553 1.000000 0.353553
v 1.176777 2.000000 0.176777
v 1.000000 1.000000 0.500000
v 1.000000 2.000000 0.250000
v 0.646447 1.000000 0.353553
v 0.823223 2.000000 0.176777
v 0.500000 1.000000 -0.000000
v 0.750000 2.000000 -0.000000
v 0.646447 1.000000 -0.353553
v 0.823223 2.000000 -0.176777
v 1.176777 4.000000 -0.176777
v 1.000000 4.000000 -0.250000
v 1.250000 4.000000 0.000000
v 1.176777 4.000000 0.176777
v 1.000000 4.000000 0.250000
v 0.823223 4.000000 0.176777
v 0.750000 4.000000 -0.000000
v 0.823223 4.000000 -0.176777
v 1.353554 4.400001 -0.353553
v 1.000000 4.400001 -0.500000
v 1.500000 4.400001 0.000000
v 1.353554 4.400001 0.353553
v 1.000000 4.400001 0.500000
v 0.646447 4.400001 0.353553
v 0.500000 4.400001 -0.000000
v 0.646447 4.400001 -0.353553
v 1.353554 4.700000 -0.353553
v 1.000000 4.700000 -0.500000
v 1.500000 4.700000 0.000000
v 1.353554 4.700000 0.353553
v 1.000000 4.700000 0.500000
v 0.646447 4.700000 0.353553
v 0.500000 4.700000 -0.000000
v 0.646447 4.700000 -0.353553
v 1.176777 5.000000 -0.176777
v 1.000000 5.000000 -0.250000
v 1.250000 5.000000 0.000000
v 1.176777 5.000000 0.176777
v 1.000000 5.000000 0.250000
v 0.823223 5.000000 0.176777
v 0.750000 5.000000 -0.000000
v 0.823223 5.000000 -0.176777
v 0.500000 0.000000 0.500000
v 0.500000 1.000000 0.500000
v 0.500000 0.000000 -0.500000
v 0.500000 1.000000 -0.500000
v 1.500000 0.000000 0.500000
v 1.500000 1.000000 0.500000
v 1.500000 0.000000 -0.500000
v 1.500000 1.000000 -0.500000
v 0.500000 0.000000 -1.500000
v 1.500000 0.000000 -1.500000
v 2.500000 0.000000 -0.500000
v 2.500000 0.000000 0.500000
v 1.500000 0.000000 1.500000
v 0.500000 0.000000 1.500000
v 0.500000 1.000000 -1.250000
v 0.500000 0.750000 -1.500000
v 1.500000 0.750000 -1.500000
v 1.500000 1.000000 -1.250000
v 2.250000 1.000000 -0.500000
v 2.500000 0.750000 -0.500000
v 2.500000 0.750000 0.500000
v 2.250000 1.000000 0.500000
v 1.500000 1.000000 1.250000
v 1.500000 0.750000 1.500000
v 0.500000 0.750000 1.500000
v 0.500000 1.000000 1.250000
vt 0.5480 0.3137
vt 0.5260 0.3516
vt 0.5290 0.3139
vt 0.6385 0.3598
vt 0.6032 0.3755
vt 0.6064 0.3567
vt 0.5671 0.3136
vt 0.5838 0.3544
vt 0.5640 0.3529
vt 0.4730 0.3106
vt 0.4834 0.3503
vt 0.4545 0.3470
vt 0.5059 0.3512
vt 0.5101 0.3140
vt 0.5450 0.3521
vt 0.5865 0.3134
vt 0.6060 0.3129
vt 0.4914 0.3133
vt 0.5070 0.3676
vt 0.5270 0.3960
vt 0.5098 0.3984
vt 0.4846 0.3695
vt 0.5266 0.3668
vt 0.5635 0.3680
vt 0.4536 0.3746
vt 0.5452 0.3669
vt 0.5824 0.3705
vt 0.2731 0.8020
vt 0.2853 0.7725
vt 0.3148 0.7847
vt 0.5600 0.3950
vt 0.5437 0.3949
vt 0.5759 0.3966
vt 0.6300 0.3869
vt 0.5913 0.4008
vt 0.4921 0.4025
vt 0.4742 0.4098
vt 0.6257 0.3111
vt 0.3148 0.8020
vt 0.3026 0.8142
vt 0.2853 0.8142
vt 0.2731 0.7847
vt 0.3026 0.7725
vt 0.6052 0.4098
vt 0.6081 0.1072
vt 0.6097 0.0053
vt 0.6418 0.0142
vt 0.5892 0.1042
vt 0.5777 0.0010
vt 0.5697 0.1024
vt 0.5462 0.0004
vt 0.5498 0.1018
vt 0.5152 0.0032
vt 0.5298 0.1025
vt 0.4846 0.0093
vt 0.4910 0.1076
vt 0.4546 0.0192
vt 0.4255 0.0334
vt 0.6260 0.1114
vt 0.6739 0.0291
vt 0.5102 0.1044
vt 0.4721 0.1120
vt 0.3196 0.8627
vt 0.4097 0.7725
vt 0.4097 0.8627
vt 0.1675 0.2576
vt 0.2576 0.1675
vt 0.2576 0.2576
vt 0.1822 0.6734
vt 0.1822 0.6057
vt 0.2724 0.6057
vt 0.2576 0.3252
vt 0.1675 0.3571
vt 0.2576 0.4247
vt 0.1675 0.4247
vt 0.1822 0.4480
vt 0.2048 0.4255
vt 0.2724 0.5156
vt 0.1814 0.4480
vt 0.1814 0.5156
vt 0.0913 0.5156
vt 0.3252 0.1675
vt 0.3571 0.2576
vt 0.4247 0.1675
vt 0.4247 0.2576
vt 0.1814 0.6734
vt 0.1589 0.6959
vt 0.0913 0.6057
vt 0.0905 0.4480
vt 0.0905 0.5156
vt 0.0004 0.5156
vt 0.1675 0.0999
vt 0.1675 0.1675
vt 0.2576 0.0680
vt 0.1675 0.0004
vt 0.2576 0.0004
vt 0.0905 0.6734
vt 0.0680 0.6959
vt 0.0004 0.6057
vt 0.2576 0.3571
vt 0.3571 0.1675
vt 0.1675 0.0680
vt 0.3196 0.7725
vt 0.2724 0.6959
vt 0.2048 0.6959
vt 0.1675 0.3252
vt 0.2724 0.4255
vt 0.1822 0.5156
vt 0.0913 0.4255
vt 0.1589 0.4255
vt 0.3252 0.2576
vt 0.0913 0.6959
vt 0.1814 0.6057
vt 0.0004 0.4255
vt 0.0680 0.4255
vt 0.2576 0.0999
vt 0.0004 0.6959
vt 0.0905 0.6057
vn 0.3314 -0.5000 0.8001
vn -0.3827 0.0000 -0.9239
vn 0.8001 -0.5000 -0.3314
vn -0.8001 -0.5000 -0.3314
vn -0.3314 -0.5000 0.8001
vn 0.8001 -0.5000 0.3314
vn 0.3314 -0.5000 -0.8001
vn -0.3314 -0.5000 -0.8001
vn -0.8001 -0.5000 0.3314
vn -0.3032 0.6100 0.7321
vn -0.9239 0.0000 0.3827
vn 0.3827 0.0000 0.9239
vn 0.9239 0.0000 -0.3827
vn -0.9239 0.0000 -0.3827
vn -0.3827 0.0000 0.9239
vn 0.9239 0.0000 0.3827
vn 0.3827 0.0000 -0.9239
vn 0.0000 1.0000 0.0000
vn 0.7321 0.6100 0.3032
vn 0.3032 0.6100 -0.7321
vn -0.3032 0.6100 -0.7321
vn -0.7321 0.6100 0.3032
vn 0.3032 0.6100 0.7321
vn 0.7321 0.6100 -0.3032
vn -0.7321 0.6100 -0.3032
vn 0.3729 0.2250 -0.9002
vn 0.9002 0.2250 -0.3729
vn 0.9002 0.2250 0.3729
vn 0.3729 0.2250 0.9002
vn -0.3729 0.2250 0.9002
vn -0.9002 0.2250 0.3729
vn -0.9002 0.2250 -0.3729
vn -0.3729 0.2250 -0.9002
vn 0.0000 -1.0000 0.0000
vn -1.0000 0.0000 0.0000
vn 0.0000 0.0000 -1.0000
vn 1.0000 0.0000 0.0000
vn 0.0000 0.0000 1.0000
vn 0.0000 0.7071 -0.7071
vn 0.7071 0.7071 0.0000
vn 0.0000 0.7071 0.7071
s off
f 148/209/41 157/210/41 149/211/41
f 160/212/42 162/213/42 154/214/42
f 147/215/43 153/216/43 155/217/43
f 152/218/44 159/219/44 160/220/44
f 149/211/45 158/221/45 150/222/45
f 148/209/46 155/217/46 156/223/46
f 145/224/47 154/214/47 153/216/47
f 146/225/48 160/212/48 154/214/48
f 150/222/49 159/219/49 151/226/49
f 166/227/50 173/228/50 174/229/50
f 158/221/51 167/230/51 159/219/51
f 156/223/52 165/231/52 157/210/52
f 153/216/53 163/232/53 155/217/53
f 159/219/54 168/233/54 160/220/54
f 157/210/55 166/227/55 158/221/55
f 155/217/56 164/234/56 156/223/56
f 154/214/57 161/235/57 153/216/57
f 175/236/58 173/237/58 171/238/58
f 164/234/59 171/239/59 172/240/59
f 162/213/60 169/241/60 161/235/60
f 168/242/61 170/243/61 162/213/61
f 166/227/62 175/244/62 167/230/62
f 164/234/63 173/228/63 165/231/63
f 161/235/64 171/239/64 163/232/64
f 168/233/65 175/244/65 176/245/65
f 148/209/41 156/223/41 157/210/41
f 160/212/42 168/242/42 162/213/42
f 147/215/43 145/224/43 153/216/43
f 152/218/44 151/226/44 159/219/44
f 149/211/45 157/210/45 158/221/45
f 148/209/46 147/215/46 155/217/46
f 145/224/47 146/225/47 154/214/47
f 146/225/48 152/246/48 160/212/48
f 150/222/49 158/221/49 159/219/49
f 166/227/50 165/231/50 173/228/50
f 158/221/51 166/227/51 167/230/51
f 156/223/52 164/234/52 165/231/52
f 153/216/53 161/235/53 163/232/53
f 159/219/54 167/230/54 168/233/54
f 157/210/55 165/231/55 166/227/55
f 155/217/56 163/232/56 164/234/56
f 154/214/57 162/213/57 161/235/57
f 171/238/58 169/247/58 170/248/58
f 170/248/58 176/249/58 175/236/58
f 175/236/58 174/250/58 173/237/58
f 173/237/58 172/251/58 171/238/58
f 171/238/58 170/248/58 175/236/58
f 164/234/59 163/232/59 171/239/59
f 162/213/60 170/243/60 169/241/60
f 168/242/61 176/252/61 170/243/61
f 166/227/62 174/229/62 175/244/62
f 164/234/63 172/240/63 173/228/63
f 161/235/64 169/241/64 171/239/64
f 168/233/65 167/230/65 175/244/65
f 130/253/66 131/254/66 129/255/66
f 132/256/67 133/257/67 131/254/67
f 134/258/68 135/259/68 133/257/68
f 136/260/69 137/261/69 135/259/69
f 138/262/70 139/263/70 137/261/70
f 139/263/71 142/264/71 141/265/71
f 132/256/53 147/215/53 134/258/53
f 142/264/72 143/266/72 141/265/72
f 144/267/73 129/255/73 143/268/73
f 138/262/55 150/222/55 140/269/55
f 144/267/42 146/225/42 130/253/42
f 130/253/57 145/224/57 132/256/57
f 134/258/56 148/209/56 136/260/56
f 140/269/51 151/226/51 142/264/51
f 136/260/52 149/211/52 138/262/52
f 142/264/54 152/218/54 144/270/54
f 130/253/66 132/256/66 131/254/66
f 132/256/67 134/258/67 133/257/67
f 134/258/68 136/260/68 135/259/68
f 136/260/69 138/262/69 137/261/69
f 138/262/70 140/269/70 139/263/70
f 139/263/71 140/269/71 142/264/71
f 132/256/53 145/224/53 147/215/53
f 142/264/72 144/270/72 143/266/72
f 144/267/73 130/253/73 129/255/73
f 138/262/55 149/211/55 150/222/55
f 144/267/42 152/246/42 146/225/42
f 130/253/57 146/225/57 145/224/57
f 134/258/56 147/215/56 148/209/56
f 140/269/51 150/222/51 151/226/51
f 136/260/52 148/209/52 149/211/52
f 142/264/54 151/226/54 152/218/54
f 183/271/74 177/272/74 179/273/74
f 180/274/58 182/275/58 184/276/58
f 192/277/75 185/278/75 179/279/75
f 194/280/58 180/274/58 184/276/58
f 192/281/76 186/282/76 185/283/76
f 193/284/77 194/285/77 183/286/77
f 196/287/76 187/288/76 183/289/76
f 185/278/74 183/286/74 179/279/74
f 198/290/58 184/276/58 182/275/58
f 196/291/77 188/292/77 187/293/77
f 197/294/78 198/295/78 181/296/78
f 200/297/77 189/298/77 181/299/77
f 187/288/74 181/296/74 183/289/74
f 202/300/58 182/275/58 178/301/58
f 200/302/78 190/303/78 189/304/78
f 201/305/75 202/306/75 177/307/75
f 189/298/74 177/307/74 181/299/74
f 192/281/79 194/280/79 193/308/79
f 196/291/80 198/290/80 197/309/80
f 200/302/81 202/300/81 201/310/81
f 183/271/74 181/311/74 177/272/74
f 180/274/58 178/301/58 182/275/58
f 179/279/75 180/312/75 191/313/75
f 191/313/75 192/277/75 179/279/75
f 194/280/58 191/314/58 180/274/58
f 192/281/76 193/308/76 186/282/76
f 184/315/77 183/286/77 194/285/77
f 186/316/77 193/284/77 183/286/77
f 183/289/76 184/317/76 195/318/76
f 195/318/76 196/287/76 183/289/76
f 185/278/74 186/316/74 183/286/74
f 198/290/58 195/319/58 184/276/58
f 196/291/77 197/309/77 188/292/77
f 182/320/78 181/296/78 198/295/78
f 188/321/78 197/294/78 181/296/78
f 181/299/77 182/322/77 199/323/77
f 199/323/77 200/297/77 181/299/77
f 187/288/74 188/321/74 181/296/74
f 202/300/58 199/324/58 182/275/58
f 200/302/78 201/310/78 190/303/78
f 178/325/75 177/307/75 202/306/75
f 190/326/75 201/305/75 177/307/75
f 189/298/74 190/326/74 177/307/74
f 192/281/79 191/314/79 194/280/79
f 196/291/80 195/319/80 198/290/80
f 200/302/81 199/324/81 202/300/81
