# Blender v2.74 (sub 0) OBJ File: 'Crystallizer.blend'
# www.blender.org
o Liquid
v 1.360000 1.080000 0.699800
v 1.360000 1.780000 0.699800
v 1.254558 1.080000 0.954359
v 1.254558 1.780000 0.954359
v 1.000000 1.080000 1.059800
v 1.000000 1.780000 1.059800
v 0.745442 1.080000 0.954359
v 0.745442 1.780000 0.954359
v 0.640000 1.080000 0.699800
v 0.640000 1.780000 0.699800
v 0.745442 1.080000 0.445242
v 0.745442 1.780000 0.445242
v 1.000000 1.080000 0.339800
v 1.000000 1.780000 0.339800
v 1.254558 1.080000 0.445242
v 1.254558 1.780000 0.445242
v 1.360000 1.080000 1.499000
v 1.360000 1.780000 1.499000
v 1.254558 1.080000 1.753559
v 1.254558 1.780000 1.753559
v 1.000000 1.080000 1.859000
v 1.000000 1.780000 1.859000
v 0.745442 1.080000 1.753559
v 0.745442 1.780000 1.753559
v 0.640000 1.080000 1.499000
v 0.640000 1.780000 1.499000
v 0.745442 1.080000 1.244442
v 0.745442 1.780000 1.244442
v 1.000000 1.080000 1.139000
v 1.000000 1.780000 1.139000
v 1.254558 1.080000 1.244442
v 1.254558 1.780000 1.244442
v 1.360000 1.080000 2.298200
v 1.360000 1.780000 2.298200
v 1.254558 1.080000 2.552759
v 1.254558 1.780000 2.552759
v 1.000000 1.080000 2.658200
v 1.000000 1.780000 2.658200
v 0.745442 1.080000 2.552759
v 0.745442 1.780000 2.552759
v 0.640000 1.080000 2.298200
v 0.640000 1.780000 2.298200
v 0.745442 1.080000 2.043642
v 0.745442 1.780000 2.043642
v 1.000000 1.080000 1.938200
v 1.000000 1.780000 1.938200
v 1.254558 1.080000 2.043642
v 1.254558 1.780000 2.043642
vt 0.667969 0.250000
vt 0.667969 0.375000
vt 0.558594 0.375000
vt 0.667969 0.500000
vt 0.558594 0.500000
vt 0.667969 0.625000
vt 0.558594 0.625000
vt 0.667969 0.750000
vt 0.558594 0.750000
vt 0.667969 0.875000
vt 0.558594 0.875000
vt 0.667969 1.000000
vt 0.558594 1.000000
vt 0.773438 0.703125
vt 0.816406 0.914062
vt 0.710938 1.000000
vt 0.667969 0.125000
vt 0.558594 0.250000
vt 0.667969 0.000000
vt 0.558594 0.125000
vt 0.773438 1.000000
vt 0.667969 0.789062
vt 0.710938 0.703125
vt 0.667969 0.914062
vt 0.816406 0.789062
vt 0.558594 0.000000
vn 0.923900 0.000000 0.382700
vn 0.382700 0.000000 0.923900
vn -0.382700 0.000000 0.923900
vn -0.923900 0.000000 0.382700
vn -0.923900 0.000000 -0.382700
vn -0.382700 0.000000 -0.923900
vn 0.000000 1.000000 0.000000
vn 0.923900 0.000000 -0.382700
vn 0.382700 0.000000 -0.923900
s off
f 2/1/1 4/2/1 3/3/1
f 4/2/2 6/4/2 5/5/2
f 6/4/3 8/6/3 7/7/3
f 8/6/4 10/8/4 9/9/4
f 10/8/5 12/10/5 11/11/5
f 12/10/6 14/12/6 13/13/6
f 4/14/7 16/15/7 12/16/7
f 16/17/8 2/1/8 1/18/8
f 14/19/9 16/17/9 15/20/9
f 18/1/1 20/2/1 19/3/1
f 20/2/2 22/4/2 21/5/2
f 22/4/3 24/6/3 23/7/3
f 24/6/4 26/8/4 25/9/4
f 26/8/5 28/10/5 27/11/5
f 28/10/6 30/12/6 29/13/6
f 20/14/7 32/15/7 30/21/7
f 32/17/8 18/1/8 17/18/8
f 30/19/9 32/17/9 31/20/9
f 34/1/1 36/2/1 35/3/1
f 36/2/2 38/4/2 37/5/2
f 38/4/3 40/6/3 39/7/3
f 40/6/4 42/8/4 41/9/4
f 42/8/5 44/10/5 43/11/5
f 44/10/6 46/12/6 45/13/6
f 36/14/7 48/15/7 46/21/7
f 48/17/8 34/1/8 33/18/8
f 46/19/9 48/17/9 47/20/9
f 1/18/1 2/1/1 3/3/1
f 3/3/2 4/2/2 5/5/2
f 5/5/3 6/4/3 7/7/3
f 7/7/4 8/6/4 9/9/4
f 9/9/5 10/8/5 11/11/5
f 11/11/6 12/10/6 13/13/6
f 8/22/7 6/23/7 4/14/7
f 12/16/7 10/24/7 8/22/7
f 16/15/7 14/21/7 12/16/7
f 4/14/7 2/25/7 16/15/7
f 12/16/7 8/22/7 4/14/7
f 15/20/8 16/17/8 1/18/8
f 13/26/9 14/19/9 15/20/9
f 17/18/1 18/1/1 19/3/1
f 19/3/2 20/2/2 21/5/2
f 21/5/3 22/4/3 23/7/3
f 23/7/4 24/6/4 25/9/4
f 25/9/5 26/8/5 27/11/5
f 27/11/6 28/10/6 29/13/6
f 24/22/7 22/23/7 20/14/7
f 20/14/7 26/24/7 24/22/7
f 20/14/7 30/21/7 28/16/7
f 20/14/7 18/25/7 32/15/7
f 28/16/7 26/24/7 20/14/7
f 31/20/8 32/17/8 17/18/8
f 29/26/9 30/19/9 31/20/9
f 33/18/1 34/1/1 35/3/1
f 35/3/2 36/2/2 37/5/2
f 37/5/3 38/4/3 39/7/3
f 39/7/4 40/6/4 41/9/4
f 41/9/5 42/8/5 43/11/5
f 43/11/6 44/10/6 45/13/6
f 40/22/7 38/23/7 36/14/7
f 36/14/7 42/24/7 40/22/7
f 36/14/7 46/21/7 44/16/7
f 36/14/7 34/25/7 48/15/7
f 44/16/7 42/24/7 36/14/7
f 47/20/8 48/17/8 33/18/8
f 45/26/9 46/19/9 47/20/9
o Hull
v 1.400000 1.001565 0.700000
v 1.400000 1.870000 0.700000
v 1.282843 1.001565 0.982843
v 1.282843 1.870000 0.982843
v 1.000000 1.001565 1.100000
v 1.000000 1.870000 1.100000
v 0.717157 1.001565 0.982843
v 0.717157 1.870000 0.982843
v 0.600000 1.001565 0.700000
v 0.600000 1.870000 0.700000
v 0.717157 1.001565 0.417157
v 0.717157 1.870000 0.417157
v 1.000000 1.001565 0.300000
v 1.000000 1.870000 0.300000
v 1.282843 1.001565 0.417157
v 1.282843 1.870000 0.417157
v 1.400000 1.001565 1.500000
v 1.400000 1.870000 1.500000
v 1.282843 1.001565 1.782843
v 1.282843 1.870000 1.782843
v 1.000000 1.001565 1.900000
v 1.000000 1.870000 1.900000
v 0.717157 1.001565 1.782843
v 0.717157 1.870000 1.782843
v 0.600000 1.001565 1.500000
v 0.600000 1.870000 1.500000
v 0.717157 1.001565 1.217157
v 0.717157 1.870000 1.217157
v 1.000000 1.001565 1.100000
v 1.000000 1.870000 1.100000
v 1.282843 1.001565 1.217157
v 1.282843 1.870000 1.217157
v 1.400000 1.001565 2.300000
v 1.400000 1.870000 2.300000
v 1.282843 1.001565 2.582843
v 1.282843 1.870000 2.582843
v 1.000000 1.001565 2.700000
v 1.000000 1.870000 2.700000
v 0.717157 1.001565 2.582843
v 0.717157 1.870000 2.582843
v 0.600000 1.001565 2.300000
v 0.600000 1.870000 2.300000
v 0.717157 1.001565 2.017157
v 0.717157 1.870000 2.017157
v 1.000000 1.001565 1.900000
v 1.000000 1.870000 1.900000
v 1.282843 1.001565 2.017157
v 1.282843 1.870000 2.017157
v 0.001000 1.999000 0.001000
v 0.001000 0.001000 0.001000
v 1.999000 1.999000 0.001000
v 1.999000 0.001000 0.001000
v 0.001000 1.999000 2.999000
v 0.001000 0.001000 2.999000
v 1.999000 1.999000 2.999000
v 1.999000 0.001000 2.999000
v 0.000000 1.885000 0.000000
v 2.000000 1.885000 0.000000
v 0.000000 1.885000 3.000000
v 2.000000 1.885000 3.000000
v 0.000000 1.001000 0.000000
v 2.000000 1.001000 0.000000
v 0.000000 1.001000 3.000000
v 2.000000 1.001000 3.000000
v 1.400000 1.094143 0.700000
v 1.282843 1.094143 0.982843
v 1.000000 1.094143 1.100000
v 0.717157 1.094143 0.982843
v 0.600000 1.094143 0.700000
v 0.717157 1.094143 0.417157
v 1.000000 1.094143 0.300000
v 1.282843 1.094143 0.417157
v 1.400000 1.094143 1.500000
v 1.282843 1.094143 1.782843
v 1.000000 1.094143 1.900000
v 0.717157 1.094143 1.782843
v 0.600000 1.094143 1.500000
v 0.717157 1.094143 1.217157
v 1.000000 1.094143 1.100000
v 1.282843 1.094143 1.217157
v 1.400000 1.094143 2.300000
v 1.282843 1.094143 2.582843
v 1.000000 1.094143 2.700000
v 0.717157 1.094143 2.582843
v 0.600000 1.094143 2.300000
v 0.717157 1.094143 2.017157
v 1.000000 1.094143 1.900000
v 1.282843 1.094143 2.017157
v 0.600000 1.778587 0.700000
v 0.717157 1.778587 0.982843
v 1.000000 1.778587 1.100000
v 1.282843 1.778587 0.982843
v 1.400000 1.778587 0.700000
v 1.282843 1.778587 0.417157
v 1.000000 1.778587 0.300000
v 0.717157 1.778587 0.417157
v 0.600000 1.778587 1.500000
v 0.717157 1.778587 1.782843
v 1.000000 1.778587 1.900000
v 1.282843 1.778587 1.782843
v 1.400000 1.778587 1.500000
v 1.282843 1.778587 1.217157
v 1.000000 1.778587 1.100000
v 0.717157 1.778587 1.217157
v 0.600000 1.778587 2.300000
v 0.717157 1.778587 2.582843
v 1.000000 1.778587 2.700000
v 1.282843 1.778587 2.582843
v 1.400000 1.778587 2.300000
v 1.282843 1.778587 2.017157
v 1.000000 1.778587 1.900000
v 0.717157 1.778587 2.017157
v 0.001000 1.999000 0.001000
v 0.001000 0.001000 0.001000
v 0.001000 0.001000 2.999000
v 0.001000 1.999000 2.999000
v 0.001000 1.999000 0.001000
v 0.001000 0.001000 0.001000
v 0.001000 0.001000 2.999000
v 0.001000 1.999000 2.999000
v 0.179880 1.999000 2.998851
v 0.179880 0.001000 2.998851
v 0.179880 0.001000 0.001149
v 0.179880 1.999000 0.001149
v 1.819111 1.999000 0.001149
v 1.819111 0.001000 0.001149
v 1.819110 0.001000 2.998851
v 1.819110 1.999000 2.998851
v 1.998900 1.999000 0.183870
v 1.998900 0.001000 0.183870
v 0.001100 1.999000 0.183870
v 0.001100 0.001000 0.183870
v 0.001100 1.999000 2.815120
v 0.001100 0.001000 2.815120
v 1.998900 1.999000 2.815121
v 1.998900 0.001000 2.815121
vt 0.484375 0.500000
vt 0.484375 0.625000
vt 0.375000 0.625000
vt 0.484375 0.750000
vt 0.375000 0.750000
vt 0.375000 0.968750
vt 0.312500 0.968750
vt 0.312500 0.750000
vt 0.250000 0.968750
vt 0.250000 0.750000
vt 0.187500 0.968750
vt 0.187500 0.750000
vt 0.125000 0.968750
vt 0.125000 0.750000
vt 0.484375 0.375000
vt 0.375000 0.500000
vt 0.484375 0.250000
vt 0.375000 0.375000
vt 0.117188 1.000000
vt 0.117188 0.750000
vt 0.000000 0.750000
vt 0.375000 -0.000000
vt 0.250000 -0.000000
vt 0.492188 0.250000
vt 0.492188 -0.000000
vt 0.250000 0.375000
vt 0.125000 0.375000
vt 0.402344 0.968750
vt 0.375000 0.906250
vt 0.457031 0.750000
vt 0.484375 0.906250
vt 0.375000 0.812500
vt 0.125000 -0.000000
vt 0.000000 1.000000
vt 0.000000 0.000000
vt 0.000000 0.375000
vt 0.375000 0.250000
vt 0.457031 0.968750
vt 0.484375 0.812500
vt 0.402344 0.750000
vn 0.923900 0.000000 0.382700
vn 0.382700 0.000000 0.923900
vn -0.382700 0.000000 0.923900
vn -0.923900 0.000000 0.382700
vn -0.923900 0.000000 -0.382700
vn -0.382700 0.000000 -0.923900
vn 0.923900 0.000000 -0.382700
vn 0.382700 0.000000 -0.923900
vn 0.000000 0.000000 -1.000000
vn 1.000000 0.000000 0.000000
vn 0.000000 0.000000 1.000000
vn 0.000000 1.000000 0.000000
vn 0.000000 -1.000000 0.000000
vn -1.000000 0.000000 0.000000
s off
f 50/27/10 52/28/10 51/29/10
f 52/28/11 54/30/11 53/31/11
f 54/32/12 56/33/12 55/34/12
f 56/33/13 58/35/13 57/36/13
f 58/35/14 60/37/14 59/38/14
f 60/37/15 62/39/15 61/40/15
f 64/41/16 50/27/16 49/42/16
f 62/43/17 64/41/17 63/44/17
f 66/27/10 68/28/10 67/29/10
f 68/28/11 70/30/11 69/31/11
f 70/32/12 72/33/12 71/34/12
f 72/33/13 74/35/13 73/36/13
f 74/35/14 76/37/14 75/38/14
f 76/37/15 78/39/15 77/40/15
f 80/41/16 66/27/16 65/42/16
f 78/43/17 80/41/17 79/44/17
f 82/27/10 84/28/10 83/29/10
f 84/28/11 86/30/11 85/31/11
f 86/32/12 88/33/12 87/34/12
f 88/33/13 90/35/13 89/36/13
f 90/35/14 92/37/14 91/38/14
f 92/37/15 94/39/15 93/40/15
f 96/41/16 82/27/16 81/42/16
f 94/43/17 96/41/17 95/44/17
f 97/45/18 99/46/18 100/47/18
f 99/44/19 103/48/19 104/49/19
f 103/50/20 101/51/20 102/48/20
f 97/31/20 161/31/20 164/44/20
f 101/44/21 103/52/21 99/36/21
f 98/53/22 100/52/22 104/49/22
f 105/47/22 106/40/22 108/53/22
f 111/52/21 112/53/21 110/40/21
f 153/54/22 160/55/22 157/56/22
f 145/57/22 151/54/22 149/58/22
f 137/54/22 143/58/22 141/56/22
f 113/54/21 119/58/21 117/56/21
f 121/57/21 127/54/21 125/58/21
f 129/54/21 136/55/21 133/56/21
f 161/31/20 165/31/20 168/44/20
f 102/59/20 163/59/20 162/53/20
f 101/51/20 164/51/20 163/48/20
f 98/60/20 162/60/20 161/45/20
f 168/61/23 165/62/23 166/53/23
f 163/59/20 167/59/20 166/53/20
f 164/51/20 168/51/20 167/48/20
f 162/60/20 166/60/20 165/45/20
f 172/61/19 169/62/19 170/53/19
f 176/61/23 173/62/23 174/53/23
f 177/45/20 179/46/20 180/47/20
f 181/45/18 183/46/18 184/47/18
f 49/42/10 50/27/10 51/29/10
f 51/29/11 52/28/11 53/31/11
f 53/31/12 54/32/12 55/34/12
f 55/34/13 56/33/13 57/36/13
f 57/36/14 58/35/14 59/38/14
f 59/38/15 60/37/15 61/40/15
f 63/44/16 64/41/16 49/42/16
f 61/63/17 62/43/17 63/44/17
f 65/42/10 66/27/10 67/29/10
f 67/29/11 68/28/11 69/31/11
f 69/31/12 70/32/12 71/34/12
f 71/34/13 72/33/13 73/36/13
f 73/36/14 74/35/14 75/38/14
f 75/38/15 76/37/15 77/40/15
f 79/44/16 80/41/16 65/42/16
f 77/63/17 78/43/17 79/44/17
f 81/42/10 82/27/10 83/29/10
f 83/29/11 84/28/11 85/31/11
f 85/31/12 86/32/12 87/34/12
f 87/34/13 88/33/13 89/36/13
f 89/36/14 90/35/14 91/38/14
f 91/38/15 92/37/15 93/40/15
f 95/44/16 96/41/16 81/42/16
f 93/63/17 94/43/17 95/44/17
f 98/60/18 97/45/18 100/47/18
f 100/52/19 99/44/19 104/49/19
f 104/63/20 103/50/20 102/48/20
f 101/44/20 97/31/20 164/44/20
f 97/31/21 101/44/21 99/36/21
f 102/59/22 98/53/22 104/49/22
f 107/62/22 105/47/22 108/53/22
f 109/36/21 111/52/21 110/40/21
f 155/57/22 154/64/22 153/54/22
f 157/56/22 156/65/22 155/57/22
f 159/58/22 158/66/22 157/56/22
f 157/56/22 160/55/22 159/58/22
f 157/56/22 155/57/22 153/54/22
f 147/56/22 146/65/22 145/57/22
f 149/58/22 148/66/22 147/56/22
f 151/54/22 150/55/22 149/58/22
f 145/57/22 152/64/22 151/54/22
f 149/58/22 147/56/22 145/57/22
f 139/57/22 138/64/22 137/54/22
f 141/56/22 140/65/22 139/57/22
f 143/58/22 142/66/22 141/56/22
f 137/54/22 144/55/22 143/58/22
f 141/56/22 139/57/22 137/54/22
f 115/57/21 114/64/21 113/54/21
f 117/56/21 116/65/21 115/57/21
f 119/58/21 118/66/21 117/56/21
f 113/54/21 120/55/21 119/58/21
f 117/56/21 115/57/21 113/54/21
f 123/56/21 122/65/21 121/57/21
f 125/58/21 124/66/21 123/56/21
f 127/54/21 126/55/21 125/58/21
f 121/57/21 128/64/21 127/54/21
f 125/58/21 123/56/21 121/57/21
f 131/57/21 130/64/21 129/54/21
f 133/56/21 132/65/21 131/57/21
f 135/58/21 134/66/21 133/56/21
f 133/56/21 136/55/21 135/58/21
f 133/56/21 131/57/21 129/54/21
f 164/44/20 161/31/20 168/44/20
f 98/53/20 102/59/20 162/53/20
f 102/48/20 101/51/20 163/48/20
f 97/45/20 98/60/20 161/45/20
f 167/59/23 168/61/23 166/53/23
f 162/53/20 163/59/20 166/53/20
f 163/48/20 164/51/20 167/48/20
f 161/45/20 162/60/20 165/45/20
f 171/59/19 172/61/19 170/53/19
f 175/59/23 176/61/23 174/53/23
f 178/60/20 177/45/20 180/47/20
f 182/60/18 181/45/18 184/47/18
