# Blender v2.75 (sub 0) OBJ File: 'cuttingMachine.blend'
# www.blender.org
o Hull
v 0.200487 1.146693 1.470000
v 0.167721 1.169636 1.470000
v 0.192087 1.134697 1.505355
v 0.159321 1.157640 1.505355
v 0.171808 1.105736 1.520000
v 0.139042 1.128679 1.520000
v 0.151529 1.076774 1.505355
v 0.118763 1.099717 1.505355
v 0.143130 1.064778 1.470000
v 0.110364 1.087721 1.470000
v 0.151529 1.076774 1.434645
v 0.118763 1.099717 1.434645
v 0.171808 1.105736 1.420000
v 0.139042 1.128679 1.420000
v 0.192087 1.134697 1.434645
v 0.159321 1.157640 1.434645
v 0.200487 1.146693 1.300000
v 0.167721 1.169636 1.300000
v 0.192087 1.134697 1.335355
v 0.159321 1.157640 1.335355
v 0.171808 1.105736 1.350000
v 0.139042 1.128679 1.350000
v 0.151529 1.076774 1.335355
v 0.118763 1.099717 1.335355
v 0.143130 1.064778 1.300000
v 0.110364 1.087721 1.300000
v 0.151529 1.076774 1.264645
v 0.118763 1.099717 1.264645
v 0.171808 1.105736 1.250000
v 0.139042 1.128679 1.250000
v 0.192087 1.134697 1.264645
v 0.159321 1.157640 1.264645
v 0.100000 1.000000 1.200000
v 0.230000 1.200000 1.200000
v 0.300000 1.000000 1.200000
v 0.300000 1.200000 1.200000
v 0.100000 1.000000 1.800000
v 0.230000 1.200000 1.800000
v 0.300000 1.000000 1.800000
v 0.300000 1.200000 1.800000
v 1.990000 -0.000000 2.990000
v 0.001000 0.000000 2.990000
v 0.001000 -0.000000 0.010000
v 1.990000 -0.000000 0.010000
v 1.990000 1.001000 2.990001
v 0.001000 1.001000 2.990000
v 0.001000 1.001000 0.010000
v 1.990000 1.001000 0.010000
v 1.100000 0.940000 0.980000
v 1.100000 1.020000 0.980000
v 1.500000 0.940000 0.980000
v 1.500000 1.020000 0.980000
v 1.100000 0.940000 2.020000
v 1.100000 1.020000 2.020000
v 1.500000 0.940000 2.020000
v 1.500000 1.020000 2.020000
v 0.500000 0.940000 0.980000
v 0.500000 1.020000 0.980000
v 0.900000 0.940000 0.980000
v 0.900000 1.020000 0.980000
v 0.500000 0.940000 2.020000
v 0.500000 1.020000 2.020000
v 0.900000 0.940000 2.020000
v 0.900000 1.020000 2.020000
v 0.500000 1.001284 0.328284
v 1.500000 1.001284 0.328284
v 0.500000 1.013000 0.300000
v 1.500000 1.013000 0.300000
v 0.500000 1.001284 0.271716
v 1.500000 1.001284 0.271716
v 0.500000 1.001284 0.428284
v 1.500000 1.001284 0.428284
v 0.500000 1.013000 0.400000
v 1.500000 1.013000 0.400000
v 0.500000 1.001284 0.371716
v 1.500000 1.001284 0.371716
v 0.500000 1.001284 0.528284
v 1.500000 1.001284 0.528284
v 0.500000 1.013000 0.500000
v 1.500000 1.013000 0.500000
v 0.500000 1.001284 0.471716
v 1.500000 1.001284 0.471716
v 0.500000 1.001284 0.628284
v 1.500000 1.001284 0.628284
v 0.500000 1.013000 0.600000
v 1.500000 1.013000 0.600000
v 0.500000 1.001284 0.571716
v 1.500000 1.001284 0.571716
v 0.500000 1.001284 0.728284
v 1.500000 1.001284 0.728284
v 0.500000 1.013000 0.700000
v 1.500000 1.013000 0.700000
v 0.500000 1.001284 0.671716
v 1.500000 1.001284 0.671716
v 0.500000 1.001284 0.828284
v 1.500000 1.001284 0.828284
v 0.500000 1.013000 0.800000
v 1.500000 1.013000 0.800000
v 0.500000 1.001284 0.771716
v 1.500000 1.001284 0.771716
v 0.500000 1.001284 0.928284
v 1.500000 1.001284 0.928284
v 0.500000 1.013000 0.900000
v 1.500000 1.013000 0.900000
v 0.500000 1.001284 0.871716
v 1.500000 1.001284 0.871716
v 0.500000 1.001284 2.128284
v 1.500000 1.001284 2.128284
v 0.500000 1.013000 2.100000
v 1.500000 1.013000 2.100000
v 0.500000 1.001284 2.071716
v 1.500000 1.001284 2.071716
v 0.500000 1.001284 2.228285
v 1.500000 1.001284 2.228285
v 0.500000 1.013000 2.200000
v 1.500000 1.013000 2.200000
v 0.500000 1.001284 2.171716
v 1.500000 1.001284 2.171716
v 0.500000 1.001284 2.328285
v 1.500000 1.001284 2.328285
v 0.500000 1.013000 2.300000
v 1.500000 1.013000 2.300000
v 0.500000 1.001284 2.271716
v 1.500000 1.001284 2.271716
v 0.500000 1.001284 2.428285
v 1.500000 1.001284 2.428285
v 0.500000 1.013000 2.400000
v 1.500000 1.013000 2.400000
v 0.500000 1.001284 2.371716
v 1.500000 1.001284 2.371716
v 0.500000 1.001284 2.528285
v 1.500000 1.001284 2.528285
v 0.500000 1.013000 2.500000
v 1.500000 1.013000 2.500000
v 0.500000 1.001284 2.471716
v 1.500000 1.001284 2.471716
v 0.500000 1.001284 2.628285
v 1.500000 1.001284 2.628285
v 0.500000 1.013000 2.600000
v 1.500000 1.013000 2.600000
v 0.500000 1.001284 2.571716
v 1.500000 1.001284 2.571716
v 0.500000 1.001284 2.728284
v 1.500000 1.001284 2.728284
v 0.500000 1.013000 2.700000
v 1.500000 1.013000 2.700000
v 0.500000 1.001284 2.671716
v 1.500000 1.001284 2.671716
vt 0.359375 0.781250
vt 0.351562 0.781250
vt 0.351562 0.765625
vt 0.335938 0.781250
vt 0.328125 0.781250
vt 0.328125 0.765625
vt 0.367188 0.781250
vt 0.359375 0.765625
vt 0.320312 0.781250
vt 0.320312 0.765625
vt 0.375000 0.781250
vt 0.367188 0.765625
vt 0.312500 0.765625
vt 0.312500 0.781250
vt 0.359375 0.750000
vt 0.359375 0.734375
vt 0.343750 0.765625
vt 0.343750 0.781250
vt 0.375000 0.796875
vt 0.367188 0.796875
vt 0.335938 0.796875
vt 0.328125 0.796875
vt 0.320312 0.796875
vt 0.351562 0.796875
vt 0.343750 0.796875
vt 0.312500 0.796875
vt 0.351562 0.750000
vt 0.343750 0.750000
vt 0.359375 0.796875
vt 0.382812 0.687500
vt 0.375000 0.687500
vt 0.375000 0.640625
vt 0.304688 0.625000
vt 0.304688 0.593750
vt 0.367188 0.593750
vt 0.382812 0.609375
vt 0.398438 0.640625
vt 0.367188 0.656250
vt 0.367188 0.718750
vt 0.304688 0.718750
vt 0.367188 0.625000
vt 0.492188 0.593750
vt 0.195312 0.593750
vt 0.195312 0.203125
vt 0.195312 0.796875
vt -0.000000 0.796875
vt -0.000000 0.203125
vt 0.296875 1.000000
vt 0.492188 1.000000
vt 0.492188 0.796875
vt 0.500000 0.203125
vt 0.195312 0.000000
vt 0.296875 0.796875
vt -0.000000 1.000000
vt 0.507812 0.781250
vt 0.515625 0.781250
vt 0.515625 0.703125
vt 0.507812 0.406250
vt 0.515625 0.406250
vt 0.515625 0.203125
vt 0.507812 0.500000
vt 0.515625 0.500000
vt 0.507812 0.703125
vt 0.304688 0.687500
vt 0.195312 0.687500
vt 0.195312 0.609375
vt 0.500000 0.781250
vt 0.500000 0.703125
vt 0.500000 0.406250
vt 0.500000 0.500000
vt 0.304688 0.765625
vt 0.195312 0.765625
vt 0.398438 0.703125
vt 0.500000 0.718750
vt 0.398438 0.718750
vt 0.500000 0.750000
vt 0.500000 0.765625
vt 0.398438 0.765625
vt 0.398438 0.781250
vt 0.500000 0.687500
vt 0.500000 0.734375
vt 0.398438 0.734375
vt 0.500000 0.625000
vt 0.500000 0.640625
vt 0.500000 0.656250
vt 0.398438 0.656250
vt 0.500000 0.671875
vt 0.398438 0.671875
vt 0.500000 0.796875
vt 0.398438 0.796875
vt 0.398438 0.687500
vt 0.398438 0.750000
vt 0.398438 0.593750
vt 0.500000 0.593750
vt 0.500000 0.609375
vt 0.398438 0.609375
vt 0.398438 0.625000
vt 0.335938 0.765625
vt 0.375000 0.765625
vt 0.367188 0.734375
vt 0.367188 0.750000
vt 0.351562 0.734375
vt 0.343750 0.734375
vt 0.375000 0.609375
vt 0.304688 0.656250
vt 0.492188 0.203125
vt 0.500000 0.000000
vt -0.000000 0.000000
vt 0.507812 0.203125
vt 0.304688 0.609375
vn 0.529900 0.756800 0.382700
vn 0.219500 0.313500 0.923900
vn -0.219500 -0.313500 0.923900
vn -0.529900 -0.756800 0.382700
vn -0.529900 -0.756800 -0.382700
vn -0.219500 -0.313500 -0.923900
vn -0.819200 0.573600 0.000000
vn 0.529900 0.756800 -0.382700
vn 0.219500 0.313500 -0.923900
vn 0.000000 0.000000 -1.000000
vn 1.000000 0.000000 0.000000
vn 0.000000 0.000000 1.000000
vn -0.838400 0.545000 -0.000000
vn 0.000000 1.000000 -0.000000
vn -0.000000 -1.000000 0.000000
vn -1.000000 0.000000 -0.000000
vn 0.000000 0.923900 0.382700
vn 0.000000 0.923900 -0.382700
s off
f 2/1/1 4/2/1 3/3/1
f 4/4/2 6/5/2 5/6/2
f 6/7/3 8/1/3 7/8/3
f 8/5/4 10/9/4 9/10/4
f 10/11/5 12/7/5 11/12/5
f 11/13/6 12/14/6 14/9/6
f 4/15/7 2/15/7 12/16/7
f 15/17/8 16/18/8 2/4/8
f 13/3/9 14/2/9 16/18/9
f 18/19/1 20/20/1 19/7/1
f 19/4/2 20/21/2 22/22/2
f 21/5/3 22/22/3 24/23/3
f 23/2/4 24/24/4 26/25/4
f 25/9/5 26/23/5 28/26/5
f 28/25/6 30/21/6 29/4/6
f 20/27/7 32/28/7 30/28/7
f 31/2/8 32/1/8 18/29/8
f 30/7/9 32/1/9 31/29/9
f 34/30/10 36/31/10 35/32/10
f 40/33/11 39/34/11 35/35/11
f 38/36/12 37/37/12 39/32/12
f 34/38/13 33/39/13 37/40/13
f 40/33/14 36/41/14 34/38/14
f 42/42/15 43/43/15 44/44/15
f 48/45/14 47/46/14 46/47/14
f 45/48/12 46/49/12 42/50/12
f 46/51/16 47/44/16 43/52/16
f 43/52/10 47/44/10 48/47/10
f 41/53/11 44/46/11 48/54/11
f 52/55/10 51/56/10 49/57/10
f 56/58/11 55/59/11 51/60/11
f 54/61/12 53/62/12 55/59/12
f 54/61/16 50/63/16 49/57/16
f 56/64/14 52/65/14 50/66/14
f 60/55/10 59/67/10 57/68/10
f 64/58/11 63/69/11 59/51/11
f 64/58/12 62/61/12 61/70/12
f 58/63/16 57/68/16 61/70/16
f 64/71/14 60/72/14 58/65/14
f 66/68/17 68/68/17 67/73/17
f 68/68/18 70/74/18 69/75/18
f 72/76/17 74/77/17 73/78/17
f 74/67/18 76/67/18 75/79/18
f 78/80/17 80/68/17 79/73/17
f 80/68/18 82/68/18 81/73/18
f 84/74/17 86/74/17 85/75/17
f 86/74/18 88/81/18 87/82/18
f 90/83/17 92/84/17 91/37/17
f 92/84/18 94/84/18 93/37/18
f 96/84/17 98/84/17 97/37/17
f 98/84/18 100/85/18 99/86/18
f 102/85/17 104/85/17 103/86/17
f 104/85/18 106/87/18 105/88/18
f 108/77/17 110/67/17 109/79/17
f 110/67/18 112/89/18 111/90/18
f 113/88/17 114/87/17 116/80/17
f 116/80/18 118/80/18 117/91/18
f 119/88/17 120/87/17 122/87/17
f 122/87/18 124/87/18 123/88/18
f 125/92/17 126/76/17 128/76/17
f 128/76/18 130/76/18 129/92/18
f 131/82/17 132/81/17 134/81/17
f 134/81/18 136/76/18 135/92/18
f 137/93/17 138/94/17 140/95/17
f 140/95/18 142/95/18 141/96/18
f 143/96/17 144/95/17 146/83/17
f 146/83/18 148/83/18 147/97/18
f 1/8/1 2/1/1 3/3/1
f 3/98/2 4/4/2 5/6/2
f 5/12/3 6/7/3 7/8/3
f 7/6/4 8/5/4 9/10/4
f 9/99/5 10/11/5 11/12/5
f 13/10/6 11/13/6 14/9/6
f 8/100/7 6/101/7 4/15/7
f 12/16/7 10/16/7 8/100/7
f 16/15/7 14/16/7 12/16/7
f 12/16/7 2/15/7 16/15/7
f 12/16/7 8/100/7 4/15/7
f 1/98/8 15/17/8 2/4/8
f 15/17/9 13/3/9 16/18/9
f 17/11/1 18/19/1 19/7/1
f 21/5/2 19/4/2 22/22/2
f 23/9/3 21/5/3 24/23/3
f 25/18/4 23/2/4 26/25/4
f 27/14/5 25/9/5 28/26/5
f 27/18/6 28/25/6 29/4/6
f 24/102/7 22/102/7 20/27/7
f 28/103/7 26/103/7 24/102/7
f 20/27/7 30/28/7 28/103/7
f 20/27/7 18/27/7 32/28/7
f 28/103/7 24/102/7 20/27/7
f 17/24/8 31/2/8 18/29/8
f 29/20/9 30/7/9 31/29/9
f 33/37/10 34/30/10 35/32/10
f 36/41/11 40/33/11 35/35/11
f 40/104/12 38/36/12 39/32/12
f 38/105/13 34/38/13 37/40/13
f 38/105/14 40/33/14 34/38/14
f 41/106/15 42/42/15 44/44/15
f 45/44/14 48/45/14 46/47/14
f 41/53/12 45/48/12 42/50/12
f 42/107/16 46/51/16 43/52/16
f 44/108/10 43/52/10 48/47/10
f 45/48/11 41/53/11 48/54/11
f 50/63/10 52/55/10 49/57/10
f 52/109/11 56/58/11 51/60/11
f 56/58/12 54/61/12 55/59/12
f 53/62/16 54/61/16 49/57/16
f 54/110/14 56/64/14 50/66/14
f 58/63/10 60/55/10 57/68/10
f 60/109/11 64/58/11 59/51/11
f 63/69/12 64/58/12 61/70/12
f 62/61/16 58/63/16 61/70/16
f 62/64/14 64/71/14 58/65/14
f 65/73/17 66/68/17 67/73/17
f 67/73/18 68/68/18 69/75/18
f 71/92/17 72/76/17 73/78/17
f 73/79/18 74/67/18 75/79/18
f 77/91/17 78/80/17 79/73/17
f 79/73/18 80/68/18 81/73/18
f 83/75/17 84/74/17 85/75/17
f 85/75/18 86/74/18 87/82/18
f 89/97/17 90/83/17 91/37/17
f 91/37/18 92/84/18 93/37/18
f 95/37/17 96/84/17 97/37/17
f 97/37/18 98/84/18 99/86/18
f 101/86/17 102/85/17 103/86/17
f 103/86/18 104/85/18 105/88/18
f 107/78/17 108/77/17 109/79/17
f 109/79/18 110/67/18 111/90/18
f 115/91/17 113/88/17 116/80/17
f 115/91/18 116/80/18 117/91/18
f 121/88/17 119/88/17 122/87/17
f 121/88/18 122/87/18 123/88/18
f 127/92/17 125/92/17 128/76/17
f 127/92/18 128/76/18 129/92/18
f 133/82/17 131/82/17 134/81/17
f 133/82/18 134/81/18 135/92/18
f 139/96/17 137/93/17 140/95/17
f 139/96/18 140/95/18 141/96/18
f 145/97/17 143/96/17 146/83/17
f 145/97/18 146/83/18 147/97/18
o Saw
v 0.988500 1.460000 1.500000
v 0.988500 1.471596 1.316606
v 0.988500 1.424984 1.323966
v 0.988500 1.365516 1.150095
v 0.988500 1.325269 1.174731
v 0.988500 1.203790 1.036852
v 0.988500 1.176034 1.075016
v 0.988500 1.011038 0.994121
v 0.988500 1.000000 1.040000
v 0.988500 0.816606 1.028404
v 0.988500 0.823966 1.075016
v 0.988500 0.650094 1.134484
v 0.988500 0.674731 1.174731
v 0.988500 0.536852 1.296210
v 0.988500 0.575015 1.323966
v 0.988500 0.494120 1.488962
v 0.988500 0.540000 1.500000
v 0.988500 0.528404 1.683394
v 0.988500 0.575015 1.676035
v 0.988500 0.634484 1.849906
v 0.988500 0.674731 1.825269
v 0.988500 0.796210 1.963148
v 0.988500 0.823966 1.924985
v 0.988500 0.988962 2.005879
v 0.988500 1.000000 1.960000
v 0.988500 1.183394 1.971596
v 0.988500 1.176035 1.924984
v 0.988500 1.349906 1.865516
v 0.988500 1.325269 1.825269
v 0.988500 1.463148 1.703789
v 0.988500 1.424985 1.676034
v 0.988500 1.505879 1.511038
v 1.011500 1.460000 1.500000
v 1.011500 1.471596 1.316606
v 1.011500 1.424984 1.323966
v 1.011500 1.365516 1.150095
v 1.011500 1.325269 1.174731
v 1.011500 1.203790 1.036852
v 1.011500 1.176034 1.075016
v 1.011500 1.011038 0.994121
v 1.011500 1.000000 1.040000
v 1.011500 0.816606 1.028404
v 1.011500 0.823966 1.075016
v 1.011500 0.650094 1.134484
v 1.011500 0.674731 1.174731
v 1.011500 0.536852 1.296210
v 1.011500 0.575015 1.323966
v 1.011500 0.494120 1.488962
v 1.011500 0.540000 1.500000
v 1.011500 0.528404 1.683394
v 1.011500 0.575015 1.676035
v 1.011500 0.634484 1.849906
v 1.011500 0.674731 1.825269
v 1.011500 0.796210 1.963148
v 1.011500 0.823966 1.924985
v 1.011500 0.988962 2.005879
v 1.011500 1.000000 1.960000
v 1.011500 1.183394 1.971596
v 1.011500 1.176035 1.924984
v 1.011500 1.349906 1.865516
v 1.011500 1.325269 1.825269
v 1.011500 1.463148 1.703789
v 1.011500 1.424985 1.676034
v 1.011500 1.505879 1.511038
vt 0.531250 0.546875
vt 0.531250 0.562500
vt 0.523438 0.562500
vt 0.523438 0.296875
vt 0.531250 0.296875
vt 0.531250 0.421875
vt 0.531250 0.437500
vt 0.523438 0.437500
vt 0.531250 0.531250
vt 0.523438 0.531250
vt 0.531250 0.265625
vt 0.531250 0.281250
vt 0.523438 0.281250
vt 0.531250 0.390625
vt 0.531250 0.406250
vt 0.523438 0.406250
vt 0.531250 0.500000
vt 0.531250 0.515625
vt 0.523438 0.515625
vt 0.531250 0.375000
vt 0.523438 0.390625
vt 0.531250 0.234375
vt 0.531250 0.250000
vt 0.523438 0.250000
vt 0.531250 0.484375
vt 0.523438 0.484375
vt 0.531250 0.343750
vt 0.531250 0.359375
vt 0.523438 0.359375
vt 0.531250 0.203125
vt 0.531250 0.218750
vt 0.523438 0.218750
vt 0.531250 0.453125
vt 0.531250 0.468750
vt 0.523438 0.468750
vt 0.531250 0.328125
vt 0.523438 0.343750
vt 0.531250 0.578125
vt 0.523438 0.578125
vt 0.531250 0.312500
vt 0.523438 0.312500
vt 0.523438 0.546875
vt 0.523438 0.421875
vt 0.523438 0.265625
vt 0.523438 0.500000
vt 0.523438 0.375000
vt 0.523438 0.234375
vt 0.523438 0.328125
vt 0.632812 0.718750
vt 0.585938 0.734375
vt 0.562500 0.515625
vt 0.609375 0.234375
vt 0.539062 0.328125
vt 0.585938 0.468750
vt 0.523438 0.203125
vt 0.523438 0.453125
vt 0.554688 0.500000
vt 0.585938 0.500000
vt 0.585938 0.484375
vt 0.609375 0.500000
vt 0.609375 0.484375
vt 0.632812 0.515625
vt 0.632812 0.500000
vt 0.648438 0.546875
vt 0.656250 0.546875
vt 0.656250 0.593750
vt 0.664062 0.593750
vt 0.656250 0.640625
vt 0.664062 0.640625
vt 0.648438 0.687500
vt 0.656250 0.687500
vt 0.632812 0.734375
vt 0.609375 0.734375
vt 0.609375 0.750000
vt 0.585938 0.750000
vt 0.562500 0.718750
vt 0.554688 0.734375
vt 0.546875 0.687500
vt 0.539062 0.687500
vt 0.539062 0.640625
vt 0.531250 0.640625
vt 0.539062 0.593750
vt 0.531250 0.593750
vt 0.546875 0.546875
vt 0.539062 0.546875
vt 0.609375 0.468750
vt 0.632812 0.468750
vt 0.632812 0.453125
vt 0.656250 0.421875
vt 0.648438 0.421875
vt 0.664062 0.375000
vt 0.656250 0.375000
vt 0.664062 0.328125
vt 0.656250 0.328125
vt 0.656250 0.281250
vt 0.648438 0.281250
vt 0.632812 0.234375
vt 0.632812 0.250000
vt 0.609375 0.218750
vt 0.585938 0.218750
vt 0.585938 0.234375
vt 0.554688 0.234375
vt 0.562500 0.250000
vt 0.539062 0.281250
vt 0.546875 0.281250
vt 0.539062 0.375000
vt 0.539062 0.421875
vt 0.546875 0.421875
vt 0.554688 0.468750
vt 0.562500 0.453125
vn 0.000000 0.987800 -0.156000
vn 0.000000 -0.522100 -0.852900
vn 0.000000 -0.897900 -0.440200
vn 0.000000 0.972300 0.233900
vn 0.000000 -0.156000 -0.987800
vn 0.000000 -0.661100 -0.750300
vn 0.000000 0.808700 0.588200
vn 0.000000 -0.323600 -0.946200
vn 0.000000 0.897900 0.440200
vn 0.000000 0.522100 0.852900
vn 0.000000 0.063100 -0.998000
vn 0.000000 0.661100 0.750300
vn 0.000000 0.156000 0.987800
vn 0.000000 0.440200 -0.897900
vn 0.000000 0.323600 0.946200
vn 0.000000 0.750300 -0.661100
vn 0.000000 -0.233900 0.972300
vn 0.000000 -0.063100 0.998000
vn 0.000000 0.946200 -0.323600
vn 0.000000 -0.588200 0.808700
vn 0.000000 -0.440200 0.897900
vn 0.000000 0.998000 0.063100
vn 0.000000 -0.852900 0.522100
vn 0.000000 0.233900 -0.972300
vn 0.000000 -0.750300 0.661100
vn 0.000000 -0.987800 0.156000
vn 0.000000 0.588200 -0.808700
vn 0.000000 -0.946200 0.323600
vn 0.000000 -0.972300 -0.233900
vn 0.000000 0.852900 -0.522100
vn 0.000000 -0.998000 -0.063100
vn 0.000000 -0.808700 -0.588200
vn 1.000000 0.000000 0.000000
vn -1.000000 -0.000000 -0.000000
s off
f 206/111/19 207/112/19 175/113/19
f 152/114/20 184/115/20 185/115/20
f 195/116/21 196/117/21 164/118/21
f 204/119/22 205/119/22 173/120/22
f 182/121/23 183/122/23 151/123/23
f 193/124/24 194/125/24 162/126/24
f 202/127/25 203/128/25 171/129/25
f 191/130/26 192/124/26 160/131/26
f 211/132/27 212/133/27 180/134/27
f 200/135/28 201/135/28 169/136/28
f 189/137/29 190/138/29 158/139/29
f 209/140/30 210/141/30 178/142/30
f 198/143/31 199/144/31 167/145/31
f 187/146/32 188/137/32 156/147/32
f 207/112/33 208/148/33 176/149/33
f 185/115/34 186/150/34 154/151/34
f 196/117/35 197/117/35 165/118/35
f 205/119/36 206/111/36 174/152/36
f 183/122/37 184/115/37 152/114/37
f 194/125/38 195/116/38 163/153/38
f 203/128/39 204/119/39 172/120/39
f 181/133/40 182/121/40 150/154/40
f 192/124/41 193/124/41 161/131/41
f 212/133/42 181/133/42 149/134/42
f 201/135/43 202/127/43 170/155/43
f 190/138/44 191/130/44 159/156/44
f 210/141/45 211/132/45 179/157/45
f 199/144/46 200/135/46 168/136/46
f 188/137/47 189/137/47 157/147/47
f 208/148/48 209/148/48 177/149/48
f 165/118/49 197/117/49 198/143/49
f 186/150/50 187/146/50 155/158/50
f 201/159/51 197/160/51 185/161/51
f 163/162/52 171/163/52 179/164/52
f 174/152/19 206/111/19 175/113/19
f 153/114/20 152/114/20 185/115/20
f 163/153/21 195/116/21 164/118/21
f 172/120/22 204/119/22 173/120/22
f 150/154/23 182/121/23 151/123/23
f 161/131/24 193/124/24 162/126/24
f 170/155/25 202/127/25 171/129/25
f 159/156/26 191/130/26 160/131/26
f 179/157/27 211/132/27 180/134/27
f 168/136/28 200/135/28 169/136/28
f 157/147/29 189/137/29 158/139/29
f 177/165/30 209/140/30 178/142/30
f 166/166/31 198/143/31 167/145/31
f 155/158/32 187/146/32 156/147/32
f 175/113/33 207/112/33 176/149/33
f 153/114/34 185/115/34 154/151/34
f 164/118/35 196/117/35 165/118/35
f 173/120/36 205/119/36 174/152/36
f 151/123/37 183/122/37 152/114/37
f 162/126/38 194/125/38 163/153/38
f 171/129/39 203/128/39 172/120/39
f 149/134/40 181/133/40 150/154/40
f 160/131/41 192/124/41 161/131/41
f 180/134/42 212/133/42 149/134/42
f 169/136/43 201/135/43 170/155/43
f 158/139/44 190/138/44 159/156/44
f 178/142/45 210/141/45 179/157/45
f 167/145/46 199/144/46 168/136/46
f 156/147/47 188/137/47 157/147/47
f 176/149/48 208/148/48 177/149/48
f 166/166/49 165/118/49 198/143/49
f 154/151/50 186/150/50 155/158/50
f 185/161/51 184/167/51 183/168/51
f 183/168/51 182/169/51 181/170/51
f 181/170/51 212/171/51 211/172/51
f 211/172/51 210/173/51 209/174/51
f 209/174/51 208/175/51 207/176/51
f 207/176/51 206/177/51 205/178/51
f 205/178/51 204/179/51 203/180/51
f 203/180/51 202/181/51 201/159/51
f 201/159/51 200/182/51 199/183/51
f 199/183/51 198/184/51 197/160/51
f 197/160/51 196/185/51 195/186/51
f 195/186/51 194/187/51 193/188/51
f 193/188/51 192/189/51 191/190/51
f 191/190/51 190/191/51 189/192/51
f 189/192/51 188/193/51 187/194/51
f 187/194/51 186/195/51 185/161/51
f 185/161/51 183/168/51 181/170/51
f 181/170/51 211/172/51 209/174/51
f 209/174/51 207/176/51 205/178/51
f 205/178/51 203/180/51 201/159/51
f 201/159/51 199/183/51 197/160/51
f 197/160/51 195/186/51 193/188/51
f 185/161/51 191/190/51 189/192/51
f 189/192/51 187/194/51 185/161/51
f 185/161/51 181/170/51 209/174/51
f 185/161/51 205/178/51 201/159/51
f 185/161/51 197/160/51 193/188/51
f 193/188/51 191/190/51 185/161/51
f 185/161/51 209/174/51 205/178/51
f 179/164/52 180/171/52 149/196/52
f 149/196/52 150/197/52 151/198/52
f 151/198/52 152/199/52 153/200/52
f 153/200/52 154/201/52 155/202/52
f 155/202/52 156/203/52 157/204/52
f 157/204/52 158/205/52 159/206/52
f 159/206/52 160/207/52 161/208/52
f 161/208/52 162/209/52 163/162/52
f 163/162/52 164/210/52 165/211/52
f 165/211/52 166/212/52 167/213/52
f 167/213/52 168/214/52 169/215/52
f 169/215/52 170/146/52 171/163/52
f 171/163/52 172/130/52 173/216/52
f 173/216/52 174/217/52 175/218/52
f 175/218/52 176/219/52 177/220/52
f 177/220/52 178/169/52 179/164/52
f 155/202/52 149/196/52 151/198/52
f 151/198/52 153/200/52 155/202/52
f 155/202/52 157/204/52 159/206/52
f 159/206/52 161/208/52 163/162/52
f 163/162/52 165/211/52 167/213/52
f 167/213/52 169/215/52 171/163/52
f 179/164/52 173/216/52 175/218/52
f 175/218/52 177/220/52 179/164/52
f 179/164/52 149/196/52 155/202/52
f 155/202/52 159/206/52 163/162/52
f 163/162/52 167/213/52 171/163/52
f 171/163/52 173/216/52 179/164/52
f 179/164/52 155/202/52 163/162/52
