# Blender v2.74 (sub 0) OBJ File: 'middleTank.blend'
# www.blender.org
o Cylinder4
v -0.437500 -0.500000 -0.375000
v -0.437500 0.500000 -0.375000
v -0.481694 -0.500000 -0.393306
v -0.481694 0.500000 -0.393306
v -0.500000 -0.500000 -0.437500
v -0.500000 0.500000 -0.437500
v -0.481694 -0.500000 -0.481694
v -0.481694 0.500000 -0.481694
v -0.437500 -0.500000 -0.500000
v -0.437500 0.500000 -0.500000
v -0.393306 -0.500000 -0.481694
v -0.393306 0.500000 -0.481694
v -0.375000 -0.500000 -0.437500
v -0.375000 0.500000 -0.437500
v -0.393306 -0.500000 -0.393306
v -0.393306 0.500000 -0.393306
vt 0.895851 0.244514
vt 0.886286 0.244514
vt 0.886286 0.044548
vt 0.876720 0.244514
vt 0.876720 0.044548
vt 0.867155 0.244514
vt 0.867155 0.044548
vt 0.857589 0.244514
vt 0.857589 0.044548
vt 0.934113 0.244514
vt 0.924547 0.244514
vt 0.924547 0.044548
vt 0.914982 0.244514
vt 0.914982 0.044548
vt 0.950476 0.090768
vt 0.934147 0.084005
vt 0.940911 0.067675
vt 0.905417 0.244514
vt 0.895851 0.044548
vt 0.905416 0.044548
vt 0.950476 0.044548
vt 0.957240 0.051312
vt 0.940911 0.067641
vt 0.934113 0.044548
vt 0.957240 0.074439
vt 0.957240 0.084005
vt 0.950476 0.067675
vt 0.934147 0.074439
vt 0.940911 0.090768
vt 0.934147 0.051312
vt 0.940911 0.044548
vt 0.934147 0.060878
vt 0.957240 0.060878
vt 0.950476 0.067641
vn -0.382700 0.000000 0.923900
vn -0.923900 0.000000 0.382700
vn -0.923900 0.000000 -0.382700
vn -0.382700 0.000000 -0.923900
vn 0.382700 0.000000 -0.923900
vn 0.923900 0.000000 -0.382700
vn 0.000000 1.000000 0.000000
vn 0.382700 0.000000 0.923900
vn 0.923900 0.000000 0.382700
vn 0.000000 -1.000000 0.000000
s off
f 2/1/1 4/2/1 3/3/1
f 4/2/2 6/4/2 5/5/2
f 6/4/3 8/6/3 7/7/3
f 8/6/4 10/8/4 9/9/4
f 10/10/5 12/11/5 11/12/5
f 12/11/6 14/13/6 13/14/6
f 4/15/7 16/16/7 12/17/7
f 16/18/8 2/1/8 1/19/8
f 14/13/9 16/18/9 15/20/9
f 1/21/10 3/22/10 9/23/10
f 1/19/1 2/1/1 3/3/1
f 3/3/2 4/2/2 5/5/2
f 5/5/3 6/4/3 7/7/3
f 7/7/4 8/6/4 9/9/4
f 9/24/5 10/10/5 11/12/5
f 11/12/6 12/11/6 13/14/6
f 8/25/7 6/26/7 4/15/7
f 12/17/7 10/27/7 8/25/7
f 16/16/7 14/28/7 12/17/7
f 4/15/7 2/29/7 16/16/7
f 12/17/7 8/25/7 4/15/7
f 15/20/8 16/18/8 1/19/8
f 13/14/9 14/13/9 15/20/9
f 13/30/10 15/31/10 1/21/10
f 9/23/10 11/32/10 13/30/10
f 5/33/10 7/34/10 9/23/10
f 9/23/10 3/22/10 5/33/10
f 9/23/10 13/30/10 1/21/10
o Cylinder3
v 0.437500 -0.500000 -0.375000
v 0.437500 0.500000 -0.375000
v 0.393306 -0.500000 -0.393306
v 0.393306 0.500000 -0.393306
v 0.375000 -0.500000 -0.437500
v 0.375000 0.500000 -0.437500
v 0.393306 -0.500000 -0.481694
v 0.393306 0.500000 -0.481694
v 0.437500 -0.500000 -0.500000
v 0.437500 0.500000 -0.500000
v 0.481694 -0.500000 -0.481694
v 0.481694 0.500000 -0.481694
v 0.500000 -0.500000 -0.437500
v 0.500000 0.500000 -0.437500
v 0.481694 -0.500000 -0.393306
v 0.481694 0.500000 -0.393306
vt 0.998096 0.002009
vt 0.998096 0.202009
vt 0.798096 0.202009
vt 0.898096 0.202009
vt 0.998096 0.102009
vt 0.898096 0.002009
vt 0.968807 0.172719
vt 0.798096 0.002009
vt 0.798096 0.102009
vt 0.827385 0.172719
vt 0.827385 0.031298
vt 0.968807 0.031298
vn -0.382700 0.000000 0.923900
vn -0.923900 0.000000 0.382700
vn -0.923900 0.000000 -0.382700
vn -0.382700 0.000000 -0.923900
vn 0.382700 0.000000 -0.923900
vn 0.923900 0.000000 -0.382700
vn 0.000000 1.000000 0.000000
vn 0.382700 0.000000 0.923900
vn 0.923900 0.000000 0.382700
vn 0.000000 -1.000000 0.000000
s off
f 18/35/11 20/36/11 19/37/11
f 20/35/12 22/36/12 21/37/12
f 22/35/13 24/36/13 23/37/13
f 24/35/14 26/36/14 25/37/14
f 26/35/15 28/36/15 27/37/15
f 28/35/16 30/36/16 29/37/16
f 20/38/17 32/39/17 28/40/17
f 32/35/18 18/36/18 17/37/18
f 30/35/19 32/36/19 31/37/19
f 17/38/20 19/41/20 25/40/20
f 17/42/11 18/35/11 19/37/11
f 19/42/12 20/35/12 21/37/12
f 21/42/13 22/35/13 23/37/13
f 23/42/14 24/35/14 25/37/14
f 25/42/15 26/35/15 27/37/15
f 27/42/16 28/35/16 29/37/16
f 24/43/17 22/44/17 20/38/17
f 28/40/17 26/45/17 24/43/17
f 32/39/17 30/46/17 28/40/17
f 20/38/17 18/41/17 32/39/17
f 28/40/17 24/43/17 20/38/17
f 31/42/18 32/35/18 17/37/18
f 29/42/19 30/35/19 31/37/19
f 29/43/20 31/44/20 17/38/20
f 25/40/20 27/45/20 29/43/20
f 21/39/20 23/46/20 25/40/20
f 25/40/20 19/41/20 21/39/20
f 25/40/20 29/43/20 17/38/20
o Cylinder2
v 0.437500 -0.500000 0.500000
v 0.437500 0.500000 0.500000
v 0.393306 -0.500000 0.481694
v 0.393306 0.500000 0.481694
v 0.375000 -0.500000 0.437500
v 0.375000 0.500000 0.437500
v 0.393306 -0.500000 0.393306
v 0.393306 0.500000 0.393306
v 0.437500 -0.500000 0.375000
v 0.437500 0.500000 0.375000
v 0.481694 -0.500000 0.393306
v 0.481694 0.500000 0.393306
v 0.500000 -0.500000 0.437500
v 0.500000 0.500000 0.437500
v 0.481694 -0.500000 0.481694
v 0.481694 0.500000 0.481694
vt 0.990625 -0.002344
vt 0.990625 0.197656
vt 0.790625 0.197656
vt 0.890625 0.197656
vt 0.990625 0.097656
vt 0.890625 -0.002344
vt 0.961336 0.168367
vt 0.790625 -0.002344
vt 0.790625 0.097656
vt 0.819914 0.168367
vt 0.819914 0.026946
vt 0.961336 0.026946
vn -0.382700 0.000000 0.923900
vn -0.923900 0.000000 0.382700
vn -0.923900 0.000000 -0.382700
vn -0.382700 0.000000 -0.923900
vn 0.382700 0.000000 -0.923900
vn 0.923900 0.000000 -0.382700
vn 0.000000 1.000000 0.000000
vn 0.382700 0.000000 0.923900
vn 0.923900 0.000000 0.382700
vn 0.000000 -1.000000 0.000000
s off
f 34/47/21 36/48/21 35/49/21
f 36/47/22 38/48/22 37/49/22
f 38/47/23 40/48/23 39/49/23
f 40/47/24 42/48/24 41/49/24
f 42/47/25 44/48/25 43/49/25
f 44/47/26 46/48/26 45/49/26
f 36/50/27 48/51/27 44/52/27
f 48/47/28 34/48/28 33/49/28
f 46/47/29 48/48/29 47/49/29
f 33/50/30 35/53/30 41/52/30
f 33/54/21 34/47/21 35/49/21
f 35/54/22 36/47/22 37/49/22
f 37/54/23 38/47/23 39/49/23
f 39/54/24 40/47/24 41/49/24
f 41/54/25 42/47/25 43/49/25
f 43/54/26 44/47/26 45/49/26
f 40/55/27 38/56/27 36/50/27
f 44/52/27 42/57/27 40/55/27
f 48/51/27 46/58/27 44/52/27
f 36/50/27 34/53/27 48/51/27
f 44/52/27 40/55/27 36/50/27
f 47/54/28 48/47/28 33/49/28
f 45/54/29 46/47/29 47/49/29
f 45/55/30 47/56/30 33/50/30
f 41/52/30 43/57/30 45/55/30
f 37/51/30 39/58/30 41/52/30
f 41/52/30 35/53/30 37/51/30
f 41/52/30 45/55/30 33/50/30
o Cylinder1
v -0.437500 -0.500000 0.500000
v -0.437500 0.500000 0.500000
v -0.481694 -0.500000 0.481694
v -0.481694 0.500000 0.481694
v -0.500000 -0.500000 0.437500
v -0.500000 0.500000 0.437500
v -0.481694 -0.500000 0.393306
v -0.481694 0.500000 0.393306
v -0.437500 -0.500000 0.375000
v -0.437500 0.500000 0.375000
v -0.393306 -0.500000 0.393306
v -0.393306 0.500000 0.393306
v -0.375000 -0.500000 0.437500
v -0.375000 0.500000 0.437500
v -0.393306 -0.500000 0.481694
v -0.393306 0.500000 0.481694
vt 0.975000 0.025000
vt 0.975000 0.225000
vt 0.775000 0.225000
vt 0.875000 0.225000
vt 0.975000 0.125000
vt 0.875000 0.025000
vt 0.945711 0.195711
vt 0.775000 0.025000
vt 0.775000 0.125000
vt 0.804289 0.195711
vt 0.804289 0.054289
vt 0.945711 0.054289
vn -0.382700 0.000000 0.923900
vn -0.923900 0.000000 0.382700
vn -0.923900 0.000000 -0.382700
vn -0.382700 0.000000 -0.923900
vn 0.382700 0.000000 -0.923900
vn 0.923900 0.000000 -0.382700
vn 0.000000 1.000000 0.000000
vn 0.382700 0.000000 0.923900
vn 0.923900 0.000000 0.382700
vn 0.000000 -1.000000 0.000000
s off
f 50/59/31 52/60/31 51/61/31
f 52/59/32 54/60/32 53/61/32
f 54/59/33 56/60/33 55/61/33
f 56/59/34 58/60/34 57/61/34
f 58/59/35 60/60/35 59/61/35
f 60/59/36 62/60/36 61/61/36
f 52/62/37 64/63/37 60/64/37
f 64/59/38 50/60/38 49/61/38
f 62/59/39 64/60/39 63/61/39
f 49/62/40 51/65/40 57/64/40
f 49/66/31 50/59/31 51/61/31
f 51/66/32 52/59/32 53/61/32
f 53/66/33 54/59/33 55/61/33
f 55/66/34 56/59/34 57/61/34
f 57/66/35 58/59/35 59/61/35
f 59/66/36 60/59/36 61/61/36
f 56/67/37 54/68/37 52/62/37
f 60/64/37 58/69/37 56/67/37
f 64/63/37 62/70/37 60/64/37
f 52/62/37 50/65/37 64/63/37
f 60/64/37 56/67/37 52/62/37
f 63/66/38 64/59/38 49/61/38
f 61/66/39 62/59/39 63/61/39
f 61/67/40 63/68/40 49/62/40
f 57/64/40 59/69/40 61/67/40
f 53/63/40 55/70/40 57/64/40
f 57/64/40 51/65/40 53/63/40
f 57/64/40 61/67/40 49/62/40
o Cylinder
v 0.000000 -0.500000 0.500000
v 0.000000 0.500000 0.500000
v -0.353553 -0.500000 0.353553
v -0.353553 0.500000 0.353553
v -0.500000 -0.500000 -0.000000
v -0.500000 0.500000 -0.000000
v -0.353553 -0.500000 -0.353553
v -0.353553 0.500000 -0.353553
v 0.000000 -0.500000 -0.500000
v 0.000000 0.500000 -0.500000
v 0.353553 -0.500000 -0.353553
v 0.353553 0.500000 -0.353553
v 0.500000 -0.500000 0.000000
v 0.500000 0.500000 0.000000
v 0.353553 -0.500000 0.353553
v 0.353553 0.500000 0.353553
vt 0.000000 0.250000
vt 0.000000 0.125000
vt 0.343750 0.125000
vt 0.000000 0.000000
vt 0.343750 0.000000
vt 0.000000 1.000000
vt 0.000000 0.875000
vt 0.343750 0.875000
vt 0.000000 0.750000
vt 0.343750 0.750000
vt 0.000000 0.625000
vt 0.343750 0.625000
vt 0.000000 0.500000
vt 0.343750 0.500000
vt 0.562500 0.625000
vt 0.343750 0.531250
vt 0.437500 0.312500
vt 0.000000 0.375000
vt 0.343750 0.250000
vt 0.343750 0.375000
vt 0.566291 0.310930
vt 0.345320 0.222541
vt 0.433709 0.001570
vt 0.343750 1.000000
vt 0.656250 0.531250
vt 0.562500 0.312500
vt 0.656250 0.406250
vt 0.343750 0.406250
vt 0.437500 0.625000
vt 0.654680 0.089959
vt 0.654680 0.222541
vt 0.566291 0.001570
vt 0.345320 0.089959
vt 0.433709 0.310930
vn -0.382700 0.000000 0.923900
vn -0.923900 0.000000 0.382700
vn -0.923900 0.000000 -0.382700
vn -0.382700 0.000000 -0.923900
vn 0.382700 0.000000 -0.923900
vn 0.923900 0.000000 -0.382700
vn 0.000000 1.000000 0.000000
vn 0.382700 0.000000 0.923900
vn 0.923900 0.000000 0.382700
vn 0.000000 -1.000000 0.000000
s off
f 66/71/41 68/72/41 67/73/41
f 68/72/42 70/74/42 69/75/42
f 70/76/43 72/77/43 71/78/43
f 72/77/44 74/79/44 73/80/44
f 74/79/45 76/81/45 75/82/45
f 76/81/46 78/83/46 77/84/46
f 68/85/47 80/86/47 76/87/47
f 80/88/48 66/71/48 65/89/48
f 78/83/49 80/88/49 79/90/49
f 65/91/50 69/92/50 73/93/50
f 65/89/41 66/71/41 67/73/41
f 67/73/42 68/72/42 69/75/42
f 69/94/43 70/76/43 71/78/43
f 71/78/44 72/77/44 73/80/44
f 73/80/45 74/79/45 75/82/45
f 75/82/46 76/81/46 77/84/46
f 76/87/47 70/95/47 68/85/47
f 76/87/47 74/96/47 72/97/47
f 80/86/47 78/98/47 76/87/47
f 68/85/47 66/99/47 80/86/47
f 76/87/47 72/97/47 70/95/47
f 79/90/48 80/88/48 65/89/48
f 77/84/49 78/83/49 79/90/49
f 77/100/50 79/101/50 65/91/50
f 65/91/50 75/102/50 77/100/50
f 69/92/50 71/103/50 73/93/50
f 65/91/50 67/104/50 69/92/50
f 73/93/50 75/102/50 65/91/50
