# Blender v2.79 (sub 0) OBJ File: 'observatory.blend'
# www.blender.org
mtllib observatory.mtl
o Base
v -2.500000 -0.005001 -0.000000
v -1.767768 -0.005000 1.767767
v -2.500000 1.745000 0.000000
v 2.500000 -0.005000 -0.000000
v 0.000000 -0.005000 2.500000
v 1.767766 -0.005000 -1.767767
v 1.767767 1.745000 -1.767767
v 2.500000 1.745000 0.000000
v 1.767767 -0.005000 1.767767
v 1.767767 1.745000 1.767767
v -1.767767 1.745000 1.767767
v 0.000000 1.745000 -2.500000
v -1.767767 1.745000 -1.767767
v 0.000000 -0.005000 -2.500000
v 0.000000 1.745000 2.500000
v -1.767767 -0.005000 -1.767767
vt 0.000000 0.605469
vt 0.234375 0.605469
vt 0.000000 0.492188
vt 0.164062 0.718750
vt 0.000000 0.917969
vt 0.398438 1.000000
vt 0.234375 0.605469
vt 0.234375 0.492188
vt 0.000000 0.492188
vt 0.234375 0.605469
vt 0.234375 0.492188
vt 0.000000 0.605469
vt 0.000000 0.492188
vt 0.000000 0.605469
vt 0.234375 0.492188
vt 0.234375 0.492188
vt 0.000000 0.492188
vt 0.000000 0.605469
vt 0.234375 0.492188
vt 0.000000 0.492188
vt 0.000000 0.605469
vt 0.234375 0.492188
vt 0.000000 0.492188
vt 0.000000 0.605469
vt 0.234375 0.492188
vt 0.000000 0.492188
vt 0.000000 0.605469
vt 0.000000 0.605469
vt 0.234375 0.492188
vt 0.000000 0.492188
vt 0.234375 0.605469
vt 0.398438 1.000000
vt 0.562500 0.800781
vt 0.398438 0.718750
vt 0.398438 0.718750
vt 0.562500 0.917969
vt 0.562500 0.800781
vt 0.164062 1.000000
vt 0.000000 0.800781
vt 0.234375 0.605469
vt 0.234375 0.605469
vt 0.234375 0.605469
vt 0.234375 0.605469
vt 0.000000 0.917969
vt 0.164062 1.000000
vt 0.164062 0.718750
vt 0.000000 0.800781
vt 0.562500 0.917969
vn -0.9239 0.0000 0.3827
vn 0.0000 -1.0000 -0.0000
vn 0.9239 -0.0000 -0.3827
vn 0.9239 0.0000 0.3827
vn 0.3827 -0.0000 -0.9239
vn -0.3827 0.0000 -0.9239
vn -0.3827 0.0000 0.9239
vn 0.3827 -0.0000 0.9239
vn -0.9239 0.0000 -0.3827
vn 0.0000 1.0000 0.0000
usemtl None
s 1
f 1/1/1 2/2/1 3/3/1
f 4/4/2 5/5/2 1/6/2
f 6/7/3 7/8/3 8/9/3
f 4/10/4 8/11/4 9/12/4
f 9/12/4 8/11/4 10/13/4
f 4/14/3 6/7/3 8/9/3
f 2/2/1 11/15/1 3/3/1
f 12/16/5 7/17/5 6/18/5
f 13/19/6 12/20/6 14/21/6
f 15/22/7 11/23/7 2/24/7
f 10/25/8 15/26/8 5/27/8
f 16/28/9 3/29/9 13/30/9
f 1/31/9 3/29/9 16/28/9
f 7/32/10 13/33/10 3/34/10
f 1/6/2 6/35/2 4/4/2
f 1/6/2 16/36/2 14/37/2
f 5/5/2 2/38/2 1/6/2
f 4/4/2 9/39/2 5/5/2
f 1/6/2 14/37/2 6/35/2
f 14/40/5 12/16/5 6/18/5
f 16/41/6 13/19/6 14/21/6
f 5/42/7 15/22/7 2/24/7
f 9/43/8 10/25/8 5/27/8
f 10/44/10 8/45/10 7/32/10
f 11/46/10 15/47/10 10/44/10
f 7/32/10 3/34/10 11/46/10
f 7/32/10 12/48/10 13/33/10
f 11/46/10 10/44/10 7/32/10
o CasingXMinus
v 0.000000 1.745000 -2.500000
v 0.000000 3.495000 -2.500000
v 1.767767 3.495000 -1.767767
v -1.767767 1.745000 -1.767767
v -1.767767 3.495000 -1.767767
v 0.000000 4.620000 -1.250000
v 0.883883 4.620000 -0.883883
v 0.000000 4.995000 0.000000
v 1.250000 4.620000 0.000000
v -1.250000 4.620000 0.000000
v -0.883884 4.620000 -0.883883
v 2.500000 3.495000 0.000000
v -2.500000 1.745000 0.000000
v -2.500000 3.495000 0.000000
v 1.767767 1.745000 -1.767767
v 2.500000 1.745000 0.000000
vt 0.765625 0.601562
vt 0.765625 0.492188
vt 1.000000 0.492188
vt 0.765625 0.601562
vt 0.765625 0.492188
vt 1.000000 0.492188
vt 0.453125 0.597656
vt 0.335938 0.597656
vt 0.281250 0.492188
vt 0.398438 0.597656
vt 0.281250 0.679688
vt 0.281250 0.597656
vt 0.281250 0.597656
vt 0.398438 0.597656
vt 0.414062 0.597656
vt 0.359375 0.679688
vt 0.296875 0.597656
vt 0.351562 0.679688
vt 0.414062 0.597656
vt 0.515625 0.492188
vt 0.453125 0.597656
vt 0.335938 0.597656
vt 0.531250 0.597656
vt 0.296875 0.492188
vt 0.531250 0.597656
vt 0.531250 0.492188
vt 0.531250 0.601562
vt 0.531250 0.492188
vt 0.562500 0.917969
vt 0.164062 0.718750
vt 0.562500 0.800781
vt 0.968750 0.199219
vt 0.906250 0.199219
vt 0.875000 0.164062
vt 0.531250 0.601562
vt 0.765625 0.601562
vt 1.000000 0.601562
vt 1.000000 0.601562
vt 0.515625 0.492188
vt 0.281250 0.492188
vt 0.296875 0.492188
vt 0.398438 1.000000
vt 0.398438 0.718750
vt 1.000000 0.164062
vt 1.000000 0.183594
vt 0.875000 0.183594
vt 0.937500 0.203125
vt 0.765625 0.492188
vn 0.3827 0.0000 -0.9239
vn -0.3827 0.0000 -0.9239
vn 0.2670 0.7163 -0.6447
vn 0.2853 0.9511 -0.1182
vn -0.2853 0.9511 -0.1182
vn -0.1182 0.9511 -0.2853
vn 0.1182 0.9511 -0.2853
vn -0.2670 0.7163 -0.6447
vn -0.6447 0.7163 -0.2670
vn 0.6447 0.7163 -0.2670
vn -0.9239 0.0000 -0.3827
vn 0.0000 -1.0000 -0.0000
vn 0.0000 -0.0000 1.0000
vn 0.9239 0.0000 -0.3827
usemtl None
s 1
f 17/49/11 18/50/11 19/51/11
f 20/52/12 21/53/12 18/54/12
f 22/55/13 23/56/13 19/57/13
f 23/58/14 24/59/14 25/60/14
f 26/61/15 24/59/15 27/62/15
f 27/63/16 24/64/16 22/65/16
f 22/65/17 24/66/17 23/67/17
f 21/68/18 27/69/18 22/70/18
f 26/71/19 27/63/19 21/72/19
f 23/67/20 25/73/20 28/74/20
f 21/53/21 29/75/21 30/76/21
f 20/52/21 29/75/21 21/53/21
f 31/77/22 29/78/22 17/79/22
f 25/80/23 26/81/23 29/82/23
f 28/74/24 32/83/24 31/84/24
f 31/85/11 17/49/11 19/51/11
f 17/86/12 20/52/12 18/54/12
f 18/87/13 22/55/13 19/57/13
f 18/88/18 21/68/18 22/70/18
f 30/76/19 26/71/19 21/72/19
f 19/89/20 23/67/20 28/74/20
f 29/78/22 31/77/22 32/90/22
f 29/78/22 20/91/22 17/79/22
f 25/80/23 32/92/23 28/93/23
f 26/81/23 30/94/23 29/82/23
f 25/80/23 24/95/23 26/81/23
f 29/82/23 32/92/23 25/80/23
f 19/96/24 28/74/24 31/84/24
o CasingXPlus
v 1.767767 3.495000 1.767767
v 0.000000 3.495000 2.500000
v 0.000000 1.745000 2.500000
v -1.767767 3.495000 1.767767
v -1.767767 1.745000 1.767767
v 0.883883 4.620000 0.883884
v 0.000000 4.620000 1.250000
v 1.250000 4.620000 0.000000
v 0.000000 4.995000 0.000000
v -1.250000 4.620000 0.000000
v -0.883884 4.620000 0.883884
v 2.500000 3.495000 0.000000
v -2.500000 3.495000 0.000000
v -2.500000 1.745000 0.000000
v 2.500000 1.745000 0.000000
v 1.767767 1.745000 1.767767
vt 1.000000 0.492188
vt 0.765625 0.492188
vt 0.765625 0.601562
vt 1.000000 0.492188
vt 0.765625 0.492188
vt 0.765625 0.601562
vt 0.515625 0.492188
vt 0.453125 0.597656
vt 0.335938 0.597656
vt 0.398438 0.597656
vt 0.281250 0.597656
vt 0.281250 0.679688
vt 0.281250 0.597656
vt 0.398438 0.597656
vt 0.414062 0.597656
vt 0.296875 0.597656
vt 0.351562 0.679688
vt 0.414062 0.597656
vt 0.296875 0.597656
vt 0.359375 0.679688
vt 0.281250 0.492188
vt 0.515625 0.492188
vt 0.453125 0.597656
vt 0.296875 0.492188
vt 0.531250 0.597656
vt 0.531250 0.492188
vt 0.531250 0.597656
vt 0.414062 0.597656
vt 0.531250 0.492188
vt 0.531250 0.601562
vt 0.398438 1.000000
vt 0.164062 1.000000
vt 0.000000 0.917969
vt 0.968750 0.199219
vt 0.875000 0.164062
vt 0.906250 0.199219
vt 0.765625 0.601562
vt 0.531250 0.601562
vt 1.000000 0.601562
vt 1.000000 0.601562
vt 0.281250 0.492188
vt 0.335938 0.597656
vt 0.296875 0.492188
vt 0.000000 0.800781
vt 0.164062 0.718750
vt 1.000000 0.164062
vt 1.000000 0.183594
vt 0.937500 0.203125
vt 0.875000 0.183594
vt 0.765625 0.492188
vn 0.3827 -0.0000 0.9239
vn -0.3827 -0.0000 0.9239
vn 0.2670 0.7163 0.6447
vn 0.2853 0.9511 0.1182
vn -0.2853 0.9511 0.1182
vn -0.1182 0.9511 0.2853
vn 0.1182 0.9511 0.2853
vn -0.2670 0.7163 0.6447
vn -0.6447 0.7163 0.2670
vn 0.6447 0.7163 0.2670
vn -0.9239 -0.0000 0.3827
vn -0.0000 -1.0000 -0.0000
vn -0.0000 0.0000 -1.0000
vn 0.9239 -0.0000 0.3827
usemtl None
s 1
f 33/97/25 34/98/25 35/99/25
f 34/100/26 36/101/26 37/102/26
f 33/103/27 38/104/27 39/105/27
f 38/106/28 40/107/28 41/108/28
f 42/109/29 43/110/29 41/108/29
f 43/111/30 39/112/30 41/113/30
f 39/114/31 38/115/31 41/116/31
f 36/117/32 34/118/32 39/119/32
f 36/120/33 43/111/33 42/121/33
f 44/122/34 40/123/34 38/124/34
f 36/101/35 45/125/35 46/126/35
f 37/102/35 36/101/35 46/126/35
f 47/127/36 48/128/36 35/129/36
f 40/130/37 46/131/37 42/132/37
f 48/133/38 47/134/38 44/122/38
f 48/135/25 33/97/25 35/99/25
f 35/136/26 34/100/26 37/102/26
f 34/137/27 33/103/27 39/105/27
f 43/138/32 36/117/32 39/119/32
f 45/125/33 36/120/33 42/121/33
f 33/139/34 44/122/34 38/124/34
f 37/140/36 46/141/36 47/127/36
f 47/127/36 35/129/36 37/140/36
f 47/142/37 40/130/37 44/143/37
f 40/130/37 42/132/37 41/144/37
f 42/132/37 46/131/37 45/145/37
f 46/131/37 40/130/37 47/142/37
f 33/146/38 48/133/38 44/122/38
o Axis
v -0.366973 3.120000 -1.539232
v -0.482458 3.362487 -1.491397
v 0.713428 3.362487 1.395727
v -0.713428 3.362487 -1.395726
v 0.482458 3.362487 1.491398
v -0.828913 3.120000 -1.347891
v 0.366973 3.120000 1.539234
v -0.713428 2.877513 -1.395726
v 0.482458 2.877513 1.491398
v -0.482458 2.877513 -1.491397
v 0.828913 3.120000 1.347892
v 0.713428 2.877513 1.395727
vt 1.000000 0.453125
vt 1.000000 0.492188
vt 0.921875 0.492188
vt 1.000000 0.453125
vt 1.000000 0.492188
vt 0.921875 0.492188
vt 1.000000 0.453125
vt 1.000000 0.492188
vt 0.921875 0.492188
vt 1.000000 0.453125
vt 1.000000 0.492188
vt 0.921875 0.492188
vt 0.960938 0.492188
vt 0.992188 0.484375
vt 0.929688 0.464844
vt 1.000000 0.453125
vt 1.000000 0.492188
vt 0.921875 0.492188
vt 1.000000 0.453125
vt 1.000000 0.492188
vt 0.921875 0.492188
vt 0.960938 0.492188
vt 0.992188 0.464844
vt 0.960938 0.453125
vt 0.921875 0.453125
vt 0.921875 0.453125
vt 0.921875 0.453125
vt 0.921875 0.453125
vt 0.929688 0.484375
vt 0.992188 0.464844
vt 0.960938 0.453125
vt 0.921875 0.453125
vt 0.921875 0.453125
vt 0.929688 0.464844
vt 0.929688 0.484375
vt 0.992188 0.484375
vn 0.8212 0.4582 -0.3401
vn 0.0000 1.0000 0.0000
vn -0.8212 0.4582 0.3401
vn -0.8212 -0.4582 0.3401
vn -0.3827 0.0000 -0.9239
vn 0.8212 -0.4582 -0.3401
vn 0.0000 -1.0000 0.0000
vn 0.3827 -0.0000 0.9239
usemtl None
s 1
f 49/147/39 50/148/39 51/149/39
f 50/150/40 52/151/40 53/152/40
f 52/153/41 54/154/41 55/155/41
f 54/156/42 56/157/42 57/158/42
f 50/159/43 49/160/43 54/161/43
f 58/162/44 49/163/44 59/164/44
f 56/165/45 58/166/45 60/167/45
f 59/168/46 53/169/46 55/170/46
f 59/171/39 49/147/39 51/149/39
f 51/172/40 50/150/40 53/152/40
f 53/173/41 52/153/41 55/155/41
f 55/174/42 54/156/42 57/158/42
f 54/161/43 52/175/43 50/159/43
f 58/176/43 56/177/43 54/161/43
f 54/161/43 49/160/43 58/176/43
f 60/178/44 58/162/44 59/164/44
f 57/179/45 56/165/45 60/167/45
f 57/180/46 60/181/46 59/168/46
f 59/168/46 55/170/46 57/180/46
f 59/168/46 51/182/46 53/169/46
o Scope
v -1.011456 4.598766 0.418959
v -0.926894 4.440233 0.862287
v 1.873467 2.690233 -0.297661
v -1.060991 4.057500 1.115972
v -1.335195 3.674767 1.031411
v 1.465167 1.924767 -0.128537
v -1.588881 3.516234 0.658136
v 1.211481 1.766234 -0.501812
v -1.673443 3.674767 0.214808
v 1.126919 1.924767 -0.945140
v -1.539345 4.057500 -0.038877
v 1.261017 2.307500 -1.198825
v -1.271209 4.373924 0.131074
v -1.171196 4.311424 0.089648
v -0.961463 4.442491 0.398251
v -1.265141 4.440233 0.045684
v 1.788906 2.848766 -0.740989
v 1.535220 2.690233 -1.114263
v 1.530600 2.639749 -1.049252
v 1.750823 2.777370 -0.725214
v 1.850836 2.714870 -0.766641
v -1.061476 4.504991 0.439678
v -0.991563 4.373924 0.806198
v -1.102429 4.057500 1.015933
v -1.329126 3.741077 0.946021
v -1.538860 3.610010 0.637417
v -1.608772 3.741077 0.270897
v -1.497907 4.057500 0.061163
v -0.891551 4.311424 0.764772
v -1.397894 3.995000 0.019737
v -1.508759 3.678576 0.229471
v -1.438847 3.547510 0.595990
v -1.229113 3.678576 0.904595
v -1.002416 3.995000 0.974506
v 1.824231 2.639749 -0.340363
v 1.739371 2.307500 -0.043976
v 1.469787 1.975252 -0.193548
v 1.707822 2.307500 -0.120140
v 1.176156 1.975252 -0.902436
v 1.249564 1.837630 -0.517586
v 1.292565 2.307500 -1.122660
v 1.709855 2.450566 -0.708245
v 1.809869 2.388066 -0.749672
v 1.713522 2.327857 -0.891437
v 1.630613 2.577248 -1.090679
v 1.392578 2.245000 -1.164086
v 1.276169 1.912752 -0.943863
v 1.349576 1.775130 -0.559013
v 1.569800 1.912752 -0.234975
v 1.807835 2.245000 -0.161567
v 1.924244 2.577248 -0.381790
v 1.741971 2.390357 -0.539875
v 1.691043 2.245000 -0.443529
v 1.490557 2.039434 -0.617409
v 1.586904 2.099643 -0.475644
v 1.458441 2.099643 -0.785779
v 1.509370 2.245000 -0.882126
v 1.613509 2.390357 -0.850010
v 1.791056 2.182500 -0.484955
v 1.590569 1.976934 -0.658835
v 1.609383 2.182500 -0.923552
v 1.558454 2.037143 -0.827206
v 1.686916 2.037143 -0.517071
v 1.841984 2.327857 -0.581302
vt 0.781250 0.359375
vt 0.687500 0.359375
vt 0.687500 0.003906
vt 0.593750 0.359375
vt 0.492188 0.359375
vt 0.492188 0.003906
vt 0.398438 0.359375
vt 0.398438 0.003906
vt 0.296875 0.359375
vt 0.296875 0.003906
vt 0.203125 0.359375
vt 0.203125 0.003906
vt 0.070312 0.484375
vt 0.085938 0.468750
vt 0.156250 0.468750
vt 0.101562 0.359375
vt 0.007812 0.359375
vt 0.007812 0.003906
vt 0.101562 0.003906
vt 0.328125 0.492188
vt 0.242188 0.492188
vt 0.242188 0.476562
vt 0.398438 0.468750
vt 0.460938 0.437500
vt 0.476562 0.441406
vt 0.460938 0.398438
vt 0.476562 0.394531
vt 0.398438 0.371094
vt 0.406250 0.359375
vt 0.320312 0.371094
vt 0.312500 0.359375
vt 0.265625 0.398438
vt 0.242188 0.394531
vt 0.265625 0.437500
vt 0.242188 0.441406
vt 0.320312 0.468750
vt 0.312500 0.476562
vt 0.406250 0.476562
vt 0.937500 0.261719
vt 0.804688 0.234375
vt 0.804688 0.195312
vt 0.007812 0.445312
vt 0.031250 0.441406
vt 0.007812 0.394531
vt 0.039062 0.402344
vt 0.078125 0.359375
vt 0.101562 0.375000
vt 0.179688 0.359375
vt 0.171875 0.375000
vt 0.242188 0.398438
vt 0.218750 0.402344
vt 0.242188 0.445312
vt 0.218750 0.441406
vt 0.171875 0.484375
vt 0.640625 0.367188
vt 0.640625 0.359375
vt 0.710938 0.394531
vt 0.695312 0.398438
vt 0.710938 0.441406
vt 0.640625 0.468750
vt 0.695312 0.441406
vt 0.640625 0.476562
vt 0.546875 0.476562
vt 0.492188 0.441406
vt 0.554688 0.468750
vt 0.476562 0.441406
vt 0.476562 0.394531
vt 0.492188 0.398438
vt 0.546875 0.359375
vt 0.554688 0.367188
vt 0.242188 0.488281
vt 0.242188 0.476562
vt 0.281250 0.476562
vt 0.414062 0.492188
vt 0.328125 0.476562
vt 0.414062 0.476562
vt 0.500000 0.476562
vt 0.500000 0.492188
vt 0.578125 0.476562
vt 0.578125 0.492188
vt 0.664062 0.476562
vt 0.750000 0.492188
vt 0.664062 0.492188
vt 0.750000 0.476562
vt 0.835938 0.476562
vt 0.835938 0.492188
vt 0.921875 0.476562
vt 0.859375 0.402344
vt 0.867188 0.390625
vt 0.906250 0.410156
vt 0.882812 0.414062
vt 0.906250 0.437500
vt 0.882812 0.433594
vt 0.867188 0.457031
vt 0.820312 0.445312
vt 0.859375 0.445312
vt 0.812500 0.457031
vt 0.773438 0.437500
vt 0.796875 0.433594
vt 0.773438 0.410156
vt 0.796875 0.414062
vt 0.812500 0.390625
vt 0.820312 0.402344
vt 0.906250 0.300781
vt 0.937500 0.335938
vt 0.867188 0.351562
vt 0.281250 0.488281
vt 0.320312 0.476562
vt 0.351562 0.488281
vt 0.320312 0.488281
vt 0.351562 0.476562
vt 0.390625 0.476562
vt 0.429688 0.488281
vt 0.390625 0.488281
vt 0.429688 0.476562
vt 0.460938 0.476562
vt 0.500000 0.488281
vt 0.460938 0.488281
vt 0.539062 0.488281
vt 0.500000 0.476562
vt 0.781250 0.003906
vt 0.593750 0.003906
vt 0.992188 0.195312
vt 0.992188 0.234375
vt 0.937500 0.167969
vt 0.859375 0.167969
vt 0.859375 0.261719
vt 0.921875 0.492188
vt 0.835938 0.316406
vt 0.867188 0.300781
vt 0.835938 0.335938
vt 0.906250 0.351562
vt 0.937500 0.316406
vt 0.539062 0.476562
vn 0.5732 0.8001 0.1768
vn 0.5303 0.3314 0.7803
vn 0.1768 -0.3314 0.9268
vn -0.2803 -0.8001 0.5303
vn -0.5732 -0.8001 -0.1768
vn -0.5303 -0.3314 -0.7803
vn 0.2803 0.8001 -0.5303
vn -0.1768 0.3314 -0.9268
vn -0.8001 0.5000 0.3314
vn 0.8001 -0.5000 -0.3314
usemtl None
s 1
f 61/183/47 62/184/47 63/185/47
f 63/185/48 62/184/48 64/186/48
f 64/186/49 65/187/49 66/188/49
f 65/187/50 67/189/50 68/190/50
f 67/189/51 69/191/51 70/192/51
f 69/191/52 71/193/52 72/194/52
f 73/195/50 74/196/50 75/197/50
f 76/198/53 61/199/53 77/200/53
f 71/193/54 76/198/54 78/201/54
f 79/202/53 80/203/53 81/204/53
f 82/205/55 83/206/55 62/207/55
f 84/208/55 64/209/55 62/207/55
f 84/208/55 85/210/55 65/211/55
f 86/212/55 67/213/55 65/211/55
f 86/212/55 87/214/55 69/215/55
f 87/214/55 88/216/55 71/217/55
f 88/216/55 73/218/55 76/219/55
f 82/205/55 61/220/55 76/219/55
f 89/221/55 74/222/55 90/223/55
f 88/224/49 90/225/49 74/196/49
f 87/226/48 91/227/48 90/225/48
f 86/228/47 92/229/47 91/227/47
f 85/230/53 93/231/53 92/229/53
f 85/230/54 84/232/54 94/233/54
f 84/232/52 83/234/52 89/235/52
f 82/236/51 75/197/51 89/235/51
f 80/237/56 77/238/56 63/239/56
f 95/240/56 63/239/56 96/241/56
f 97/242/56 98/243/56 96/241/56
f 97/242/56 66/244/56 68/245/56
f 99/246/56 100/247/56 68/245/56
f 99/246/56 70/248/56 72/249/56
f 101/250/56 72/249/56 78/251/56
f 79/252/56 78/251/56 77/238/56
f 102/253/53 103/254/53 104/255/53
f 101/256/54 79/202/54 105/257/54
f 101/256/52 106/258/52 107/259/52
f 99/260/51 107/259/51 108/261/51
f 100/262/50 108/261/50 109/263/50
f 98/264/49 97/265/49 109/263/49
f 98/264/48 110/266/48 111/267/48
f 95/268/47 111/267/47 81/269/47
f 102/270/56 81/271/56 111/272/56
f 112/273/56 111/272/56 110/274/56
f 113/275/56 110/274/56 109/276/56
f 114/277/56 115/278/56 109/276/56
f 114/277/56 108/279/56 107/280/56
f 116/281/56 107/280/56 106/282/56
f 117/283/56 106/282/56 105/284/56
f 102/270/56 118/285/56 105/284/56
f 103/286/56 119/287/56 120/288/56
f 118/289/54 104/255/54 121/290/54
f 116/291/52 117/292/52 121/290/52
f 116/291/51 122/293/51 120/294/51
f 115/295/50 114/296/50 120/294/50
f 115/295/49 123/297/49 119/298/49
f 112/299/48 113/300/48 119/298/48
f 102/301/47 112/299/47 124/302/47
f 77/303/47 61/183/47 63/185/47
f 96/304/48 63/185/48 64/186/48
f 96/304/49 64/186/49 66/188/49
f 66/188/50 65/187/50 68/190/50
f 68/190/51 67/189/51 70/192/51
f 70/192/52 69/191/52 72/194/52
f 82/236/50 73/195/50 75/197/50
f 78/201/53 76/198/53 77/200/53
f 72/194/54 71/193/54 78/201/54
f 105/257/53 79/202/53 81/204/53
f 61/220/55 82/205/55 62/207/55
f 83/206/55 84/208/55 62/207/55
f 64/209/55 84/208/55 65/211/55
f 85/210/55 86/212/55 65/211/55
f 67/213/55 86/212/55 69/215/55
f 69/215/55 87/214/55 71/217/55
f 71/217/55 88/216/55 76/219/55
f 73/218/55 82/205/55 76/219/55
f 93/305/55 94/306/55 89/221/55
f 89/221/55 92/307/55 93/305/55
f 89/221/55 90/223/55 91/308/55
f 89/221/55 75/309/55 74/222/55
f 91/308/55 92/307/55 89/221/55
f 73/195/49 88/224/49 74/196/49
f 88/224/48 87/226/48 90/225/48
f 87/226/47 86/228/47 91/227/47
f 86/228/53 85/230/53 92/229/53
f 93/231/54 85/230/54 94/233/54
f 94/233/52 84/232/52 89/235/52
f 83/234/51 82/236/51 89/235/51
f 95/240/56 80/237/56 63/239/56
f 98/243/56 95/240/56 96/241/56
f 66/244/56 97/242/56 96/241/56
f 100/247/56 97/242/56 68/245/56
f 70/248/56 99/246/56 68/245/56
f 101/250/56 99/246/56 72/249/56
f 79/252/56 101/250/56 78/251/56
f 80/237/56 79/252/56 77/238/56
f 118/289/53 102/253/53 104/255/53
f 106/258/54 101/256/54 105/257/54
f 99/260/52 101/256/52 107/259/52
f 100/262/51 99/260/51 108/261/51
f 97/265/50 100/262/50 109/263/50
f 110/266/49 98/264/49 109/263/49
f 95/268/48 98/264/48 111/267/48
f 80/310/47 95/268/47 81/269/47
f 112/273/56 102/270/56 111/272/56
f 113/275/56 112/273/56 110/274/56
f 115/278/56 113/275/56 109/276/56
f 108/279/56 114/277/56 109/276/56
f 116/281/56 114/277/56 107/280/56
f 117/283/56 116/281/56 106/282/56
f 118/285/56 117/283/56 105/284/56
f 81/271/56 102/270/56 105/284/56
f 121/311/56 104/312/56 103/286/56
f 120/288/56 122/313/56 121/311/56
f 119/287/56 123/314/56 120/288/56
f 103/286/56 124/315/56 119/287/56
f 120/288/56 121/311/56 103/286/56
f 117/292/54 118/289/54 121/290/54
f 122/293/52 116/291/52 121/290/52
f 114/296/51 116/291/51 120/294/51
f 123/297/50 115/295/50 120/294/50
f 113/300/49 115/295/49 119/298/49
f 124/302/48 112/299/48 119/298/48
f 103/316/47 102/301/47 124/302/47
