# Blender v2.75 (sub 0) OBJ File: 'planetAnalyser.blend'
# www.blender.org
o Object
v -0.968750 0.000000 -0.500000
v -0.968750 0.000000 0.500000
v 0.031250 0.000000 -0.500000
v 0.031250 0.000000 0.500000
v -0.968750 1.000000 -0.500000
v -0.968750 1.000000 0.500000
v -0.825000 1.062500 -1.200000
v -0.825000 1.187500 -1.200000
v -0.425000 1.062500 -1.200000
v -0.425000 1.187500 -1.200000
v -0.825000 1.062500 -0.800000
v -0.825000 1.187500 -0.800000
v -0.425000 1.062500 -0.800000
v -0.425000 1.187500 -0.800000
v -0.785000 1.187500 -1.160000
v -0.785000 1.250000 -1.160000
v -0.465000 1.187500 -1.160000
v -0.465000 1.250000 -1.160000
v -0.785000 1.187500 -0.840000
v -0.785000 1.250000 -0.840000
v -0.465000 1.187500 -0.840000
v -0.465000 1.250000 -0.840000
v -0.262500 1.062500 -1.200000
v -0.262500 1.187500 -1.200000
v 0.137500 1.062500 -1.200000
v 0.137500 1.187500 -1.200000
v -0.262500 1.062500 -0.800000
v -0.262500 1.187500 -0.800000
v 0.137500 1.062500 -0.800000
v 0.137500 1.187500 -0.800000
v -0.222500 1.187500 -1.160000
v -0.222500 1.250000 -1.160000
v 0.097500 1.187500 -1.160000
v 0.097500 1.250000 -1.160000
v -0.222500 1.187500 -0.840000
v -0.222500 1.250000 -0.840000
v 0.097500 1.187500 -0.840000
v 0.097500 1.250000 -0.840000
v 0.437500 1.062500 -0.750000
v 0.437500 1.250000 -0.750000
v 0.687500 1.062500 -0.750000
v 0.687500 1.250000 -0.750000
v 0.437500 1.062500 1.000000
v 0.437500 1.250000 1.000000
v 0.687500 1.062500 1.000000
v 0.687500 1.250000 1.000000
v 0.437500 1.250000 1.250000
v 0.437500 1.062500 1.250000
v -0.500000 1.250000 1.000000
v -0.500000 1.062500 1.000000
v -0.500000 1.250000 1.250000
v -0.500000 1.062500 1.250000
v -0.687500 1.250000 1.000000
v -0.687500 1.062500 1.000000
v -0.687500 1.250000 1.250000
v -0.687500 1.062500 1.250000
v -0.500000 1.250000 0.500000
v -0.500000 1.062500 0.500000
v -0.687500 1.250000 0.500000
v -0.687500 1.062500 0.500000
v 0.437500 1.250000 0.125000
v 0.437500 1.250000 -0.125000
v 0.437500 1.062500 -0.125000
v 0.437500 1.062500 0.125000
v -0.062500 1.250000 0.125000
v -0.062500 1.250000 -0.125000
v -0.062500 1.062500 -0.125000
v -0.062500 1.062500 0.125000
v 0.812500 1.062500 -0.875000
v 0.812500 1.250000 -0.875000
v 0.312500 1.062500 -0.875000
v 0.312500 1.250000 -0.875000
v 0.312500 1.062500 -1.125000
v 0.312500 1.250000 -1.125000
v 0.437500 1.062500 -1.250000
v 0.437500 1.250000 -1.250000
v 0.687500 1.062500 -1.250000
v 0.687500 1.250000 -1.250000
v 0.812500 1.062500 -1.125000
v 0.812500 1.250000 -1.125000
v 0.980000 1.000000 1.470000
v -0.980000 1.000000 1.470000
v -0.980000 1.000000 -1.470000
v 0.980000 1.000000 -1.470000
v 0.980000 1.062500 1.470001
v -0.980001 1.062500 1.469999
v -0.980000 1.062500 -1.470001
v 0.980000 1.062500 -1.470000
vt 0.015873 0.023810
vt 0.269841 0.023810
vt 0.269841 0.404762
vt 0.000000 0.928571
vt 0.000000 0.880952
vt 0.095238 0.880952
vt 0.285714 0.928571
vt 0.285714 0.880952
vt 0.380952 0.880952
vt 0.190476 0.928571
vt 0.190476 0.880952
vt 0.095238 0.928571
vt 0.857143 0.785714
vt 0.761905 0.785714
vt 0.761905 0.642857
vt 0.000000 0.952381
vt 0.079365 0.928571
vt 0.222222 0.952381
vt 0.222222 0.928571
vt 0.301587 0.928571
vt 0.142857 0.952381
vt 0.142857 0.928571
vt 0.079365 0.952381
vt 0.412698 0.880952
vt 0.333333 0.880952
vt 0.333333 0.761905
vt 0.412698 0.761905
vt 0.190476 0.809524
vt 0.333333 0.809524
vt 0.888889 0.547619
vt 0.952381 0.214286
vt 0.952381 0.880952
vt 0.682540 0.833333
vt 0.444444 0.833333
vt 0.444444 0.738095
vt 0.761905 0.738095
vt 0.682540 0.738095
vt 0.682540 0.666667
vt 0.746032 0.738095
vt 0.682540 0.904762
vt 0.444444 0.904762
vt 0.444444 0.666667
vt 0.873016 0.142857
vt 0.873016 0.071429
vt 0.936508 0.071429
vt 0.809524 0.404762
vt 0.809524 0.214286
vt 0.857143 0.214286
vt 0.873016 0.214286
vt 0.936508 0.142857
vt 0.984127 0.142857
vt 0.873016 0.000000
vt 1.000000 0.000000
vt 1.000000 0.071429
vt 0.761905 0.404762
vt 0.761905 0.214286
vt 0.000000 0.738095
vt 0.000000 0.809524
vt 0.888889 0.404762
vt 0.888889 0.476190
vt 0.888889 0.214286
vt 0.888889 0.571429
vt 0.761905 0.571429
vt 0.761905 0.476190
vt 0.888889 0.642857
vt 0.841270 0.166667
vt 0.761905 0.119048
vt 0.793651 0.000000
vt 0.301587 0.809524
vt 0.301587 0.738095
vt 0.238095 0.809524
vt 0.238095 0.738095
vt 0.206349 0.809524
vt 0.206349 0.738095
vt 0.142857 0.809524
vt 0.142857 0.738095
vt 0.047619 0.809524
vt 0.095238 0.809524
vt 0.047619 0.738095
vt 0.095238 0.738095
vt 0.888889 0.880952
vt 0.000000 0.666667
vt 0.000000 0.000000
vt 0.761905 0.000000
vt 0.841270 0.952381
vt 0.380952 0.952381
vt 0.380952 0.928571
vt 0.682540 0.976190
vt 0.000000 0.976190
vt 0.380952 0.904762
vt 0.841270 0.904762
vt 0.682540 1.000000
vt 0.000000 1.000000
vt 0.015873 0.404762
vt 0.857143 0.642857
vt 0.301587 0.952381
vt 0.761905 0.666667
vt 0.857143 0.404762
vt 0.936508 0.214286
vt 0.984127 0.071429
vt 0.873016 0.047619
vt 0.873016 0.119048
vt 0.841270 0.000000
vt 0.761905 0.047619
vt 0.793651 0.166667
vt 0.333333 0.738095
vt 0.841270 0.928571
vt 0.682540 0.952381
vn 0.000000 -1.000000 0.000000
vn -1.000000 0.000000 0.000000
vn 0.000000 0.000000 -1.000000
vn 1.000000 0.000000 0.000000
vn 0.000000 0.000000 1.000000
vn 0.000000 1.000000 0.000000
vn 0.707100 0.000000 0.707100
vn -0.707100 0.000000 0.707100
vn -0.707100 0.000000 -0.707100
vn 0.707100 0.000000 -0.707100
s off
f 3/1/1 4/2/1 2/3/1
f 2/1/2 6/2/2 5/3/2
f 10/4/3 9/5/3 7/6/3
f 14/7/4 13/8/4 9/9/4
f 12/10/5 11/11/5 13/8/5
f 8/12/2 7/6/2 11/11/2
f 14/13/6 10/14/6 8/15/6
f 18/16/3 17/4/3 15/17/3
f 22/18/4 21/19/4 17/20/4
f 20/21/5 19/22/5 21/19/5
f 16/23/2 15/17/2 19/22/2
f 22/24/6 18/25/6 16/26/6
f 26/4/3 25/5/3 23/6/3
f 30/7/4 29/8/4 25/9/4
f 28/10/5 27/11/5 29/8/5
f 24/12/2 23/6/2 27/11/2
f 30/13/6 26/14/6 24/15/6
f 34/16/3 33/4/3 31/17/3
f 38/18/4 37/19/4 33/20/4
f 36/21/5 35/22/5 37/19/5
f 32/23/2 31/17/2 35/22/2
f 38/26/6 34/27/6 32/24/6
f 40/11/2 39/28/2 63/29/2
f 61/30/6 46/31/6 42/32/6
f 44/33/6 49/34/6 51/35/6
f 46/36/7 47/37/7 48/38/7
f 46/33/6 44/37/6 47/39/6
f 47/40/5 51/41/5 52/34/5
f 43/42/3 50/38/3 49/37/3
f 53/43/2 54/44/2 56/45/2
f 53/46/2 59/47/2 60/48/2
f 49/49/6 53/43/6 55/50/6
f 51/51/5 55/50/5 56/45/5
f 50/52/4 58/53/4 57/54/4
f 49/55/6 57/56/6 59/47/6
f 46/42/4 45/35/4 41/57/4
f 61/5/2 64/58/2 43/28/2
f 63/55/3 67/59/3 66/60/3
f 44/61/6 46/31/6 61/30/6
f 62/62/6 66/63/6 65/64/6
f 61/65/5 65/15/5 68/63/5
f 42/66/6 80/67/6 76/68/6
f 40/29/8 72/69/8 71/70/8
f 72/69/2 74/71/2 73/72/2
f 74/71/9 76/73/9 75/74/9
f 76/73/3 78/75/3 77/76/3
f 70/77/7 42/58/7 41/57/7
f 80/78/4 70/77/4 69/79/4
f 78/75/10 80/78/10 79/80/10
f 62/65/6 42/32/6 40/81/6
f 88/82/6 87/83/6 86/84/6
f 85/85/5 86/86/5 82/87/5
f 86/88/2 87/89/2 83/16/2
f 83/87/3 87/90/3 88/91/3
f 81/92/4 84/93/4 88/89/4
f 1/94/1 3/1/1 2/3/1
f 1/94/2 2/1/2 5/3/2
f 8/12/3 10/4/3 7/6/3
f 10/87/4 14/7/4 9/9/4
f 14/7/5 12/10/5 13/8/5
f 12/10/2 8/12/2 11/11/2
f 12/95/6 14/13/6 8/15/6
f 16/23/3 18/16/3 15/17/3
f 18/96/4 22/18/4 17/20/4
f 22/18/5 20/21/5 21/19/5
f 20/21/2 16/23/2 19/22/2
f 20/27/6 22/24/6 16/26/6
f 24/12/3 26/4/3 23/6/3
f 26/87/4 30/7/4 25/9/4
f 30/7/5 28/10/5 29/8/5
f 28/10/2 24/12/2 27/11/2
f 28/95/6 30/13/6 24/15/6
f 32/23/3 34/16/3 31/17/3
f 34/96/4 38/18/4 33/20/4
f 38/18/5 36/21/5 37/19/5
f 36/21/2 32/23/2 35/22/2
f 36/25/6 38/26/6 32/24/6
f 62/25/2 40/11/2 63/29/2
f 62/65/6 61/30/6 42/32/6
f 47/37/6 44/33/6 51/35/6
f 45/97/7 46/36/7 48/38/7
f 48/33/5 47/40/5 52/34/5
f 44/35/3 43/42/3 49/37/3
f 55/50/2 53/43/2 56/45/2
f 54/98/2 53/46/2 60/48/2
f 51/99/6 49/49/6 55/50/6
f 52/100/5 51/51/5 56/45/5
f 49/44/4 50/52/4 57/54/4
f 53/46/6 49/55/6 59/47/6
f 42/82/4 46/42/4 41/57/4
f 44/11/2 61/5/2 43/28/2
f 62/64/3 63/55/3 66/60/3
f 61/60/6 62/62/6 65/64/6
f 64/62/5 61/65/5 68/63/5
f 72/101/6 40/102/6 42/66/6
f 76/68/6 74/103/6 72/101/6
f 80/67/6 78/104/6 76/68/6
f 42/66/6 70/105/6 80/67/6
f 76/68/6 72/101/6 42/66/6
f 39/106/8 40/29/8 71/70/8
f 71/70/2 72/69/2 73/72/2
f 73/72/9 74/71/9 75/74/9
f 75/74/3 76/73/3 77/76/3
f 69/79/7 70/77/7 41/57/7
f 79/80/4 80/78/4 69/79/4
f 77/76/10 78/75/10 79/80/10
f 85/97/6 88/82/6 86/84/6
f 81/107/5 85/85/5 82/87/5
f 82/108/2 86/88/2 83/16/2
f 84/107/3 83/87/3 88/91/3
f 85/88/4 81/92/4 88/89/4
