# Blender v2.79 (sub 0) OBJ File: 'precision_laser_engraver.blend'
# www.blender.org
mtllib precision_laser_engraver.mtl
o Laser
v -1.250000 1.562500 -1.750000
v -1.250000 2.187500 -1.750000
v -0.875000 1.562500 -1.750000
v -0.875000 2.187500 -1.750000
v -1.250000 1.562500 -2.125000
v -1.250000 2.187500 -2.125000
v -0.875000 1.562500 -2.125000
v -0.875000 2.187500 -2.125000
vt 0.828125 0.515625
vt 0.750000 0.515625
vt 0.750000 0.609375
vt 0.828125 0.609375
vt 0.750000 0.515625
vt 0.828125 0.515625
vt 0.750000 0.609375
vt 0.750000 0.609375
vt 0.828125 0.609375
vt 0.828125 0.515625
vt 0.875000 0.515625
vt 0.828125 0.515625
vt 0.828125 0.609375
vt 0.875000 0.609375
vt 0.921875 0.609375
vt 0.921875 0.515625
vt 0.828125 0.609375
vt 0.750000 0.515625
vt 0.875000 0.609375
vt 0.875000 0.515625
vn 0.0000 0.0000 1.0000
vn 1.0000 0.0000 0.0000
vn 0.0000 0.0000 -1.0000
vn -1.0000 0.0000 0.0000
vn 0.0000 -1.0000 0.0000
vn 0.0000 1.0000 0.0000
usemtl None
s off
f 2/1/1 1/2/1 3/3/1
f 4/4/2 3/3/2 7/5/2
f 8/6/3 7/5/3 5/7/3
f 6/8/4 5/9/4 1/10/4
f 7/11/5 3/12/5 1/13/5
f 4/14/6 8/15/6 6/16/6
f 2/1/1 3/3/1 4/4/1
f 4/4/2 7/5/2 8/6/2
f 8/6/3 5/7/3 6/17/3
f 6/8/4 1/10/4 2/18/4
f 7/11/5 1/13/5 5/19/5
f 4/14/6 6/16/6 2/20/6
o Mount
v -0.687500 1.562500 -1.750000
v -0.687500 2.187500 -1.750000
v -0.312500 1.562500 -1.750000
v -0.312500 2.187500 -1.750000
v -0.687500 1.562500 -2.125000
v -0.687500 2.187500 -2.125000
v -0.312500 1.562500 -2.125000
v -0.312500 2.187500 -2.125000
v -2.312500 1.937500 -1.843750
v -2.312500 2.125000 -1.843750
v -0.687500 1.937500 -1.843750
v -0.687500 2.125000 -1.843750
v -2.312500 1.937500 -2.031250
v -2.312500 2.125000 -2.031250
v -0.687500 1.937500 -2.031250
v -0.687500 2.125000 -2.031250
v -2.312500 1.625000 -1.843750
v -2.312500 1.812500 -1.843750
v -0.687500 1.625000 -1.843750
v -0.687500 1.812500 -1.843750
v -2.312500 1.625000 -2.031250
v -2.312500 1.812500 -2.031250
v -0.687500 1.625000 -2.031250
v -0.687500 1.812500 -2.031250
v -2.687500 1.562500 -1.750000
v -2.687500 2.187500 -1.750000
v -2.312500 1.562500 -1.750000
v -2.312500 2.187500 -1.750000
v -2.687500 1.562500 -2.125000
v -2.687500 2.187500 -2.125000
v -2.312500 1.562500 -2.125000
v -2.312500 2.187500 -2.125000
vt 1.000000 0.515625
vt 0.921875 0.515625
vt 0.921875 0.609375
vt 1.000000 0.609375
vt 0.921875 0.515625
vt 1.000000 0.515625
vt 0.921875 0.609375
vt 0.921875 0.609375
vt 1.000000 0.609375
vt 1.000000 0.515625
vt 0.875000 0.515625
vt 0.875000 0.609375
vt 0.875000 0.609375
vt 0.921875 0.609375
vt 0.921875 0.515625
vt 0.796875 0.609375
vt 0.796875 0.656250
vt 1.000000 0.656250
vt 1.000000 0.000000
vt 0.000000 0.000000
vt 0.000000 1.000000
vt 1.000000 0.656250
vt 1.000000 0.609375
vt 0.796875 0.609375
vt 1.000000 0.000000
vt 0.000000 0.000000
vt 0.000000 1.000000
vt 1.000000 0.656250
vt 1.000000 0.609375
vt 0.796875 0.609375
vt 1.000000 0.609375
vt 0.796875 0.656250
vt 0.796875 0.609375
vt 0.796875 0.656250
vt 1.000000 0.656250
vt 1.000000 0.000000
vt 0.000000 0.000000
vt 0.000000 1.000000
vt 1.000000 0.656250
vt 1.000000 0.609375
vt 0.796875 0.609375
vt 1.000000 0.000000
vt 0.000000 0.000000
vt 0.000000 1.000000
vt 1.000000 0.656250
vt 1.000000 0.609375
vt 0.796875 0.609375
vt 1.000000 0.609375
vt 0.796875 0.656250
vt 0.921875 0.609375
vt 1.000000 0.609375
vt 1.000000 0.515625
vt 0.921875 0.609375
vt 1.000000 0.609375
vt 1.000000 0.515625
vt 0.921875 0.609375
vt 1.000000 0.609375
vt 1.000000 0.515625
vt 0.921875 0.515625
vt 0.921875 0.515625
vt 0.875000 0.515625
vt 0.875000 0.609375
vt 0.875000 0.609375
vt 1.000000 0.609375
vt 0.921875 0.515625
vt 0.875000 0.515625
vt 1.000000 1.000000
vt 1.000000 1.000000
vt 0.796875 0.656250
vt 1.000000 1.000000
vt 1.000000 1.000000
vt 0.796875 0.656250
vt 0.921875 0.515625
vt 0.921875 0.515625
vt 0.921875 0.609375
vt 0.875000 0.515625
vn 0.0000 0.0000 1.0000
vn 1.0000 0.0000 0.0000
vn 0.0000 0.0000 -1.0000
vn -1.0000 0.0000 0.0000
vn 0.0000 -1.0000 0.0000
vn 0.0000 1.0000 0.0000
usemtl None
s off
f 10/21/7 9/22/7 11/23/7
f 12/24/8 11/23/8 15/25/8
f 16/26/9 15/25/9 13/27/9
f 14/28/10 13/29/10 9/30/10
f 15/25/11 11/31/11 9/32/11
f 12/33/12 16/34/12 14/35/12
f 18/36/7 17/37/7 19/38/7
f 20/39/8 19/40/8 23/41/8
f 24/42/9 23/43/9 21/44/9
f 22/45/10 21/46/10 17/47/10
f 23/48/11 19/49/11 17/50/11
f 20/51/12 24/42/12 22/52/12
f 26/53/7 25/54/7 27/55/7
f 28/56/8 27/57/8 31/58/8
f 32/59/9 31/60/9 29/61/9
f 30/62/10 29/63/10 25/64/10
f 31/65/11 27/66/11 25/67/11
f 28/68/12 32/59/12 30/69/12
f 34/70/7 33/71/7 35/72/7
f 36/73/8 35/74/8 39/75/8
f 40/76/9 39/77/9 37/78/9
f 38/79/10 37/78/10 33/71/10
f 39/80/11 35/81/11 33/82/11
f 36/83/12 40/76/12 38/79/12
f 10/21/7 11/23/7 12/24/7
f 12/24/8 15/25/8 16/26/8
f 16/26/9 13/27/9 14/84/9
f 14/28/10 9/30/10 10/85/10
f 15/25/11 9/32/11 13/27/11
f 12/33/12 14/35/12 10/86/12
f 18/36/7 19/38/7 20/51/7
f 20/39/8 23/41/8 24/87/8
f 24/42/9 21/44/9 22/52/9
f 22/45/10 17/47/10 18/88/10
f 23/48/11 17/50/11 21/89/11
f 20/51/12 22/52/12 18/36/12
f 26/53/7 27/55/7 28/68/7
f 28/56/8 31/58/8 32/90/8
f 32/59/9 29/61/9 30/69/9
f 30/62/10 25/64/10 26/91/10
f 31/65/11 25/67/11 29/92/11
f 28/68/12 30/69/12 26/53/12
f 34/70/7 35/72/7 36/93/7
f 36/73/8 39/75/8 40/94/8
f 40/76/9 37/78/9 38/79/9
f 38/79/10 33/71/10 34/70/10
f 39/80/11 33/82/11 37/95/11
f 36/83/12 38/79/12 34/96/12
o Hull
v -3.000000 -0.000000 -0.000000
v -3.000000 0.250000 -0.000000
v -0.000000 -0.000000 0.000000
v -0.000000 0.250000 0.000000
v -3.000000 -0.000000 -3.000000
v -3.000000 0.250000 -3.000000
v 0.000000 -0.000000 -3.000000
v 0.000000 0.250000 -3.000000
v -2.750000 1.000000 -2.125000
v -2.750000 2.250000 -2.125000
v -0.250000 1.000000 -2.125000
v -0.250000 2.250000 -2.125000
v -2.750000 1.000000 -2.875000
v -2.750000 2.250000 -2.875000
v -0.250000 1.000000 -2.875000
v -0.250000 2.250000 -2.875000
v -0.875000 1.000000 -0.125000
v -0.875000 2.250000 -0.125000
v -0.125000 1.000000 -0.125000
v -0.125000 2.250000 -0.125000
v -0.875000 1.000000 -0.875000
v -0.875000 2.250000 -0.875000
v -0.125000 1.000000 -0.875000
v -0.125000 2.250000 -0.875000
v -3.000000 0.875000 -0.000000
v -3.000000 1.000000 -0.000000
v -0.000000 0.875000 0.000000
v -0.000000 1.000000 0.000000
v -3.000000 0.875000 -3.000000
v -3.000000 1.000000 -3.000000
v 0.000000 0.875000 -3.000000
v 0.000000 1.000000 -3.000000
v -2.937500 0.250000 -0.062500
v -2.937500 0.875000 -0.062500
v -0.062500 0.250000 -0.062500
v -0.062500 0.875000 -0.062500
v -2.937500 0.250000 -2.937500
v -2.937500 0.875000 -2.937500
v -0.062500 0.250000 -2.937500
v -0.062500 0.875000 -2.937500
v -0.593750 1.625000 -0.875000
v -0.593750 1.812500 -0.875000
v -0.406250 1.625000 -0.875000
v -0.406250 1.812500 -0.875000
v -0.593750 1.625000 -2.125000
v -0.593750 1.812500 -2.125000
v -0.406250 1.625000 -2.125000
v -0.406250 1.812500 -2.125000
v -0.187500 0.250000 -2.812500
v -0.187500 0.875000 -2.812500
v -0.000000 0.250000 -2.812500
v -0.000000 0.875000 -2.812500
v -0.187500 0.250000 -3.000000
v -0.187500 0.875000 -3.000000
v 0.000000 0.250000 -3.000000
v 0.000000 0.875000 -3.000000
v -0.062500 0.250000 -1.000000
v -0.062500 0.875000 -1.000000
v -0.000000 0.250000 -1.000000
v -0.000000 0.875000 -1.000000
v -0.062500 0.250000 -2.000000
v -0.062500 0.875000 -2.000000
v -0.000000 0.250000 -2.000000
v -0.000000 0.875000 -2.000000
v -3.000000 0.250000 -2.812500
v -3.000000 0.875000 -2.812500
v -2.812500 0.250000 -2.812500
v -2.812500 0.875000 -2.812500
v -3.000000 0.250000 -3.000000
v -3.000000 0.875000 -3.000000
v -2.812500 0.250000 -3.000000
v -2.812500 0.875000 -3.000000
v -0.187500 0.250000 0.000000
v -0.187500 0.875000 0.000000
v -0.000000 0.250000 0.000000
v -0.000000 0.875000 0.000000
v -0.187500 0.250000 -0.187500
v -0.187500 0.875000 -0.187500
v -0.000000 0.250000 -0.187500
v -0.000000 0.875000 -0.187500
v -3.000000 0.250000 -0.000000
v -3.000000 0.875000 -0.000000
v -2.812500 0.250000 -0.000000
v -2.812500 0.875000 -0.000000
v -3.000000 0.250000 -0.187500
v -3.000000 0.875000 -0.187500
v -2.812500 0.250000 -0.187500
v -2.812500 0.875000 -0.187500
v -0.687500 0.312500 -2.937500
v -0.687500 0.687500 -2.937500
v -0.312500 0.312500 -2.937500
v -0.312500 0.687500 -2.937500
v -0.687500 0.312500 -3.000000
v -0.687500 0.687500 -3.000000
v -0.312500 0.312500 -3.000000
v -0.312500 0.687500 -3.000000
v -1.687500 0.312500 -2.937500
v -1.687500 0.687500 -2.937500
v -1.312500 0.312500 -2.937500
v -1.312500 0.687500 -2.937500
v -1.687500 0.312500 -3.000000
v -1.687500 0.687500 -3.000000
v -1.312500 0.312500 -3.000000
v -1.312500 0.687500 -3.000000
v -2.312500 0.312500 -0.062500
v -2.312500 0.687500 -0.062500
v -2.687500 0.312500 -0.062500
v -2.687500 0.687500 -0.062500
v -2.312500 0.312500 0.000000
v -2.312500 0.687500 0.000000
v -2.687500 0.312500 0.000000
v -2.687500 0.687500 0.000000
v -1.312500 0.312500 -0.062500
v -1.312500 0.687500 -0.062500
v -1.687500 0.312500 -0.062500
v -1.687500 0.687500 -0.062500
v -1.312500 0.312500 0.000000
v -1.312500 0.687500 0.000000
v -1.687500 0.312500 0.000000
v -1.687500 0.687500 0.000000
v -2.875000 1.000000 -0.125000
v -2.875000 2.250000 -0.125000
v -2.125000 1.000000 -0.125000
v -2.125000 2.250000 -0.125000
v -2.875000 1.000000 -0.875000
v -2.875000 2.250000 -0.875000
v -2.125000 1.000000 -0.875000
v -2.125000 2.250000 -0.875000
v -0.593750 1.937500 -0.875000
v -0.593750 2.125000 -0.875000
v -0.406250 1.937500 -0.875000
v -0.406250 2.125000 -0.875000
v -0.593750 1.937500 -2.125000
v -0.593750 2.125000 -2.125000
v -0.406250 1.937500 -2.125000
v -0.406250 2.125000 -2.125000
v -2.593750 1.625000 -0.875000
v -2.593750 1.812500 -0.875000
v -2.406250 1.625000 -0.875000
v -2.406250 1.812500 -0.875000
v -2.593750 1.625000 -2.125000
v -2.593750 1.812500 -2.125000
v -2.406250 1.625000 -2.125000
v -2.406250 1.812500 -2.125000
v -2.593750 1.937500 -0.875000
v -2.593750 2.125000 -0.875000
v -2.406250 1.937500 -0.875000
v -2.406250 2.125000 -0.875000
v -2.593750 1.937500 -2.125000
v -2.593750 2.125000 -2.125000
v -2.406250 1.937500 -2.125000
v -2.406250 2.125000 -2.125000
v -2.000000 1.000000 -1.000000
v -2.000000 1.562500 -1.000000
v -1.000000 1.000000 -1.000000
v -1.000000 1.562500 -1.000000
v -2.000000 1.000000 -2.000000
v -2.000000 1.562500 -2.000000
v -1.000000 1.000000 -2.000000
v -1.000000 1.562500 -2.000000
vt 0.375000 0.250000
vt 0.375000 0.187500
vt 0.000000 0.187500
vt 0.375000 0.250000
vt 0.375000 0.187500
vt 0.000000 0.187500
vt 0.375000 0.250000
vt 0.375000 0.187500
vt 0.000000 0.187500
vt 0.375000 0.250000
vt 0.375000 0.187500
vt 0.000000 0.187500
vt -0.000000 1.000000
vt 0.375000 1.000000
vt 0.375000 0.250000
vt 0.000071 0.999929
vt 0.375000 1.000000
vt 0.468750 0.953125
vt 0.625000 0.953125
vt 0.625000 0.328125
vt 0.468750 0.812500
vt 0.468750 0.500000
vt 0.375000 0.500000
vt 0.468750 0.953125
vt 0.625000 0.953125
vt 0.625000 0.328125
vt 0.468750 0.812500
vt 0.468750 0.500000
vt 0.375000 0.500000
vt 0.625000 0.812500
vt 0.718750 0.812500
vt 0.718750 0.187500
vt 0.375000 0.812500
vt 0.375000 0.500000
vt 0.468750 0.500000
vt 0.468750 0.812500
vt 0.375000 0.500000
vt 0.468750 0.812500
vt 0.468750 0.500000
vt 0.375000 0.500000
vt 0.468750 0.812500
vt 0.468750 0.500000
vt 0.468750 1.000000
vt 0.375000 0.812500
vt 0.625000 0.968750
vt 0.625000 1.000000
vt 0.999900 0.999900
vt 0.625000 0.968750
vt 0.625000 1.000000
vt 1.000000 1.000000
vt 0.999900 0.999900
vt 1.000000 0.968750
vt 0.625000 0.968750
vt 0.999900 0.999900
vt 1.000000 0.968750
vt 0.625000 0.968750
vt 0.375000 0.250000
vt 0.000000 0.250000
vt 0.000071 0.999929
vt 0.375000 0.250000
vt 0.000000 0.250000
vt -0.000000 1.000000
vt 0.992188 0.968750
vt 0.992188 0.812500
vt 0.632812 0.812500
vt 0.992188 0.968750
vt 0.992188 0.812500
vt 0.632812 0.812500
vt 0.992188 0.968750
vt 0.992188 0.812500
vt 0.632812 0.812500
vt 0.992188 0.968750
vt 0.992188 0.812500
vt 0.632812 0.812500
vt 0.468750 1.000000
vt 0.468750 0.953125
vt 0.625000 0.953125
vt 0.625000 1.000000
vt 0.625000 0.953125
vt 0.468750 0.953125
vt 0.468750 1.000000
vt 0.625000 1.000000
vt 0.625000 0.953125
vt 0.648438 0.968750
vt 0.648438 0.812500
vt 0.625000 0.812500
vt 0.648438 0.968750
vt 0.648438 0.812500
vt 0.625000 0.812500
vt 0.648438 0.968750
vt 0.648438 0.812500
vt 0.625000 0.812500
vt 0.648438 0.968750
vt 0.648438 0.812500
vt 0.625000 0.812500
vt 1.000000 0.812500
vt 1.000000 0.656250
vt 0.992188 0.656250
vt 1.000000 0.812500
vt 1.000000 0.656250
vt 0.875000 0.656250
vt 0.882812 0.812500
vt 0.882812 0.656250
vt 0.875000 0.656250
vt 0.648438 0.968750
vt 0.648438 0.812500
vt 0.625000 0.812500
vt 0.648438 0.968750
vt 0.648438 0.812500
vt 0.625000 0.812500
vt 0.648438 0.968750
vt 0.648438 0.812500
vt 0.625000 0.812500
vt 0.648438 0.968750
vt 0.648438 0.812500
vt 0.625000 0.812500
vt 0.648438 0.968750
vt 0.648438 0.812500
vt 0.625000 0.812500
vt 0.648438 0.968750
vt 0.648438 0.812500
vt 0.625000 0.812500
vt 0.648438 0.968750
vt 0.648438 0.812500
vt 0.625000 0.812500
vt 0.648438 0.968750
vt 0.648438 0.812500
vt 0.625000 0.812500
vt 0.648438 0.968750
vt 0.648438 0.812500
vt 0.625000 0.812500
vt 0.648438 0.968750
vt 0.648438 0.812500
vt 0.625000 0.812500
vt 0.648438 0.968750
vt 0.648438 0.812500
vt 0.625000 0.812500
vt 0.648438 0.968750
vt 0.648438 0.812500
vt 0.625000 0.812500
vt 0.781250 0.812500
vt 0.781250 0.718750
vt 0.773438 0.718750
vt 0.781250 0.812500
vt 0.781250 0.718750
vt 0.734375 0.718750
vt 0.742188 0.812500
vt 0.742188 0.718750
vt 0.734375 0.718750
vt 0.781250 0.734375
vt 0.781250 0.796875
vt 0.734375 0.796875
vt 0.828125 0.812500
vt 0.828125 0.718750
vt 0.820312 0.718750
vt 0.828125 0.812500
vt 0.828125 0.718750
vt 0.781250 0.718750
vt 0.789062 0.812500
vt 0.789062 0.718750
vt 0.781250 0.718750
vt 0.828125 0.734375
vt 0.828125 0.796875
vt 0.781250 0.796875
vt 0.875000 0.812500
vt 0.875000 0.718750
vt 0.867188 0.718750
vt 0.875000 0.812500
vt 0.875000 0.718750
vt 0.828125 0.718750
vt 0.835938 0.812500
vt 0.835938 0.718750
vt 0.828125 0.718750
vt 0.875000 0.734375
vt 0.875000 0.796875
vt 0.828125 0.796875
vt 0.875000 0.812500
vt 0.875000 0.718750
vt 0.867188 0.718750
vt 0.875000 0.812500
vt 0.875000 0.718750
vt 0.828125 0.718750
vt 0.835938 0.812500
vt 0.835938 0.718750
vt 0.828125 0.718750
vt 0.875000 0.734375
vt 0.875000 0.796875
vt 0.828125 0.796875
vt 0.828125 0.812500
vt 0.375000 0.812500
vt 0.375000 0.500000
vt 0.468750 0.500000
vt 0.468750 0.812500
vt 0.375000 0.500000
vt 0.468750 0.812500
vt 0.468750 0.500000
vt 0.375000 0.500000
vt 0.468750 0.812500
vt 0.468750 0.500000
vt 0.468750 1.000000
vt 0.375000 0.812500
vt 0.468750 1.000000
vt 0.468750 0.953125
vt 0.625000 0.953125
vt 0.625000 1.000000
vt 0.625000 0.953125
vt 0.468750 0.953125
vt 0.468750 1.000000
vt 0.625000 1.000000
vt 0.625000 0.953125
vt 0.468750 1.000000
vt 0.468750 0.953125
vt 0.625000 0.953125
vt 0.625000 1.000000
vt 0.625000 0.953125
vt 0.468750 0.953125
vt 0.468750 1.000000
vt 0.625000 1.000000
vt 0.625000 0.953125
vt 0.468750 1.000000
vt 0.468750 0.953125
vt 0.625000 0.953125
vt 0.625000 1.000000
vt 0.625000 0.953125
vt 0.468750 0.953125
vt 0.468750 1.000000
vt 0.625000 1.000000
vt 0.625000 0.953125
vt 0.804688 0.515625
vt 0.875000 0.515625
vt 0.875000 0.265625
vt 0.804688 0.265625
vt 0.875000 0.515625
vt 0.804688 0.515625
vt 0.875000 0.265625
vt 0.804688 0.515625
vt 0.875000 0.515625
vt 0.875000 0.265625
vt 0.875000 0.515625
vt 1.000000 0.515625
vt 1.000000 0.265625
vt -0.000000 0.250000
vt -0.000000 0.250000
vt 0.000000 0.250000
vt -0.000000 0.250000
vt 0.000000 0.250000
vt 0.468750 0.328125
vt 0.375000 0.812500
vt 0.468750 0.328125
vt 0.375000 0.812500
vt 0.625000 0.187500
vt 0.375000 0.812500
vt 0.375000 1.000000
vt 1.000000 0.968750
vt 1.000000 0.968750
vt 0.625000 1.000000
vt 0.625000 1.000000
vt 0.375000 1.000000
vt 0.375000 1.000000
vt 0.632812 0.968750
vt 0.632812 0.968750
vt 0.632812 0.968750
vt 0.632812 0.968750
vt 0.468750 1.000000
vt 0.625000 1.000000
vt 0.468750 0.953125
vt 0.625000 0.968750
vt 0.625000 0.968750
vt 0.625000 0.968750
vt 0.625000 0.968750
vt 0.992188 0.812500
vt 0.875000 0.812500
vt 0.875000 0.812500
vt 0.625000 0.968750
vt 0.625000 0.968750
vt 0.625000 0.968750
vt 0.625000 0.968750
vt 0.625000 0.968750
vt 0.625000 0.968750
vt 0.625000 0.968750
vt 0.625000 0.968750
vt 0.625000 0.968750
vt 0.625000 0.968750
vt 0.625000 0.968750
vt 0.625000 0.968750
vt 0.773438 0.812500
vt 0.734375 0.812500
vt 0.734375 0.812500
vt 0.734375 0.734375
vt 0.820312 0.812500
vt 0.781250 0.812500
vt 0.781250 0.812500
vt 0.781250 0.734375
vt 0.867188 0.812500
vt 0.828125 0.812500
vt 0.828125 0.812500
vt 0.828125 0.734375
vt 0.867188 0.812500
vt 0.828125 0.812500
vt 0.828125 0.734375
vt 0.375000 0.812500
vt 0.375000 1.000000
vt 0.468750 1.000000
vt 0.625000 1.000000
vt 0.468750 0.953125
vt 0.468750 1.000000
vt 0.625000 1.000000
vt 0.468750 0.953125
vt 0.468750 1.000000
vt 0.625000 1.000000
vt 0.468750 0.953125
vt 0.804688 0.265625
vt 0.804688 0.265625
vt 0.875000 0.265625
vn -0.0000 0.0000 1.0000
vn 1.0000 0.0000 0.0000
vn 0.0000 0.0000 -1.0000
vn -1.0000 0.0000 -0.0000
vn 0.0000 -1.0000 0.0000
vn 0.0000 1.0000 0.0000
usemtl None
s off
f 42/97/13 41/98/13 43/99/13
f 44/100/14 43/101/14 47/102/14
f 48/103/15 47/104/15 45/105/15
f 46/106/16 45/107/16 41/108/16
f 47/109/17 43/110/17 41/111/17
f 44/112/18 48/113/18 46/106/18
f 50/114/13 49/115/13 51/116/13
f 52/117/14 51/118/14 55/119/14
f 56/120/15 55/121/15 53/122/15
f 54/123/16 53/124/16 49/125/16
f 52/126/18 56/127/18 54/128/18
f 58/129/13 57/130/13 59/131/13
f 60/132/14 59/131/14 63/133/14
f 64/134/15 63/135/15 61/136/15
f 62/137/16 61/138/16 57/130/16
f 60/139/18 64/134/18 62/140/18
f 66/141/13 65/142/13 67/143/13
f 68/144/14 67/145/14 71/146/14
f 72/147/15 71/148/15 69/149/15
f 70/150/16 69/151/16 65/152/16
f 71/153/17 67/154/17 65/155/17
f 68/156/18 72/157/18 70/158/18
f 74/159/13 73/160/13 75/161/13
f 76/162/14 75/163/14 79/164/14
f 80/165/15 79/166/15 77/167/15
f 78/168/16 77/169/16 73/170/16
f 84/171/14 83/172/14 87/173/14
f 86/174/16 85/175/16 81/176/16
f 87/173/17 83/172/17 81/177/17
f 84/171/18 88/178/18 86/179/18
f 90/180/13 89/181/13 91/182/13
f 92/183/14 91/184/14 95/185/14
f 96/186/15 95/187/15 93/188/15
f 94/189/16 93/190/16 89/191/16
f 98/192/13 97/193/13 99/194/13
f 100/195/14 99/196/14 103/197/14
f 104/198/15 103/199/15 101/200/15
f 106/201/13 105/202/13 107/203/13
f 108/204/14 107/205/14 111/206/14
f 112/207/15 111/208/15 109/209/15
f 110/210/16 109/211/16 105/212/16
f 114/213/13 113/214/13 115/215/13
f 116/216/14 115/217/14 119/218/14
f 120/219/15 119/220/15 117/221/15
f 118/222/16 117/223/16 113/224/16
f 122/225/13 121/226/13 123/227/13
f 124/228/14 123/229/14 127/230/14
f 128/231/15 127/232/15 125/233/15
f 126/234/16 125/235/16 121/236/16
f 132/237/14 131/238/14 135/239/14
f 136/240/15 135/241/15 133/242/15
f 134/243/16 133/244/16 129/245/16
f 135/246/17 131/238/17 129/245/17
f 132/237/18 136/247/18 134/248/18
f 140/249/14 139/250/14 143/251/14
f 144/252/15 143/253/15 141/254/15
f 142/255/16 141/256/16 137/257/16
f 143/258/17 139/250/17 137/257/17
f 140/249/18 144/259/18 142/260/18
f 148/261/16 147/262/16 151/263/16
f 152/264/13 151/265/13 149/266/13
f 150/267/14 149/268/14 145/269/14
f 151/270/17 147/262/17 145/269/17
f 148/261/18 152/271/18 150/272/18
f 156/273/16 155/274/16 159/275/16
f 160/276/13 159/277/13 157/278/13
f 158/279/14 157/280/14 153/281/14
f 159/282/17 155/274/17 153/281/17
f 160/283/18 158/284/18 154/285/18
f 162/286/13 161/287/13 163/288/13
f 164/289/14 163/288/14 167/290/14
f 168/291/15 167/292/15 165/293/15
f 166/294/16 165/295/16 161/287/16
f 164/296/18 168/291/18 166/297/18
f 172/298/14 171/299/14 175/300/14
f 174/301/16 173/302/16 169/303/16
f 175/300/17 171/299/17 169/304/17
f 172/298/18 176/305/18 174/306/18
f 180/307/14 179/308/14 183/309/14
f 182/310/16 181/311/16 177/312/16
f 183/309/17 179/308/17 177/313/17
f 180/307/18 184/314/18 182/315/18
f 188/316/14 187/317/14 191/318/14
f 190/319/16 189/320/16 185/321/16
f 191/318/17 187/317/17 185/322/17
f 188/316/18 192/323/18 190/324/18
f 194/325/13 193/326/13 195/327/13
f 196/328/14 195/327/14 199/329/14
f 200/330/15 199/329/15 197/331/15
f 198/332/16 197/333/16 193/334/16
f 196/335/18 200/336/18 198/337/18
f 42/97/13 43/99/13 44/338/13
f 44/100/14 47/102/14 48/339/14
f 48/103/15 45/105/15 46/340/15
f 46/106/16 41/108/16 42/341/16
f 47/109/17 41/111/17 45/342/17
f 44/112/18 46/106/18 42/341/18
f 50/114/13 51/116/13 52/343/13
f 52/117/14 55/119/14 56/344/14
f 56/120/15 53/122/15 54/345/15
f 54/123/16 49/125/16 50/346/16
f 52/126/18 54/128/18 50/347/18
f 58/129/13 59/131/13 60/132/13
f 60/132/14 63/133/14 64/348/14
f 64/134/15 61/136/15 62/140/15
f 62/137/16 57/130/16 58/129/16
f 60/139/18 62/140/18 58/349/18
f 66/141/13 67/143/13 68/350/13
f 68/144/14 71/146/14 72/351/14
f 72/147/15 69/149/15 70/352/15
f 70/150/16 65/152/16 66/353/16
f 71/153/17 65/155/17 69/354/17
f 68/156/18 70/158/18 66/355/18
f 74/159/13 75/161/13 76/356/13
f 76/162/14 79/164/14 80/357/14
f 80/165/15 77/167/15 78/358/15
f 78/168/16 73/170/16 74/359/16
f 84/171/14 87/173/14 88/178/14
f 86/174/16 81/176/16 82/360/16
f 87/173/17 81/177/17 85/361/17
f 84/171/18 86/179/18 82/362/18
f 90/180/13 91/182/13 92/363/13
f 92/183/14 95/185/14 96/364/14
f 96/186/15 93/188/15 94/365/15
f 94/189/16 89/191/16 90/366/16
f 98/192/13 99/194/13 100/367/13
f 100/195/14 103/197/14 104/368/14
f 104/198/15 101/200/15 102/369/15
f 106/201/13 107/203/13 108/370/13
f 108/204/14 111/206/14 112/371/14
f 112/207/15 109/209/15 110/372/15
f 110/210/16 105/212/16 106/373/16
f 114/213/13 115/215/13 116/374/13
f 116/216/14 119/218/14 120/375/14
f 120/219/15 117/221/15 118/376/15
f 118/222/16 113/224/16 114/377/16
f 122/225/13 123/227/13 124/378/13
f 124/228/14 127/230/14 128/379/14
f 128/231/15 125/233/15 126/380/15
f 126/234/16 121/236/16 122/381/16
f 132/237/14 135/239/14 136/382/14
f 136/240/15 133/242/15 134/383/15
f 134/243/16 129/245/16 130/384/16
f 135/246/17 129/245/17 133/385/17
f 132/237/18 134/248/18 130/384/18
f 140/249/14 143/251/14 144/386/14
f 144/252/15 141/254/15 142/387/15
f 142/255/16 137/257/16 138/388/16
f 143/258/17 137/257/17 141/389/17
f 140/249/18 142/260/18 138/388/18
f 148/261/16 151/263/16 152/390/16
f 152/264/13 149/266/13 150/391/13
f 150/267/14 145/269/14 146/392/14
f 151/270/17 145/269/17 149/393/17
f 148/261/18 150/272/18 146/392/18
f 156/273/16 159/275/16 160/394/16
f 160/276/13 157/278/13 158/395/13
f 158/279/14 153/281/14 154/285/14
f 159/282/17 153/281/17 157/396/17
f 160/283/18 154/285/18 156/273/18
f 162/286/13 163/288/13 164/289/13
f 164/289/14 167/290/14 168/397/14
f 168/291/15 165/293/15 166/297/15
f 166/294/16 161/287/16 162/286/16
f 164/296/18 166/297/18 162/398/18
f 172/298/14 175/300/14 176/305/14
f 174/301/16 169/303/16 170/399/16
f 175/300/17 169/304/17 173/400/17
f 172/298/18 174/306/18 170/401/18
f 180/307/14 183/309/14 184/314/14
f 182/310/16 177/312/16 178/402/16
f 183/309/17 177/313/17 181/403/17
f 180/307/18 182/315/18 178/404/18
f 188/316/14 191/318/14 192/323/14
f 190/319/16 185/321/16 186/405/16
f 191/318/17 185/322/17 189/406/17
f 188/316/18 190/324/18 186/407/18
f 194/325/13 195/327/13 196/328/13
f 196/328/14 199/329/14 200/330/14
f 200/330/15 197/331/15 198/408/15
f 198/332/16 193/334/16 194/409/16
f 196/335/18 198/337/18 194/410/18
