# Blender v2.75 (sub 0) OBJ File: 'cuttingBlade.blend'
# www.blender.org
o Chassis
v 0.315000 -0.375500 -0.500000
v 0.315000 0.125000 -0.062500
v 0.190000 -0.375500 -0.500000
v 0.190000 0.125000 -0.062500
v 0.315000 -0.375500 0.500000
v 0.315000 0.125000 0.062500
v 0.190000 -0.375500 0.500000
v 0.190000 0.125000 0.062500
v 0.190000 -0.500500 -0.500000
v 0.315000 -0.500500 -0.500000
v 0.190000 -0.500500 0.500000
v 0.315000 -0.500500 0.500000
v -0.310000 -0.375500 -0.500000
v -0.310000 0.125000 -0.062500
v -0.185000 -0.375500 -0.500000
v -0.185000 0.125000 -0.062500
v -0.310000 -0.375500 0.500000
v -0.310000 0.125000 0.062500
v -0.185000 -0.375500 0.500000
v -0.185000 0.125000 0.062500
v -0.185000 -0.500500 -0.500000
v -0.310000 -0.500500 -0.500000
v -0.185000 -0.500500 0.500000
v -0.310000 -0.500500 0.500000
v 0.500000 0.082500 0.000000
v -0.500000 0.082500 0.000000
v 0.500000 0.051250 0.054127
v -0.500000 0.051250 0.054127
v 0.500000 -0.011250 0.054127
v -0.500000 -0.011250 0.054127
v 0.500000 -0.042500 -0.000000
v -0.500000 -0.042500 -0.000000
v 0.500000 -0.011250 -0.054127
v -0.500000 -0.011250 -0.054127
v 0.500000 0.051250 -0.054127
v -0.500000 0.051250 -0.054127
vt 0.835938 0.031250
vt 0.820312 0.031250
vt 0.820312 0.234375
vt 0.664062 0.140625
vt 0.804688 0.140625
vt 0.742188 0.000000
vt 0.804688 0.031250
vt 0.804688 0.234375
vt 0.804688 0.203125
vt 0.664062 0.203125
vt 0.726562 0.343750
vt 0.664062 0.171875
vt 0.804688 0.171875
vt 0.804688 0.265625
vt 0.820312 0.265625
vt 0.820312 -0.000000
vt 0.804688 0.000000
vt 0.835938 -0.000000
vt 0.648438 0.203125
vt 0.640625 0.203125
vt 0.640625 0.000000
vt 0.632812 0.203125
vt 0.632812 0.000000
vt 0.625000 0.203125
vt 0.625000 0.000000
vt 0.617188 0.203125
vt 0.648438 -0.000000
vt 0.656250 0.015625
vt 0.648438 0.015625
vt 0.609375 0.203125
vt 0.609375 0.000000
vt 0.617188 0.000000
vt 0.656250 0.031250
vt 0.835938 0.234375
vt 0.726562 0.000000
vt 0.742188 0.343750
vt 0.648438 0.031250
vn 0.000000 0.658100 -0.752900
vn -1.000000 0.000000 0.000000
vn 0.000000 0.658100 0.752900
vn 1.000000 0.000000 0.000000
vn 0.000000 1.000000 0.000000
vn 0.000000 0.000000 1.000000
vn 0.000000 0.000000 -1.000000
vn 0.000000 0.866000 0.500000
vn -0.000000 -0.866000 0.500000
vn -0.000000 -0.866000 -0.500000
vn 0.000000 0.866000 -0.500000
s off
f 1/1/1 3/2/1 4/3/1
f 3/4/2 7/5/2 8/6/2
f 7/2/3 5/7/3 6/8/3
f 5/9/4 1/10/4 2/11/4
f 9/12/2 11/13/2 7/5/2
f 2/14/5 4/15/5 8/3/5
f 12/13/4 10/12/4 1/10/4
f 11/16/6 12/17/6 5/7/6
f 10/18/7 9/16/7 3/2/7
f 16/3/1 15/2/1 13/1/1
f 20/6/4 19/5/4 15/4/4
f 18/8/3 17/7/3 19/2/3
f 14/11/2 13/10/2 17/9/2
f 19/5/4 23/13/4 21/12/4
f 20/3/5 16/15/5 14/14/5
f 13/10/2 22/12/2 24/13/2
f 17/7/6 24/17/6 23/16/6
f 15/2/7 21/16/7 22/18/7
f 26/19/8 28/20/8 27/21/8
f 28/20/6 30/22/6 29/23/6
f 30/22/9 32/24/9 31/25/9
f 31/25/10 32/24/10 34/26/10
f 28/27/2 36/28/2 32/29/2
f 36/26/11 26/30/11 25/31/11
f 34/26/7 36/26/7 35/32/7
f 25/28/4 27/33/4 33/29/4
f 2/34/1 1/1/1 4/3/1
f 4/35/2 3/4/2 8/6/2
f 8/3/3 7/2/3 6/8/3
f 6/36/4 5/9/4 2/11/4
f 3/4/2 9/12/2 7/5/2
f 6/8/5 2/14/5 8/3/5
f 5/9/4 12/13/4 1/10/4
f 7/2/6 11/16/6 5/7/6
f 1/1/7 10/18/7 3/2/7
f 14/34/1 16/3/1 13/1/1
f 16/35/4 20/6/4 15/4/4
f 20/3/3 18/8/3 19/2/3
f 18/36/2 14/11/2 17/9/2
f 15/4/4 19/5/4 21/12/4
f 18/8/5 20/3/5 14/14/5
f 17/9/2 13/10/2 24/13/2
f 19/2/6 17/7/6 23/16/6
f 13/1/7 15/2/7 22/18/7
f 25/27/8 26/19/8 27/21/8
f 27/21/6 28/20/6 29/23/6
f 29/23/9 30/22/9 31/25/9
f 33/32/10 31/25/10 34/26/10
f 32/29/2 30/29/2 28/27/2
f 36/28/2 34/29/2 32/29/2
f 28/27/2 26/28/2 36/28/2
f 35/32/11 36/26/11 25/31/11
f 33/32/7 34/26/7 35/32/7
f 33/29/4 35/29/4 25/28/4
f 29/37/4 31/37/4 33/29/4
f 33/29/4 27/33/4 29/37/4
o Saw
v -0.011500 0.460000 0.000000
v -0.011500 0.471596 -0.183394
v -0.011500 0.424984 -0.176034
v -0.011500 0.365516 -0.349905
v -0.011500 0.325269 -0.325269
v -0.011500 0.203790 -0.463148
v -0.011500 0.176034 -0.424984
v -0.011500 0.011038 -0.505879
v -0.011500 -0.000000 -0.460000
v -0.011500 -0.183394 -0.471596
v -0.011500 -0.176034 -0.424985
v -0.011500 -0.349906 -0.365516
v -0.011500 -0.325269 -0.325269
v -0.011500 -0.463148 -0.203790
v -0.011500 -0.424985 -0.176034
v -0.011500 -0.505880 -0.011038
v -0.011500 -0.460000 0.000000
v -0.011500 -0.471596 0.183394
v -0.011500 -0.424985 0.176035
v -0.011500 -0.365516 0.349906
v -0.011500 -0.325269 0.325269
v -0.011500 -0.203790 0.463148
v -0.011500 -0.176034 0.424985
v -0.011500 -0.011038 0.505880
v -0.011500 0.000000 0.460000
v -0.011500 0.183394 0.471596
v -0.011500 0.176035 0.424984
v -0.011500 0.349906 0.365516
v -0.011500 0.325269 0.325269
v -0.011500 0.463148 0.203789
v -0.011500 0.424985 0.176034
v -0.011500 0.505879 0.011038
v 0.011500 0.460000 0.000000
v 0.011500 0.471596 -0.183394
v 0.011500 0.424984 -0.176034
v 0.011500 0.365516 -0.349905
v 0.011500 0.325269 -0.325269
v 0.011500 0.203790 -0.463148
v 0.011500 0.176034 -0.424984
v 0.011500 0.011038 -0.505879
v 0.011500 -0.000000 -0.460000
v 0.011500 -0.183394 -0.471596
v 0.011500 -0.176034 -0.424985
v 0.011500 -0.349906 -0.365516
v 0.011500 -0.325269 -0.325269
v 0.011500 -0.463148 -0.203790
v 0.011500 -0.424985 -0.176034
v 0.011500 -0.505880 -0.011038
v 0.011500 -0.460000 0.000000
v 0.011500 -0.471596 0.183394
v 0.011500 -0.424985 0.176035
v 0.011500 -0.365516 0.349906
v 0.011500 -0.325269 0.325269
v 0.011500 -0.203790 0.463148
v 0.011500 -0.176034 0.424985
v 0.011500 -0.011038 0.505880
v 0.011500 0.000000 0.460000
v 0.011500 0.183394 0.471596
v 0.011500 0.176035 0.424984
v 0.011500 0.349906 0.365516
v 0.011500 0.325269 0.325269
v 0.011500 0.463148 0.203789
v 0.011500 0.424985 0.176034
v 0.011500 0.505879 0.011038
vt 0.531250 0.546875
vt 0.531250 0.562500
vt 0.523438 0.562500
vt 0.531250 0.296875
vt 0.523438 0.296875
vt 0.531250 0.421875
vt 0.531250 0.437500
vt 0.523438 0.437500
vt 0.531250 0.531250
vt 0.523438 0.531250
vt 0.531250 0.265625
vt 0.531250 0.281250
vt 0.523438 0.281250
vt 0.531250 0.390625
vt 0.531250 0.406250
vt 0.523438 0.406250
vt 0.531250 0.500000
vt 0.531250 0.515625
vt 0.523438 0.515625
vt 0.531250 0.375000
vt 0.523438 0.390625
vt 0.531250 0.234375
vt 0.531250 0.250000
vt 0.523438 0.250000
vt 0.531250 0.484375
vt 0.523438 0.484375
vt 0.523438 0.343750
vt 0.531250 0.343750
vt 0.531250 0.359375
vt 0.531250 0.203125
vt 0.531250 0.218750
vt 0.523438 0.218750
vt 0.531250 0.453125
vt 0.531250 0.468750
vt 0.523438 0.468750
vt 0.523438 0.328125
vt 0.531250 0.328125
vt 0.531250 0.578125
vt 0.523438 0.578125
vt 0.531250 0.312500
vt 0.523438 0.312500
vt 0.523438 0.546875
vt 0.523438 0.421875
vt 0.523438 0.265625
vt 0.523438 0.500000
vt 0.523438 0.375000
vt 0.632812 0.718750
vt 0.546875 0.687500
vt 0.562500 0.515625
vt 0.609375 0.234375
vt 0.562500 0.250000
vt 0.585938 0.468750
vt 0.523438 0.234375
vt 0.523438 0.359375
vt 0.523438 0.203125
vt 0.523438 0.453125
vt 0.554688 0.500000
vt 0.585938 0.500000
vt 0.585938 0.484375
vt 0.609375 0.500000
vt 0.609375 0.484375
vt 0.632812 0.515625
vt 0.632812 0.500000
vt 0.648438 0.546875
vt 0.656250 0.546875
vt 0.656250 0.593750
vt 0.664062 0.593750
vt 0.656250 0.640625
vt 0.664062 0.640625
vt 0.648438 0.687500
vt 0.656250 0.687500
vt 0.632812 0.734375
vt 0.609375 0.734375
vt 0.609375 0.750000
vt 0.585938 0.734375
vt 0.585938 0.750000
vt 0.562500 0.718750
vt 0.554688 0.734375
vt 0.539062 0.687500
vt 0.539062 0.640625
vt 0.531250 0.640625
vt 0.539062 0.593750
vt 0.531250 0.593750
vt 0.546875 0.546875
vt 0.539062 0.546875
vt 0.609375 0.468750
vt 0.632812 0.468750
vt 0.632812 0.453125
vt 0.656250 0.421875
vt 0.648438 0.421875
vt 0.664062 0.375000
vt 0.656250 0.375000
vt 0.664062 0.328125
vt 0.656250 0.328125
vt 0.656250 0.281250
vt 0.648438 0.281250
vt 0.632812 0.234375
vt 0.632812 0.250000
vt 0.609375 0.218750
vt 0.585938 0.218750
vt 0.585938 0.234375
vt 0.554688 0.234375
vt 0.539062 0.281250
vt 0.546875 0.281250
vt 0.539062 0.328125
vt 0.539062 0.375000
vt 0.539062 0.421875
vt 0.546875 0.421875
vt 0.554688 0.468750
vt 0.562500 0.453125
vn 0.000000 0.987800 -0.156000
vn 0.000000 -0.522100 -0.852900
vn 0.000000 -0.897900 -0.440200
vn 0.000000 0.972300 0.233900
vn 0.000000 -0.156000 -0.987800
vn 0.000000 -0.661100 -0.750300
vn 0.000000 0.808700 0.588200
vn 0.000000 -0.323600 -0.946200
vn 0.000000 0.897900 0.440200
vn 0.000000 0.522100 0.852900
vn 0.000000 0.063100 -0.998000
vn 0.000000 0.661100 0.750300
vn 0.000000 0.156000 0.987800
vn 0.000000 0.440200 -0.897900
vn 0.000000 0.323600 0.946200
vn 0.000000 0.750300 -0.661100
vn 0.000000 -0.233900 0.972300
vn 0.000000 -0.063100 0.998000
vn 0.000000 0.946200 -0.323600
vn 0.000000 -0.588200 0.808700
vn 0.000000 -0.440200 0.897900
vn 0.000000 0.998000 0.063100
vn 0.000000 -0.852900 0.522100
vn 0.000000 0.233900 -0.972300
vn 0.000000 -0.750300 0.661100
vn 0.000000 -0.987800 0.156000
vn 0.000000 0.588200 -0.808700
vn 0.000000 -0.946200 0.323600
vn 0.000000 -0.972300 -0.233900
vn 0.000000 0.852900 -0.522100
vn 0.000000 -0.998000 -0.063100
vn 0.000000 -0.808700 -0.588200
vn 1.000000 -0.000000 0.000000
vn -1.000000 0.000000 -0.000000
s off
f 94/38/12 95/39/12 63/40/12
f 72/41/13 73/41/13 41/42/13
f 83/43/14 84/44/14 52/45/14
f 92/46/15 93/46/15 61/47/15
f 70/48/16 71/49/16 39/50/16
f 81/51/17 82/52/17 50/53/17
f 90/54/18 91/55/18 59/56/18
f 79/57/19 80/51/19 48/58/19
f 99/59/20 100/60/20 68/61/20
f 88/62/21 89/62/21 57/63/21
f 45/64/22 77/65/22 78/66/22
f 97/67/23 98/68/23 66/69/23
f 86/70/24 87/71/24 55/72/24
f 43/73/25 75/74/25 76/65/25
f 95/39/26 96/75/26 64/76/26
f 73/41/27 74/77/27 42/78/27
f 84/44/28 85/44/28 53/45/28
f 93/46/29 94/38/29 62/79/29
f 39/50/30 71/49/30 72/41/30
f 82/52/31 83/43/31 51/80/31
f 91/55/32 92/46/32 60/47/32
f 69/60/33 70/48/33 38/81/33
f 80/51/34 81/51/34 49/58/34
f 100/60/35 69/60/35 37/61/35
f 89/62/36 90/54/36 58/82/36
f 78/66/37 79/57/37 47/83/37
f 66/69/38 98/68/38 99/59/38
f 87/71/39 88/62/39 56/63/39
f 44/64/40 76/65/40 77/65/40
f 96/75/41 97/75/41 65/76/41
f 53/45/42 85/44/42 86/70/42
f 74/77/43 75/74/43 43/73/43
f 89/84/44 81/85/44 73/86/44
f 51/87/45 55/88/45 67/89/45
f 62/79/12 94/38/12 63/40/12
f 40/42/13 72/41/13 41/42/13
f 51/80/14 83/43/14 52/45/14
f 60/47/15 92/46/15 61/47/15
f 38/81/16 70/48/16 39/50/16
f 49/58/17 81/51/17 50/53/17
f 58/82/18 90/54/18 59/56/18
f 47/83/19 79/57/19 48/58/19
f 67/90/20 99/59/20 68/61/20
f 56/63/21 88/62/21 57/63/21
f 46/91/22 45/64/22 78/66/22
f 65/92/23 97/67/23 66/69/23
f 54/93/24 86/70/24 55/72/24
f 44/64/25 43/73/25 76/65/25
f 63/40/26 95/39/26 64/76/26
f 41/42/27 73/41/27 42/78/27
f 52/45/28 84/44/28 53/45/28
f 61/47/29 93/46/29 62/79/29
f 40/42/30 39/50/30 72/41/30
f 50/53/31 82/52/31 51/80/31
f 59/56/32 91/55/32 60/47/32
f 37/61/33 69/60/33 38/81/33
f 48/58/34 80/51/34 49/58/34
f 68/61/35 100/60/35 37/61/35
f 57/63/36 89/62/36 58/82/36
f 46/91/37 78/66/37 47/83/37
f 67/90/38 66/69/38 99/59/38
f 55/72/39 87/71/39 56/63/39
f 45/64/40 44/64/40 77/65/40
f 64/76/41 96/75/41 65/76/41
f 54/93/42 53/45/42 86/70/42
f 42/78/43 74/77/43 43/73/43
f 73/86/44 72/94/44 71/95/44
f 71/95/44 70/96/44 69/97/44
f 69/97/44 100/98/44 99/99/44
f 99/99/44 98/100/44 97/101/44
f 97/101/44 96/102/44 95/103/44
f 95/103/44 94/104/44 93/105/44
f 93/105/44 92/106/44 91/107/44
f 91/107/44 90/108/44 89/84/44
f 89/84/44 88/109/44 87/110/44
f 87/110/44 86/111/44 85/112/44
f 85/112/44 84/113/44 83/114/44
f 83/114/44 82/115/44 81/85/44
f 81/85/44 80/116/44 79/117/44
f 79/117/44 78/118/44 77/119/44
f 77/119/44 76/120/44 75/121/44
f 75/121/44 74/122/44 73/86/44
f 73/86/44 71/95/44 69/97/44
f 69/97/44 99/99/44 97/101/44
f 97/101/44 95/103/44 93/105/44
f 93/105/44 91/107/44 89/84/44
f 89/84/44 87/110/44 85/112/44
f 85/112/44 83/114/44 81/85/44
f 73/86/44 79/117/44 77/119/44
f 77/119/44 75/121/44 73/86/44
f 73/86/44 69/97/44 97/101/44
f 73/86/44 93/105/44 89/84/44
f 89/84/44 85/112/44 81/85/44
f 81/85/44 79/117/44 73/86/44
f 73/86/44 97/101/44 93/105/44
f 67/89/45 68/98/45 37/123/45
f 37/123/45 38/124/45 39/125/45
f 39/125/45 40/126/45 41/127/45
f 41/127/45 42/128/45 43/129/45
f 43/129/45 44/130/45 45/131/45
f 45/131/45 46/132/45 47/133/45
f 47/133/45 48/134/45 49/135/45
f 49/135/45 50/136/45 51/87/45
f 51/87/45 52/137/45 53/138/45
f 53/138/45 54/139/45 55/88/45
f 55/88/45 56/140/45 57/141/45
f 57/141/45 58/74/45 59/142/45
f 59/142/45 60/57/45 61/143/45
f 61/143/45 62/144/45 63/145/45
f 63/145/45 64/146/45 65/147/45
f 65/147/45 66/96/45 67/89/45
f 43/129/45 37/123/45 39/125/45
f 39/125/45 41/127/45 43/129/45
f 43/129/45 45/131/45 47/133/45
f 47/133/45 49/135/45 51/87/45
f 51/87/45 53/138/45 55/88/45
f 55/88/45 57/141/45 59/142/45
f 67/89/45 61/143/45 63/145/45
f 63/145/45 65/147/45 67/89/45
f 67/89/45 37/123/45 43/129/45
f 67/89/45 47/133/45 51/87/45
f 67/89/45 55/88/45 59/142/45
f 59/142/45 61/143/45 67/89/45
f 67/89/45 43/129/45 47/133/45
