# Blender v2.93.6 OBJ File: 'solar_array.blend'
# www.blender.org
mtllib solar_array.mtl
o solararray
v 0.000000 -0.000000 1.000000
v 0.000000 0.250000 1.000000
v 0.000000 0.250000 -2.000000
v 0.000000 0.000000 -2.000000
v 1.000000 0.250000 -2.000000
v 1.000000 0.000000 -2.000000
v 1.000000 0.250000 1.000000
v 1.000000 -0.000000 1.000000
v 0.000000 0.250000 -1.812500
v 0.000000 0.875000 -1.812500
v 0.000000 0.875000 -2.000000
v 0.000000 0.250000 -2.000000
v 0.187500 0.875000 -2.000000
v 0.187500 0.250000 -2.000000
v 0.187500 0.875000 -1.812500
v 0.187500 0.250000 -1.812500
v 0.812500 0.250000 -1.812500
v 0.812500 0.875000 -1.812500
v 0.812500 0.875000 -2.000000
v 0.812500 0.250000 -2.000000
v 1.000000 0.875000 -2.000000
v 1.000000 0.250000 -2.000000
v 1.000000 0.875000 -1.812500
v 1.000000 0.250000 -1.812500
v 0.812500 0.250000 1.000000
v 0.812500 0.875000 1.000000
v 0.812500 0.875000 0.812500
v 0.812500 0.250000 0.812500
v 1.000000 0.875000 0.812500
v 1.000000 0.250000 0.812500
v 1.000000 0.875000 1.000000
v 1.000000 0.250000 1.000000
v 0.000000 0.250000 1.000000
v 0.000000 0.875000 1.000000
v 0.000000 0.875000 0.812500
v 0.000000 0.250000 0.812500
v 0.187500 0.875000 0.812500
v 0.187500 0.250000 0.812500
v 0.187500 0.875000 1.000000
v 0.187500 0.250000 1.000000
v 0.000000 -0.000000 1.000000
v 0.000000 0.250000 1.000000
v 0.000000 0.250000 -2.000000
v 0.000000 0.000000 -2.000000
v 1.000000 0.250000 -2.000000
v 1.000000 0.000000 -2.000000
v 1.000000 0.250000 1.000000
v 1.000000 -0.000000 1.000000
v 0.062500 0.250000 0.937500
v 0.062500 0.875000 0.937500
v 0.062500 0.875000 -1.937500
v 0.062500 0.250000 -1.937500
v 0.937500 0.875000 -1.937500
v 0.937500 0.250000 -1.937500
v 0.937500 0.875000 0.937500
v 0.937500 0.250000 0.937500
v 0.000000 0.875000 1.000000
v 0.000000 1.000000 1.000000
v 0.000000 1.000000 -2.000000
v 0.000000 0.875000 -2.000000
v 1.000000 1.000000 -2.000000
v 1.000000 0.875000 -2.000000
v 1.000000 1.000000 1.000000
v 1.000000 0.875000 1.000000
v 0.937500 0.250000 -1.000000
v 0.937500 0.875000 -1.000000
v 1.000000 0.875000 -1.000000
v 1.000000 0.250000 -1.000000
v 1.000000 0.875000 0.000000
v 1.000000 0.250000 0.000000
v 0.937500 0.875000 0.000000
v 0.937500 0.250000 0.000000
v 0.937500 0.312500 -1.687500
v 0.937500 0.687500 -1.687500
v 1.000000 0.687500 -1.687500
v 1.000000 0.312500 -1.687500
v 1.000000 0.687500 -1.312500
v 1.000000 0.312500 -1.312500
v 0.937500 0.687500 -1.312500
v 0.937500 0.312500 -1.312500
v 0.937500 0.312500 0.312500
v 0.937500 0.687500 0.312500
v 1.000000 0.687500 0.312500
v 1.000000 0.312500 0.312500
v 1.000000 0.687500 0.687500
v 1.000000 0.312500 0.687500
v 0.937500 0.687500 0.687500
v 0.937500 0.312500 0.687500
vt 0.000000 0.000000
vt 0.000000 0.000000
vt 0.000000 0.000000
vt 0.000000 0.000000
vt 0.000000 0.000000
vt 0.000000 0.000000
vt 0.000000 0.000000
vt 0.000000 0.000000
vt 1.000000 0.937500
vt 0.976562 0.625000
vt 1.000000 0.625000
vt 1.000000 0.937500
vt 0.976562 0.625000
vt 1.000000 0.625000
vt 1.000000 0.937500
vt 0.976562 0.625000
vt 1.000000 0.625000
vt 0.976562 0.937500
vt 1.000000 0.937500
vt 0.976562 0.625000
vt 1.000000 0.625000
vt 1.000000 0.937500
vt 0.976562 0.625000
vt 1.000000 0.625000
vt 1.000000 0.937500
vt 0.976562 0.625000
vt 1.000000 0.625000
vt 0.976562 0.937500
vt 1.000000 0.937500
vt 0.976562 0.625000
vt 1.000000 0.625000
vt 1.000000 0.937500
vt 0.976562 0.625000
vt 1.000000 0.625000
vt 1.000000 0.937500
vt 0.976562 0.625000
vt 1.000000 0.625000
vt 0.976562 0.937500
vt 1.000000 0.937500
vt 0.976562 0.625000
vt 1.000000 0.625000
vt 1.000000 0.937500
vt 0.976562 0.625000
vt 1.000000 0.625000
vt 1.000000 0.937500
vt 0.976562 0.625000
vt 1.000000 0.625000
vt 0.976562 0.937500
vt 1.000000 0.625000
vt 0.625000 0.500000
vt 1.000000 0.500000
vt 0.625000 0.625000
vt 0.500000 0.500000
vt 1.000000 0.625000
vt 0.625000 0.500000
vt 1.000000 0.500000
vt 0.625000 0.625000
vt 0.500000 0.500000
vt 0.625000 0.000000
vt 1.000000 0.000000
vt 1.000000 0.500000
vt 0.625000 0.000000
vt 1.000000 0.000000
vt 0.632812 0.937500
vt 0.992188 0.625000
vt 0.632812 0.625000
vt 0.992188 0.937500
vt 0.882812 0.625000
vt 0.992188 0.937500
vt 0.632812 0.625000
vt 0.992188 0.625000
vt 0.992188 0.937500
vt 0.882812 0.625000
vt 0.992188 0.625000
vt 0.625000 0.937500
vt 1.000000 1.000000
vt 0.625000 1.000000
vt 0.875000 0.937500
vt 1.000000 1.000000
vt 0.875000 1.000000
vt 1.000000 1.000000
vt 0.625000 0.937500
vt 1.000000 0.937500
vt 1.000000 1.000000
vt 0.875000 0.937500
vt 1.000000 0.937500
vt 1.000000 0.500000
vt 0.625000 0.000000
vt 1.000000 0.000000
vt 1.000000 0.500000
vt 0.625000 0.000000
vt 1.000000 0.000000
vt 0.625000 0.937500
vt 0.617188 0.625000
vt 0.625000 0.625000
vt 0.625000 0.937500
vt 0.500000 0.625000
vt 0.625000 0.625000
vt 0.523438 0.937500
vt 0.515625 0.625000
vt 0.523438 0.625000
vt 0.492188 0.750000
vt 0.500000 0.937500
vt 0.492188 0.937500
vt 0.500000 0.937500
vt 0.453125 0.750000
vt 0.500000 0.750000
vt 0.460938 0.937500
vt 0.453125 0.750000
vt 0.460938 0.750000
vt 0.500000 0.781250
vt 0.500000 0.750000
vt 0.500000 0.937500
vt 0.453125 0.906250
vt 0.500000 0.906250
vt 0.492188 0.750000
vt 0.500000 0.937500
vt 0.492188 0.937500
vt 0.500000 0.937500
vt 0.453125 0.750000
vt 0.500000 0.750000
vt 0.460938 0.937500
vt 0.453125 0.750000
vt 0.460938 0.750000
vt 0.500000 0.781250
vt 0.500000 0.750000
vt 0.500000 0.937500
vt 0.453125 0.906250
vt 0.500000 0.906250
vt 0.976562 0.937500
vt 0.976562 0.937500
vt 0.976562 0.937500
vt 0.976562 0.937500
vt 0.976562 0.937500
vt 0.976562 0.937500
vt 0.976562 0.937500
vt 0.976562 0.937500
vt 0.500000 0.625000
vt 0.500000 0.625000
vt 0.625000 0.500000
vt 0.882812 0.937500
vt 0.632812 0.937500
vt 0.882812 0.937500
vt 1.000000 0.937500
vt 1.000000 0.937500
vt 0.625000 1.000000
vt 0.875000 1.000000
vt 0.625000 0.500000
vt 0.625000 0.500000
vt 0.617188 0.937500
vt 0.500000 0.937500
vt 0.515625 0.937500
vt 0.500000 0.750000
vt 0.453125 0.937500
vt 0.453125 0.937500
vt 0.453125 0.781250
vt 0.500000 0.750000
vt 0.453125 0.937500
vt 0.453125 0.937500
vt 0.453125 0.781250
vn -1.0000 0.0000 0.0000
vn 0.0000 0.0000 -1.0000
vn 1.0000 0.0000 0.0000
vn 0.0000 0.0000 1.0000
vn 0.0000 -1.0000 -0.0000
vn 0.0000 1.0000 0.0000
usemtl None
s 1
f 2/1/1 4/2/1 1/3/1
f 3/4/2 6/5/2 4/2/2
f 5/6/3 8/7/3 6/5/3
f 7/8/4 1/3/4 8/7/4
f 6/5/5 1/3/5 4/2/5
f 3/4/6 7/8/6 5/6/6
f 10/9/1 12/10/1 9/11/1
f 11/12/2 14/13/2 12/14/2
f 13/15/3 16/16/3 14/17/3
f 15/18/4 9/11/4 16/16/4
f 18/19/1 20/20/1 17/21/1
f 19/22/2 22/23/2 20/24/2
f 21/25/3 24/26/3 22/27/3
f 23/28/4 17/21/4 24/26/4
f 26/29/1 28/30/1 25/31/1
f 27/32/2 30/33/2 28/34/2
f 29/35/3 32/36/3 30/37/3
f 31/38/4 25/31/4 32/36/4
f 34/39/1 36/40/1 33/41/1
f 35/42/2 38/43/2 36/44/2
f 37/45/3 40/46/3 38/47/3
f 39/48/4 33/41/4 40/46/4
f 42/49/1 44/50/1 41/51/1
f 43/52/2 46/53/2 44/50/2
f 45/54/3 48/55/3 46/56/3
f 47/57/4 41/58/4 48/55/4
f 46/56/5 41/59/5 44/60/5
f 43/61/6 47/62/6 45/63/6
f 50/64/1 52/65/1 49/66/1
f 51/67/2 54/68/2 52/65/2
f 53/69/3 56/70/3 54/71/3
f 55/72/4 49/73/4 56/74/4
f 58/75/1 60/76/1 57/77/1
f 59/78/2 62/79/2 60/80/2
f 61/81/3 64/82/3 62/83/3
f 63/84/4 57/85/4 64/86/4
f 62/87/5 57/88/5 60/89/5
f 59/90/6 63/91/6 61/92/6
f 66/93/2 68/94/2 65/95/2
f 67/96/3 70/97/3 68/98/3
f 69/99/4 72/100/4 70/101/4
f 74/102/2 76/103/2 73/104/2
f 75/105/3 78/106/3 76/107/3
f 77/108/4 80/109/4 78/110/4
f 76/111/5 80/109/5 73/112/5
f 74/113/6 77/114/6 75/115/6
f 82/116/2 84/117/2 81/118/2
f 83/119/3 86/120/3 84/121/3
f 85/122/4 88/123/4 86/124/4
f 84/125/5 88/123/5 81/126/5
f 82/127/6 85/128/6 83/129/6
f 2/1/1 3/4/1 4/2/1
f 3/4/2 5/6/2 6/5/2
f 5/6/3 7/8/3 8/7/3
f 7/8/4 2/1/4 1/3/4
f 6/5/5 8/7/5 1/3/5
f 3/4/6 2/1/6 7/8/6
f 10/9/1 11/130/1 12/10/1
f 11/12/2 13/131/2 14/13/2
f 13/15/3 15/18/3 16/16/3
f 15/18/4 10/9/4 9/11/4
f 18/19/1 19/132/1 20/20/1
f 19/22/2 21/133/2 22/23/2
f 21/25/3 23/28/3 24/26/3
f 23/28/4 18/19/4 17/21/4
f 26/29/1 27/134/1 28/30/1
f 27/32/2 29/135/2 30/33/2
f 29/35/3 31/38/3 32/36/3
f 31/38/4 26/29/4 25/31/4
f 34/39/1 35/136/1 36/40/1
f 35/42/2 37/137/2 38/43/2
f 37/45/3 39/48/3 40/46/3
f 39/48/4 34/39/4 33/41/4
f 42/49/1 43/52/1 44/50/1
f 43/52/2 45/138/2 46/53/2
f 45/54/3 47/57/3 48/55/3
f 47/57/4 42/139/4 41/58/4
f 46/56/5 48/55/5 41/59/5
f 43/61/6 42/140/6 47/62/6
f 50/64/1 51/67/1 52/65/1
f 51/67/2 53/141/2 54/68/2
f 53/69/3 55/142/3 56/70/3
f 55/72/4 50/143/4 49/73/4
f 58/75/1 59/144/1 60/76/1
f 59/78/2 61/145/2 62/79/2
f 61/81/3 63/146/3 64/82/3
f 63/84/4 58/147/4 57/85/4
f 62/87/5 64/148/5 57/88/5
f 59/90/6 58/149/6 63/91/6
f 66/93/2 67/150/2 68/94/2
f 67/96/3 69/151/3 70/97/3
f 69/99/4 71/152/4 72/100/4
f 74/102/2 75/153/2 76/103/2
f 75/105/3 77/154/3 78/106/3
f 77/108/4 79/155/4 80/109/4
f 76/111/5 78/156/5 80/109/5
f 74/113/6 79/155/6 77/114/6
f 82/116/2 83/157/2 84/117/2
f 83/119/3 85/158/3 86/120/3
f 85/122/4 87/159/4 88/123/4
f 84/125/5 86/160/5 88/123/5
f 82/127/6 87/159/6 85/128/6
