# Blender v2.77 (sub 0) OBJ File: 'tank.blend'
# www.blender.org
mtllib tank.mtl
o Cylinder4
v 0.937500 0.000000 0.875000
v 0.937500 1.000000 0.875000
v 0.981694 0.000000 0.893306
v 0.981694 1.000000 0.893306
v 1.000000 0.000000 0.937500
v 1.000000 1.000000 0.937500
v 0.981694 0.000000 0.981694
v 0.981694 1.000000 0.981694
v 0.937500 0.000000 1.000000
v 0.937500 1.000000 1.000000
v 0.893306 0.000000 0.981694
v 0.893306 1.000000 0.981694
v 0.875000 0.000000 0.937500
v 0.875000 1.000000 0.937500
v 0.893306 0.000000 0.893306
v 0.893306 1.000000 0.893306
vt 0.8959 0.2445
vt 0.8863 0.0445
vt 0.8959 0.0445
vt 0.8863 0.2445
vt 0.8767 0.0445
vt 0.8767 0.2445
vt 0.8672 0.0445
vt 0.8672 0.2445
vt 0.8576 0.0445
vt 0.9341 0.2445
vt 0.9245 0.0445
vt 0.9341 0.0445
vt 0.9245 0.2445
vt 0.9150 0.0445
vt 0.9341 0.0744
vt 0.9572 0.0744
vt 0.9572 0.0840
vt 0.9054 0.2445
vt 0.9054 0.0445
vt 0.9150 0.2445
vt 0.9505 0.0676
vt 0.9341 0.0609
vt 0.9409 0.0445
vt 0.8576 0.2445
vt 0.9505 0.0908
vt 0.9409 0.0908
vt 0.9341 0.0840
vt 0.9409 0.0677
vt 0.9505 0.0677
vt 0.9505 0.0445
vt 0.9572 0.0513
vt 0.9572 0.0609
vt 0.9409 0.0676
vt 0.9341 0.0513
vn 0.3827 0.0000 -0.9239
vn 0.9239 0.0000 -0.3827
vn 0.9239 0.0000 0.3827
vn 0.3827 0.0000 0.9239
vn -0.3827 0.0000 0.9239
vn -0.9239 0.0000 0.3827
vn 0.0000 1.0000 0.0000
vn -0.3827 0.0000 -0.9239
vn -0.9239 0.0000 -0.3827
vn 0.0000 -1.0000 0.0000
usemtl None
s off
f 2/1/1 3/2/1 1/3/1
f 4/4/2 5/5/2 3/2/2
f 6/6/3 7/7/3 5/5/3
f 8/8/4 9/9/4 7/7/4
f 10/10/5 11/11/5 9/12/5
f 12/13/6 13/14/6 11/11/6
f 14/15/7 8/16/7 6/17/7
f 16/18/8 1/3/8 15/19/8
f 14/20/9 15/19/9 13/14/9
f 7/21/10 11/22/10 15/23/10
f 2/1/1 4/4/1 3/2/1
f 4/4/2 6/6/2 5/5/2
f 6/6/3 8/8/3 7/7/3
f 8/8/4 10/24/4 9/9/4
f 10/10/5 12/13/5 11/11/5
f 12/13/6 14/20/6 13/14/6
f 6/17/7 4/25/7 2/26/7
f 2/26/7 16/27/7 6/17/7
f 14/15/7 12/28/7 10/29/7
f 10/29/7 8/16/7 14/15/7
f 6/17/7 16/27/7 14/15/7
f 16/18/8 2/1/8 1/3/8
f 14/20/9 16/18/9 15/19/9
f 15/23/10 1/30/10 3/31/10
f 3/31/10 5/32/10 7/21/10
f 7/21/10 9/33/10 11/22/10
f 11/22/10 13/34/10 15/23/10
f 15/23/10 3/31/10 7/21/10
o Cylinder3
v 0.062500 0.000000 0.875000
v 0.062500 1.000000 0.875000
v 0.106694 0.000000 0.893306
v 0.106694 1.000000 0.893306
v 0.125000 0.000000 0.937500
v 0.125000 1.000000 0.937500
v 0.106694 0.000000 0.981694
v 0.106694 1.000000 0.981694
v 0.062500 0.000000 1.000000
v 0.062500 1.000000 1.000000
v 0.018306 0.000000 0.981694
v 0.018306 1.000000 0.981694
v 0.000000 0.000000 0.937500
v 0.000000 1.000000 0.937500
v 0.018306 0.000000 0.893306
v 0.018306 1.000000 0.893306
vt 0.9981 0.0020
vt 0.7981 0.2020
vt 0.7981 0.0020
vt 0.9981 0.0020
vt 0.7981 0.2020
vt 0.7981 0.0020
vt 0.9981 0.0020
vt 0.7981 0.2020
vt 0.7981 0.0020
vt 0.9981 0.0020
vt 0.7981 0.2020
vt 0.7981 0.0020
vt 0.9981 0.0020
vt 0.7981 0.2020
vt 0.7981 0.0020
vt 0.9981 0.0020
vt 0.7981 0.2020
vt 0.7981 0.0020
vt 0.9688 0.0313
vt 0.8274 0.0313
vt 0.9688 0.1727
vt 0.9981 0.0020
vt 0.7981 0.2020
vt 0.7981 0.0020
vt 0.9981 0.0020
vt 0.7981 0.2020
vt 0.7981 0.0020
vt 0.9688 0.0313
vt 0.8274 0.0313
vt 0.8274 0.1727
vt 0.9981 0.2020
vt 0.9981 0.2020
vt 0.9981 0.2020
vt 0.9981 0.2020
vt 0.9981 0.2020
vt 0.9981 0.2020
vt 0.8274 0.1727
vt 0.8981 0.2020
vt 0.9981 0.1020
vt 0.8981 0.0020
vt 0.7981 0.1020
vt 0.9981 0.2020
vt 0.9981 0.2020
vt 0.8981 0.2020
vt 0.9688 0.1727
vt 0.9981 0.1020
vt 0.8981 0.0020
vt 0.7981 0.1020
vn 0.3827 0.0000 -0.9239
vn 0.9239 0.0000 -0.3827
vn 0.9239 0.0000 0.3827
vn 0.3827 0.0000 0.9239
vn -0.3827 0.0000 0.9239
vn -0.9239 0.0000 0.3827
vn 0.0000 1.0000 0.0000
vn -0.3827 0.0000 -0.9239
vn -0.9239 0.0000 -0.3827
vn 0.0000 -1.0000 0.0000
usemtl None
s off
f 18/35/11 19/36/11 17/37/11
f 20/38/12 21/39/12 19/40/12
f 22/41/13 23/42/13 21/43/13
f 24/44/14 25/45/14 23/46/14
f 26/47/15 27/48/15 25/49/15
f 28/50/16 29/51/16 27/52/16
f 30/53/17 26/54/17 18/55/17
f 32/56/18 17/57/18 31/58/18
f 30/59/19 31/60/19 29/61/19
f 23/62/20 27/63/20 31/64/20
f 18/35/11 20/65/11 19/36/11
f 20/38/12 22/66/12 21/39/12
f 22/41/13 24/67/13 23/42/13
f 24/44/14 26/68/14 25/45/14
f 26/47/15 28/69/15 27/48/15
f 28/50/16 30/70/16 29/51/16
f 22/71/17 20/72/17 18/55/17
f 18/55/17 32/73/17 30/53/17
f 30/53/17 28/74/17 26/54/17
f 26/54/17 24/75/17 22/71/17
f 22/71/17 18/55/17 26/54/17
f 32/56/18 18/76/18 17/57/18
f 30/59/19 32/77/19 31/60/19
f 31/64/20 17/78/20 19/79/20
f 19/79/20 21/80/20 23/62/20
f 23/62/20 25/81/20 27/63/20
f 27/63/20 29/82/20 31/64/20
f 31/64/20 19/79/20 23/62/20
o Cylinder2
v 0.062500 0.000000 0.000000
v 0.062500 1.000000 0.000000
v 0.106694 0.000000 0.018306
v 0.106694 1.000000 0.018306
v 0.125000 0.000000 0.062500
v 0.125000 1.000000 0.062500
v 0.106694 0.000000 0.106694
v 0.106694 1.000000 0.106694
v 0.062500 0.000000 0.125000
v 0.062500 1.000000 0.125000
v 0.018306 0.000000 0.106694
v 0.018306 1.000000 0.106694
v 0.000000 0.000000 0.062500
v 0.000000 1.000000 0.062500
v 0.018306 0.000000 0.018306
v 0.018306 1.000000 0.018306
vt 1.0000 0.0000
vt 0.8000 0.2000
vt 0.8000 0.0000
vt 1.0000 0.0000
vt 0.8000 0.2000
vt 0.8000 0.0000
vt 1.0000 0.0000
vt 0.8000 0.2000
vt 0.8000 0.0000
vt 1.0000 0.0000
vt 0.8000 0.2000
vt 0.8000 0.0000
vt 1.0000 0.0000
vt 0.8000 0.2000
vt 0.8000 0.0000
vt 1.0000 0.0000
vt 0.8000 0.2000
vt 0.8000 0.0000
vt 0.9707 0.0293
vt 0.8293 0.0293
vt 0.8293 0.1707
vt 1.0000 0.0000
vt 0.8000 0.2000
vt 0.8000 0.0000
vt 1.0000 0.0000
vt 0.8000 0.2000
vt 0.8000 0.0000
vt 0.9707 0.0293
vt 0.8293 0.0293
vt 0.8293 0.1707
vt 1.0000 0.2000
vt 1.0000 0.2000
vt 1.0000 0.2000
vt 1.0000 0.2000
vt 1.0000 0.2000
vt 1.0000 0.2000
vt 0.9000 0.2000
vt 0.9707 0.1707
vt 1.0000 0.1000
vt 0.9000 0.0000
vt 0.8000 0.1000
vt 1.0000 0.2000
vt 1.0000 0.2000
vt 0.9000 0.2000
vt 0.9707 0.1707
vt 1.0000 0.1000
vt 0.9000 0.0000
vt 0.8000 0.1000
vn 0.3827 0.0000 -0.9239
vn 0.9239 0.0000 -0.3827
vn 0.9239 0.0000 0.3827
vn 0.3827 0.0000 0.9239
vn -0.3827 0.0000 0.9239
vn -0.9239 0.0000 0.3827
vn 0.0000 1.0000 0.0000
vn -0.3827 0.0000 -0.9239
vn -0.9239 0.0000 -0.3827
vn 0.0000 -1.0000 0.0000
usemtl None
s off
f 34/83/21 35/84/21 33/85/21
f 36/86/22 37/87/22 35/88/22
f 38/89/23 39/90/23 37/91/23
f 40/92/24 41/93/24 39/94/24
f 42/95/25 43/96/25 41/97/25
f 44/98/26 45/99/26 43/100/26
f 46/101/27 42/102/27 38/103/27
f 48/104/28 33/105/28 47/106/28
f 46/107/29 47/108/29 45/109/29
f 39/110/30 43/111/30 47/112/30
f 34/83/21 36/113/21 35/84/21
f 36/86/22 38/114/22 37/87/22
f 38/89/23 40/115/23 39/90/23
f 40/92/24 42/116/24 41/93/24
f 42/95/25 44/117/25 43/96/25
f 44/98/26 46/118/26 45/99/26
f 38/103/27 36/119/27 34/120/27
f 34/120/27 48/121/27 38/103/27
f 46/101/27 44/122/27 42/102/27
f 42/102/27 40/123/27 38/103/27
f 38/103/27 48/121/27 46/101/27
f 48/104/28 34/124/28 33/105/28
f 46/107/29 48/125/29 47/108/29
f 47/112/30 33/126/30 35/127/30
f 35/127/30 37/128/30 47/112/30
f 39/110/30 41/129/30 43/111/30
f 43/111/30 45/130/30 47/112/30
f 47/112/30 37/128/30 39/110/30
o Cylinder1
v 0.937500 0.000000 0.000000
v 0.937500 1.000000 0.000000
v 0.981694 0.000000 0.018306
v 0.981694 1.000000 0.018306
v 1.000000 0.000000 0.062500
v 1.000000 1.000000 0.062500
v 0.981694 0.000000 0.106694
v 0.981694 1.000000 0.106694
v 0.937500 0.000000 0.125000
v 0.937500 1.000000 0.125000
v 0.893306 0.000000 0.106694
v 0.893306 1.000000 0.106694
v 0.875000 0.000000 0.062500
v 0.875000 1.000000 0.062500
v 0.893306 0.000000 0.018306
v 0.893306 1.000000 0.018306
vt 0.9750 0.0250
vt 0.7750 0.2250
vt 0.7750 0.0250
vt 0.9750 0.0250
vt 0.7750 0.2250
vt 0.7750 0.0250
vt 0.9750 0.0250
vt 0.7750 0.2250
vt 0.7750 0.0250
vt 0.9750 0.0250
vt 0.7750 0.2250
vt 0.7750 0.0250
vt 0.9750 0.0250
vt 0.7750 0.2250
vt 0.7750 0.0250
vt 0.9750 0.0250
vt 0.7750 0.2250
vt 0.7750 0.0250
vt 0.9457 0.0543
vt 0.8043 0.0543
vt 0.9457 0.1957
vt 0.9750 0.0250
vt 0.7750 0.2250
vt 0.7750 0.0250
vt 0.9750 0.0250
vt 0.7750 0.2250
vt 0.7750 0.0250
vt 0.9457 0.0543
vt 0.8043 0.0543
vt 0.8043 0.1957
vt 0.9750 0.2250
vt 0.9750 0.2250
vt 0.9750 0.2250
vt 0.9750 0.2250
vt 0.9750 0.2250
vt 0.9750 0.2250
vt 0.8043 0.1957
vt 0.8750 0.2250
vt 0.9750 0.1250
vt 0.8750 0.0250
vt 0.7750 0.1250
vt 0.9750 0.2250
vt 0.9750 0.2250
vt 0.8750 0.2250
vt 0.9457 0.1957
vt 0.9750 0.1250
vt 0.8750 0.0250
vt 0.7750 0.1250
vn 0.3827 0.0000 -0.9239
vn 0.9239 0.0000 -0.3827
vn 0.9239 0.0000 0.3827
vn 0.3827 0.0000 0.9239
vn -0.3827 0.0000 0.9239
vn -0.9239 0.0000 0.3827
vn 0.0000 1.0000 0.0000
vn -0.3827 0.0000 -0.9239
vn -0.9239 0.0000 -0.3827
vn 0.0000 -1.0000 0.0000
usemtl None
s off
f 50/131/31 51/132/31 49/133/31
f 52/134/32 53/135/32 51/136/32
f 54/137/33 55/138/33 53/139/33
f 56/140/34 57/141/34 55/142/34
f 58/143/35 59/144/35 57/145/35
f 60/146/36 61/147/36 59/148/36
f 62/149/37 58/150/37 50/151/37
f 64/152/38 49/153/38 63/154/38
f 62/155/39 63/156/39 61/157/39
f 55/158/40 59/159/40 63/160/40
f 50/131/31 52/161/31 51/132/31
f 52/134/32 54/162/32 53/135/32
f 54/137/33 56/163/33 55/138/33
f 56/140/34 58/164/34 57/141/34
f 58/143/35 60/165/35 59/144/35
f 60/146/36 62/166/36 61/147/36
f 54/167/37 52/168/37 50/151/37
f 50/151/37 64/169/37 62/149/37
f 62/149/37 60/170/37 58/150/37
f 58/150/37 56/171/37 54/167/37
f 54/167/37 50/151/37 58/150/37
f 64/152/38 50/172/38 49/153/38
f 62/155/39 64/173/39 63/156/39
f 63/160/40 49/174/40 51/175/40
f 51/175/40 53/176/40 55/158/40
f 55/158/40 57/177/40 59/159/40
f 59/159/40 61/178/40 63/160/40
f 63/160/40 51/175/40 55/158/40
o Cylinder
v 0.500000 0.000000 0.000000
v 0.500000 1.000000 0.000000
v 0.853553 0.000000 0.146447
v 0.853553 1.000000 0.146447
v 1.000000 0.000000 0.500000
v 1.000000 1.000000 0.500000
v 0.853553 0.000000 0.853553
v 0.853553 1.000000 0.853553
v 0.500000 0.000000 1.000000
v 0.500000 1.000000 1.000000
v 0.146447 0.000000 0.853553
v 0.146447 1.000000 0.853553
v 0.000000 0.000000 0.500000
v 0.000000 1.000000 0.500000
v 0.146447 0.000000 0.146447
v 0.146447 1.000000 0.146447
vt 0.0000 0.2500
vt 0.3438 0.1250
vt 0.3438 0.2500
vt 0.0000 0.1250
vt 0.3438 0.0000
vt 0.0000 1.0000
vt 0.3438 0.8750
vt 0.3438 1.0000
vt 0.0000 0.8750
vt 0.3438 0.7500
vt 0.0000 0.7500
vt 0.3438 0.6250
vt 0.0000 0.6250
vt 0.3438 0.5000
vt 0.4375 0.3125
vt 0.5625 0.3125
vt 0.6562 0.5312
vt 0.0000 0.3750
vt 0.3438 0.3750
vt 0.0000 0.5000
vt 0.3453 0.0900
vt 0.5663 0.0016
vt 0.6547 0.2225
vt 0.0000 0.0000
vt 0.5625 0.6250
vt 0.3438 0.4062
vt 0.4375 0.6250
vt 0.3438 0.5312
vt 0.6562 0.4062
vt 0.5663 0.3109
vt 0.4337 0.3109
vt 0.3453 0.2225
vt 0.4337 0.0016
vt 0.6547 0.0900
vn 0.3827 0.0000 -0.9239
vn 0.9239 0.0000 -0.3827
vn 0.9239 0.0000 0.3827
vn 0.3827 0.0000 0.9239
vn -0.3827 0.0000 0.9239
vn -0.9239 0.0000 0.3827
vn 0.0000 1.0000 0.0000
vn -0.3827 0.0000 -0.9239
vn -0.9239 0.0000 -0.3827
vn 0.0000 -1.0000 0.0000
usemtl None
s off
f 66/179/41 67/180/41 65/181/41
f 68/182/42 69/183/42 67/180/42
f 70/184/43 71/185/43 69/186/43
f 72/187/44 73/188/44 71/185/44
f 74/189/45 75/190/45 73/188/45
f 76/191/46 77/192/46 75/190/46
f 76/193/47 74/194/47 70/195/47
f 80/196/48 65/181/48 79/197/48
f 78/198/49 79/197/49 77/192/49
f 71/199/50 75/200/50 79/201/50
f 66/179/41 68/182/41 67/180/41
f 68/182/42 70/202/42 69/183/42
f 70/184/43 72/187/43 71/185/43
f 72/187/44 74/189/44 73/188/44
f 74/189/45 76/191/45 75/190/45
f 76/191/46 78/198/46 77/192/46
f 70/195/47 68/203/47 78/204/47
f 66/205/47 80/206/47 78/204/47
f 78/204/47 76/193/47 70/195/47
f 74/194/47 72/207/47 70/195/47
f 68/203/47 66/205/47 78/204/47
f 80/196/48 66/179/48 65/181/48
f 78/198/49 80/196/49 79/197/49
f 79/201/50 65/208/50 67/209/50
f 67/209/50 69/210/50 79/201/50
f 71/199/50 73/211/50 75/200/50
f 75/200/50 77/212/50 79/201/50
f 79/201/50 69/210/50 71/199/50
