# Blender v2.77 (sub 0) OBJ File: 'lowertank.blend'
# www.blender.org
mtllib motor.mtl
o Motor
v 0.250000 0.250000 0.312500
v 0.187500 0.125000 0.312500
v 0.187500 0.125000 0.375000
v 0.750000 0.250000 0.312500
v 0.812500 0.125000 0.312500
v 0.750000 0.250000 0.375000
v 0.812500 0.125000 0.375000
v 0.250000 0.250000 0.375000
v 0.250000 0.250000 0.625000
v 0.187500 0.125000 0.625000
v 0.187500 0.125000 0.687500
v 0.750000 0.250000 0.625000
v 0.812500 0.125000 0.625000
v 0.750000 0.250000 0.687500
v 0.812500 0.125000 0.687500
v 0.250000 0.250000 0.687500
v 0.187500 0.125000 0.062500
v 0.000000 0.062500 0.062500
v 0.000000 0.062500 0.750000
v 0.812500 0.125000 0.062500
v 1.000000 0.062500 0.062500
v 0.812500 0.125000 0.750000
v 1.000000 0.062500 0.750000
v 0.187500 0.125000 0.750000
v 0.000000 0.000000 0.750000
v 1.000000 0.000000 0.750000
v 0.000000 0.000000 0.062500
v 1.000000 0.000000 0.062500
v 0.500000 0.566000 0.875000
v 0.500000 0.566000 1.000000
v 0.546669 0.546669 1.000000
v 0.546669 0.546669 0.875000
v 0.566000 0.500000 1.000000
v 0.566000 0.500000 0.875000
v 0.546669 0.453331 1.000000
v 0.500000 0.434000 1.000000
v 0.500000 0.434000 0.875000
v 0.453331 0.453331 1.000000
v 0.453331 0.453331 0.875000
v 0.434000 0.500000 1.000000
v 0.434000 0.500000 0.875000
v 0.453331 0.546669 1.000000
v 0.453331 0.546669 0.875000
v 0.525000 0.425000 0.000000
v 0.570822 0.147630 0.000000
v 0.500000 0.125000 0.000000
v 0.650000 0.875000 0.250000
v 0.875000 0.650000 0.250000
v 0.875000 0.650000 0.000000
v 0.425000 0.475000 0.000000
v 0.147630 0.429178 0.000000
v 0.125000 0.500000 0.000000
v 0.875000 0.350000 0.250000
v 0.650000 0.125000 0.250000
v 0.650000 0.125000 0.000000
v 0.350000 0.125000 0.000000
v 0.350000 0.125000 0.250000
v 0.125000 0.350000 0.250000
v 0.125000 0.650000 0.250000
v 0.350000 0.875000 0.250000
v 0.350000 0.875000 0.000000
v 0.429178 0.852370 0.000000
v 0.359374 0.852370 0.000000
v 0.402370 0.450406 0.062500
v 0.852370 0.429178 0.000000
v 0.852370 0.429178 0.062500
v 0.597630 0.450406 0.062500
v 0.359374 0.852370 0.062500
v 0.147630 0.640627 0.062500
v 0.852370 0.570822 0.000000
v 0.575000 0.525000 0.000000
v 0.597630 0.549594 0.062500
v 0.147630 0.640626 0.000000
v 0.147630 0.570822 0.062500
v 0.475000 0.475000 0.000000
v 0.402370 0.402370 0.062500
v 0.147630 0.359373 0.000000
v 0.147630 0.359373 0.062500
v 0.359373 0.147630 0.062500
v 0.570822 0.852370 0.000000
v 0.525000 0.575000 0.000000
v 0.500000 0.875000 0.000000
v 0.402370 0.597630 0.062500
v 0.475000 0.525000 0.000000
v 0.402370 0.549594 0.062500
v 0.425000 0.525000 0.000000
v 0.525000 0.525000 0.000000
v 0.575000 0.475000 0.000000
v 0.359373 0.147630 0.000000
v 0.429178 0.147630 0.062500
v 0.640626 0.147630 0.000000
v 0.475000 0.425000 0.000000
v 0.450406 0.402370 0.062500
v 0.125000 0.650000 0.000000
v 0.475000 0.575000 0.000000
v 0.875000 0.500000 0.000000
v 0.875000 0.350000 0.000000
v 0.125000 0.350000 0.000000
v 0.650000 0.875000 0.000000
v 0.852370 0.640626 0.000000
v 0.640627 0.852370 0.000000
v 0.852370 0.359373 0.000000
v 0.429178 0.147630 0.000000
v 0.147630 0.570822 0.000000
v 0.525000 0.475000 0.000000
v 0.450406 0.597630 0.062500
v 0.597630 0.402370 0.062500
v 0.549594 0.402370 0.062500
v 0.640626 0.147630 0.062500
v 0.852370 0.359373 0.062500
v 0.640627 0.852370 0.062500
v 0.852370 0.640626 0.062500
v 0.597630 0.597630 0.062500
v 0.570822 0.147630 0.062500
v 0.570822 0.852370 0.062500
v 0.852370 0.570822 0.062500
v 0.147630 0.429178 0.062500
v 0.429178 0.852370 0.062500
v 0.549594 0.597630 0.062500
v 0.613731 0.781493 0.800000
v 0.779465 0.618626 0.800000
v 0.840219 0.644414 0.250000
v 0.781493 0.386269 0.800000
v 0.618626 0.220535 0.800000
v 0.644414 0.159781 0.250000
v 0.386269 0.218507 0.800000
v 0.220535 0.381374 0.800000
v 0.159781 0.355586 0.250000
v 0.218507 0.613731 0.800000
v 0.157313 0.638455 0.250000
v 0.381374 0.779465 0.800000
v 0.638455 0.842687 0.250000
v 0.500000 0.830000 0.250000
v 0.500000 0.830000 0.812500
v 0.733345 0.733345 0.812500
v 0.830000 0.500000 0.812500
v 0.830000 0.500000 0.250000
v 0.733345 0.266655 0.812500
v 0.733345 0.266655 0.250000
v 0.500000 0.170000 0.812500
v 0.500000 0.170000 0.250000
v 0.266655 0.266655 0.812500
v 0.266655 0.266655 0.250000
v 0.170000 0.500000 0.812500
v 0.170000 0.500000 0.250000
v 0.616673 0.383327 0.875000
v 0.500000 0.335000 0.875000
v 0.266655 0.733345 0.812500
v 0.266655 0.733345 0.250000
v 0.616673 0.616673 0.875000
v 0.383327 0.616673 0.875000
v 0.383327 0.383327 0.875000
v 0.335000 0.500000 0.875000
v 0.665000 0.500000 0.875000
v 0.500000 0.665000 0.875000
v 0.546669 0.453331 0.875000
v 0.842687 0.361545 0.250000
v 0.361545 0.157313 0.250000
v 0.355586 0.840219 0.250000
v 0.733345 0.733345 0.250000
vt 0.0547 0.6328
vt -0.0000 0.6328
vt -0.0000 0.6250
vt 0.3359 0.6719
vt 0.3047 0.6250
vt 0.5625 0.6250
vt 0.2422 0.6250
vt 0.2969 0.6250
vt 0.2969 0.6328
vt 0.3359 0.6719
vt 0.3047 0.6250
vt 0.5625 0.6250
vt 0.2422 0.6328
vt 0.0547 0.6250
vt 0.0547 0.6328
vt -0.0000 0.6328
vt -0.0000 0.6250
vt 0.3359 0.6719
vt 0.3047 0.6250
vt 0.5625 0.6250
vt 0.2422 0.6250
vt 0.2969 0.6250
vt 0.2969 0.6328
vt 0.3359 0.6719
vt 0.3047 0.6250
vt 0.5625 0.6250
vt 0.2422 0.6328
vt 0.0547 0.6250
vt 0.8203 0.4375
vt 0.8203 0.3750
vt 1.0000 0.3750
vt 0.3672 0.7344
vt 0.3359 0.7188
vt 0.5312 0.7188
vt 1.0000 0.6250
vt 1.0000 0.6797
vt 0.8203 0.6797
vt 0.4922 0.6719
vt 0.5312 0.6875
vt 0.3359 0.6875
vt 0.5312 0.7031
vt 0.3359 0.7031
vt 0.8203 0.6250
vt 1.0000 0.4375
vt 0.0078 0.6953
vt 0.3203 0.6953
vt 0.3203 0.8047
vt 1.0000 0.7031
vt 0.8203 0.7031
vt 0.8203 0.3516
vt 1.0000 0.3516
vt 0.3359 0.7031
vt 0.5312 0.7031
vt 0.1641 0.6797
vt 0.1641 0.6953
vt 0.1484 0.6953
vt 0.1484 0.6797
vt 0.1250 0.6953
vt 0.1250 0.6797
vt 0.1094 0.6953
vt 0.0859 0.6953
vt 0.0859 0.6797
vt 0.0625 0.6953
vt 0.0625 0.6797
vt 0.0469 0.6953
vt 0.0469 0.6797
vt 0.1875 0.6719
vt 0.1797 0.6953
vt 0.1719 0.6797
vt 0.0234 0.6953
vt 0.0000 0.6953
vt 0.0000 0.6797
vt 0.0234 0.6797
vt 0.1328 0.5078
vt 0.0703 0.5938
vt 0.0469 0.5859
vt -0.0000 0.8281
vt 0.1328 0.8281
vt 0.1328 0.8984
vt 0.1172 0.4609
vt 0.0391 0.3906
vt 0.0469 0.3672
vt 0.2500 0.8281
vt 0.3750 0.8281
vt 0.3750 0.8984
vt 0.5000 0.8984
vt 0.5000 0.8281
vt 0.6250 0.8281
vt 0.6016 0.5391
vt 0.3906 0.6250
vt 0.3047 0.5391
vt 0.7500 0.8281
vt 0.8750 0.8281
vt 0.8750 0.8984
vt 0.2344 0.3594
vt 0.2109 0.3359
vt 0.2109 0.3281
vt 0.2812 0.1797
vt 0.3906 0.2344
vt 0.3750 0.2422
vt 0.2812 0.3281
vt 0.2812 0.3203
vt 0.3672 0.2734
vt 0.2578 0.2031
vt 0.2656 0.2031
vt 0.2656 0.3047
vt 0.2812 0.1797
vt 0.3906 0.2344
vt 0.3750 0.2422
vt 0.2578 0.3125
vt 0.2812 0.3203
vt 0.4062 0.2578
vt 0.3516 0.2578
vt 0.2578 0.2031
vt 0.2656 0.2031
vt 0.2656 0.3047
vt 0.2656 0.3906
vt 0.1797 0.4609
vt 0.2578 0.3672
vt 0.3516 0.2578
vt 0.4062 0.2578
vt 0.3672 0.2734
vt 0.1328 0.4453
vt 0.1641 0.4766
vt 0.1797 0.4922
vt 0.1641 0.5078
vt 0.2578 0.3125
vt 0.2812 0.3203
vt 0.0938 0.6172
vt 0.0859 0.6250
vt 0.3906 0.2812
vt 0.3672 0.2734
vt 0.6875 0.8984
vt 0.7500 0.8984
vt 0.1641 0.4453
vt 0.4375 0.8984
vt 0.1875 0.8984
vt 0.2500 0.8984
vt 0.0156 0.4141
vt 0.0000 0.4141
vt 0.9375 0.8984
vt 1.0000 0.8281
vt 1.0000 0.8984
vt 0.2969 0.4141
vt 0.2812 0.5391
vt 0.2812 0.4141
vt 0.2344 0.5938
vt 0.2578 0.5859
vt 0.2109 0.6250
vt 0.2109 0.6172
vt 0.0391 0.5625
vt 0.0000 0.5391
vt 0.0156 0.5391
vt 0.0703 0.3594
vt 0.0859 0.3281
vt 0.0938 0.3359
vt 0.4062 0.2578
vt 0.3906 0.2812
vt 0.1172 0.4922
vt 0.3750 0.2422
vt 0.1484 0.4609
vt 0.3516 0.2578
vt 0.3750 0.2422
vt 0.1328 0.4766
vt 0.1484 0.4922
vt 0.3906 0.2344
vt 0.3906 0.2344
vt 0.1641 0.1875
vt 0.2500 0.2734
vt 0.1484 0.2891
vt 0.2500 0.2734
vt 0.1484 0.2891
vt 0.1641 0.1875
vt 0.1641 0.1875
vt 0.2500 0.2734
vt 0.1484 0.2891
vt 0.2500 0.2969
vt 0.1406 0.1875
vt 0.1406 0.1875
vt 0.1641 0.1875
vt 0.1484 0.2891
vt 0.1406 0.1875
vt 0.2500 0.2734
vt 0.2500 0.2969
vt 0.1484 0.3125
vt 0.2500 0.2969
vt 0.1484 0.3125
vt 0.2500 0.2969
vt 0.1484 0.3125
vt 0.1250 0.2891
vt 0.1406 0.1875
vt 0.2812 0.3281
vt 0.2812 0.1797
vt 0.2812 0.3281
vt 0.2812 0.3203
vt 0.3672 0.2734
vt 0.2891 0.1875
vt 0.2812 0.3281
vt 0.2891 0.1875
vt 0.2656 0.2031
vt 0.2578 0.3125
vt 0.2656 0.3047
vt 0.2812 0.1797
vt 0.2891 0.1875
vt 0.2656 0.2031
vt 0.2578 0.2031
vt 0.2891 0.1875
vt 0.2578 0.3125
vt 0.2656 0.3047
vt 0.3906 0.2812
vt 0.2578 0.2031
vt 0.4062 0.2578
vt 0.3516 0.2578
vt 0.3906 0.2812
vt 0.6250 0.8984
vt 0.2656 0.5625
vt 0.2969 0.5391
vt 0.4062 0.0391
vt 0.3047 0.0391
vt 0.3047 0.0000
vt 0.2031 0.0391
vt 0.2031 0.1328
vt 0.3047 0.1328
vt 0.3047 0.1797
vt 0.4062 0.1328
vt 0.3047 0.1328
vt 0.3047 0.0859
vt 0.2031 0.1328
vt 0.2031 0.0859
vt 0.9297 0.2500
vt 0.7500 0.1719
vt 0.7500 0.0703
vt 0.3047 0.0859
vt 0.2031 0.0859
vt 0.2031 0.0391
vt 0.4062 0.0391
vt 0.4062 0.0859
vt 0.1016 0.1797
vt 0.1016 0.1328
vt 0.2031 0.1328
vt 0.2031 0.0859
vt 0.1016 0.0859
vt 0.1016 0.0391
vt -0.0000 0.0859
vt -0.0000 0.0391
vt 0.2031 0.1328
vt 0.1016 0.1328
vt 0.1016 0.0859
vt -0.0000 0.1328
vt -0.0000 0.0859
vt -0.0000 0.0000
vt 0.1016 0.0000
vt 0.1016 0.0391
vt 0.7031 0.0312
vt 0.6719 0.0781
vt 0.6172 0.0625
vt -0.0000 0.1328
vt 0.2031 0.0000
vt 0.2031 0.0391
vt 0.6641 0.1641
vt 0.5703 0.1719
vt 0.5781 0.0859
vt 0.5000 0.1250
vt 0.5547 0.1250
vt 0.7109 0.2031
vt 0.6875 0.1250
vt 0.6172 -0.0000
vt 0.5391 0.2188
vt 0.6250 0.1875
vt 0.6250 0.2500
vt 0.7422 0.1172
vt 0.5391 0.0391
vt 0.5391 0.6719
vt 0.5391 0.6719
vt 0.5391 0.6719
vt 0.5391 0.6719
vt 0.4922 0.7344
vt 0.3672 0.6719
vt 0.0078 0.8047
vt 0.1094 0.6797
vt 0.1953 0.6797
vt 0.1953 0.6875
vt 0.1797 0.6719
vt 0.1719 0.6875
vt 0.1875 0.6953
vt -0.0000 0.8984
vt 0.5156 0.3281
vt 0.6016 0.4141
vt 0.3047 0.4141
vt 0.3906 0.3281
vt 0.5156 0.6250
vt 0.1484 0.3125
vt 0.1250 0.2891
vt 0.1250 0.2891
vt 0.1250 0.2891
vt 0.4062 0.0000
vt 0.2031 0.0000
vt 0.2031 0.1797
vt 0.4062 0.1797
vt 0.4062 0.0859
vt 1.0000 0.0703
vt 1.0000 0.1719
vt 0.8281 0.0000
vt 0.9297 0.0000
vt 0.8281 0.2500
vt 0.3047 0.0391
vt 0.2031 0.1797
vt 0.2031 0.0391
vt 0.2031 0.0859
vt -0.0000 0.0391
vt -0.0000 0.1797
vn -0.8944 0.4472 0.0000
vn 0.0000 0.0000 -1.0000
vn 0.8944 0.4472 0.0000
vn 0.0000 0.0000 1.0000
vn 0.0000 1.0000 0.0000
vn -0.3162 0.9487 0.0000
vn 0.3162 0.9487 0.0000
vn 0.0000 -1.0000 -0.0000
vn 1.0000 0.0000 0.0000
vn -1.0000 0.0000 0.0000
vn 0.3827 0.9239 0.0000
vn 0.9239 0.3827 0.0000
vn 0.9239 -0.3827 0.0000
vn 0.3827 -0.9239 0.0000
vn -0.3827 -0.9239 0.0000
vn -0.9239 -0.3827 0.0000
vn -0.3827 0.9239 0.0000
vn -0.9239 0.3827 0.0000
vn 0.7071 0.7071 0.0000
vn 0.7071 -0.7071 -0.0000
vn -0.7071 -0.7071 -0.0000
vn -0.7071 0.7071 0.0000
vn 0.1548 -0.9371 -0.3127
vn -0.0830 -0.9965 0.0000
vn -0.1548 0.9371 -0.3127
vn -0.6523 0.0000 -0.7580
vn -0.9305 0.0000 -0.3662
vn 0.0000 -0.9305 -0.3662
vn 0.0000 0.6523 -0.7580
vn 0.0000 -0.6523 -0.7580
vn 0.9305 0.0000 -0.3662
vn 0.0830 0.9965 0.0000
vn 0.6523 0.0000 -0.7580
vn -0.9371 -0.1548 -0.3127
vn 0.9965 -0.0830 0.0000
vn -0.9965 0.0830 0.0000
vn 0.9371 0.1548 -0.3127
vn 0.0000 0.9305 -0.3662
vn 0.6966 0.7089 0.1102
vn 0.9939 0.0087 0.1102
vn 0.7089 -0.6966 0.1102
vn 0.0087 -0.9939 0.1102
vn -0.6966 -0.7089 0.1102
vn -0.9939 -0.0087 0.1102
vn -0.0087 0.9939 0.1102
vn -0.7089 0.6966 0.1102
vn 0.1452 -0.3505 0.9253
vn -0.3505 0.1452 0.9253
vn 0.3505 0.1452 0.9253
vn -0.1452 -0.3505 0.9253
vn -0.1452 0.3505 0.9253
vn 0.1452 0.3505 0.9253
vn 0.3505 -0.1452 0.9253
vn -0.3505 -0.1452 0.9253
vn 0.0830 -0.9965 0.0000
vn -0.1548 -0.9371 -0.3127
vn -0.0830 0.9965 0.0000
vn 0.1548 0.9371 -0.3127
vn -0.9965 -0.0830 0.0000
vn 0.9371 -0.1548 -0.3127
vn -0.9371 0.1548 -0.3127
vn 0.9965 0.0830 0.0000
usemtl Material
s 1
f 1/1/1 2/2/1 3/3/1
f 4/4/2 5/5/2 2/6/2
f 6/7/3 7/8/3 5/9/3
f 8/10/4 3/11/4 7/12/4
f 4/13/5 1/1/5 8/14/5
f 9/15/1 10/16/1 11/17/1
f 12/18/2 13/19/2 10/20/2
f 14/21/3 15/22/3 13/23/3
f 16/24/4 11/25/4 15/26/4
f 12/27/5 9/15/5 16/28/5
f 17/29/6 18/30/6 19/31/6
f 20/32/2 21/33/2 18/34/2
f 22/35/7 23/36/7 21/37/7
f 24/38/4 19/39/4 23/40/4
f 19/39/4 25/41/4 26/42/4
f 20/43/5 17/29/5 24/44/5
f 27/45/8 28/46/8 26/47/8
f 23/36/9 26/48/9 28/49/9
f 18/30/10 27/50/10 25/51/10
f 21/33/2 28/52/2 27/53/2
f 29/54/11 30/55/11 31/56/11
f 32/57/12 31/56/12 33/58/12
f 34/59/13 33/58/13 35/60/13
f 35/60/14 36/61/14 37/62/14
f 36/61/15 38/63/15 39/64/15
f 38/63/16 40/65/16 41/66/16
f 35/67/4 42/68/4 38/69/4
f 42/70/17 30/71/17 29/72/17
f 40/65/18 42/70/18 43/73/18
f 44/74/2 45/75/2 46/76/2
f 47/77/19 48/78/19 49/79/19
f 50/80/2 51/81/2 52/82/2
f 53/83/20 54/84/20 55/85/20
f 56/86/21 57/87/21 58/88/21
f 47/89/4 59/90/4 58/91/4
f 59/92/22 60/93/22 61/94/22
f 62/95/2 63/96/2 61/97/2
f 51/98/23 50/99/23 64/100/23
f 65/101/24 66/102/24 67/103/24
f 63/104/20 68/105/20 69/106/20
f 70/107/25 71/108/25 72/109/25
f 73/110/9 69/106/9 74/111/9
f 75/112/26 76/113/26 64/100/26
f 77/114/19 78/115/19 79/116/19
f 80/117/2 81/118/2 82/119/2
f 83/120/26 84/121/26 85/122/26
f 52/82/2 86/123/2 50/80/2
f 87/124/2 71/125/2 88/126/2
f 89/127/5 79/116/5 90/128/5
f 45/75/2 91/129/2 55/130/2
f 75/112/27 92/131/27 93/132/27
f 52/133/10 59/92/10 94/134/10
f 95/135/2 62/95/2 82/119/2
f 46/136/8 57/87/8 56/86/8
f 96/137/9 53/83/9 97/138/9
f 51/81/2 77/139/2 98/140/2
f 82/141/5 47/142/5 99/143/5
f 54/84/8 57/87/8 46/136/8
f 80/117/2 82/119/2 99/144/2
f 100/145/2 101/146/2 99/144/2
f 65/147/2 96/148/2 97/149/2
f 102/150/2 97/149/2 55/130/2
f 103/151/2 46/76/2 56/152/2
f 77/139/2 89/153/2 56/152/2
f 104/154/2 52/82/2 94/155/2
f 63/96/2 73/156/2 94/155/2
f 105/157/28 88/158/28 67/103/28
f 92/159/2 44/74/2 46/76/2
f 84/121/29 83/120/29 106/160/29
f 55/85/8 54/84/8 46/136/8
f 58/88/10 59/92/10 52/133/10
f 60/93/5 47/142/5 82/141/5
f 81/118/2 87/124/2 84/161/2
f 103/151/2 92/159/2 46/76/2
f 105/157/30 107/162/30 108/163/30
f 82/119/2 81/118/2 95/135/2
f 75/164/2 105/165/2 44/74/2
f 44/166/31 105/157/31 108/163/31
f 95/167/27 84/121/27 106/160/27
f 61/94/5 60/93/5 82/141/5
f 87/124/2 105/165/2 75/164/2
f 79/168/2 78/169/2 76/170/2
f 109/171/2 107/172/2 110/173/2
f 111/174/2 112/175/2 113/176/2
f 107/172/2 109/171/2 114/177/2
f 115/178/2 111/174/2 113/176/2
f 74/179/2 69/180/2 83/181/2
f 66/182/2 110/173/2 107/172/2
f 69/180/2 68/183/2 83/181/2
f 116/184/2 72/185/2 113/176/2
f 117/186/2 64/187/2 76/170/2
f 118/188/2 106/189/2 83/181/2
f 76/170/2 93/190/2 90/191/2
f 104/192/32 74/111/32 85/122/32
f 107/162/33 105/157/33 67/103/33
f 62/193/34 95/167/34 106/160/34
f 86/123/2 84/161/2 75/164/2
f 80/194/35 115/195/35 119/196/35
f 62/193/8 118/197/8 68/105/8
f 103/198/36 90/128/36 93/132/36
f 70/107/10 116/199/10 112/200/10
f 101/201/8 111/202/8 115/195/8
f 45/203/37 44/166/37 108/163/37
f 45/203/5 114/204/5 109/205/5
f 101/201/21 100/206/21 112/200/21
f 51/98/9 117/207/9 78/115/9
f 102/208/10 110/209/10 66/102/10
f 84/121/38 86/210/38 85/122/38
f 102/208/22 91/211/22 109/205/22
f 87/212/33 113/213/33 72/109/33
f 87/212/31 81/214/31 119/196/31
f 104/154/2 86/123/2 52/82/2
f 98/215/10 58/88/10 52/133/10
f 65/147/2 88/126/2 96/148/2
f 76/113/30 75/112/30 93/132/30
f 50/99/28 75/112/28 64/100/28
f 71/108/38 87/212/38 72/109/38
f 113/213/29 87/212/29 119/196/29
f 49/79/9 48/78/9 96/137/9
f 71/125/2 70/216/2 96/148/2
f 48/78/9 53/83/9 96/137/9
f 70/216/2 100/145/2 49/217/2
f 96/148/2 88/126/2 71/125/2
f 120/218/39 121/219/39 122/220/39
f 122/220/40 121/219/40 123/221/40
f 123/222/41 124/223/41 125/224/41
f 125/224/42 124/223/42 126/225/42
f 126/225/43 127/226/43 128/227/43
f 127/226/44 129/228/44 130/229/44
f 121/230/4 131/231/4 129/232/4
f 131/233/45 120/234/45 132/235/45
f 130/236/46 129/237/46 131/233/46
f 133/238/11 134/239/11 135/240/11
f 135/241/12 136/242/12 137/243/12
f 136/242/13 138/244/13 139/245/13
f 138/246/14 140/247/14 141/248/14
f 140/247/15 142/249/15 143/250/15
f 142/251/16 144/252/16 145/253/16
f 138/254/47 146/255/47 147/256/47
f 148/257/17 134/239/17 133/238/17
f 144/252/18 148/258/18 149/259/18
f 150/260/4 151/261/4 152/262/4
f 144/263/48 153/264/48 151/261/48
f 135/265/49 150/260/49 154/266/49
f 140/267/50 147/256/50 152/262/50
f 148/268/51 151/261/51 155/269/51
f 135/265/52 134/270/52 155/269/52
f 138/254/53 136/271/53 154/266/53
f 142/272/54 152/262/54 153/264/54
f 8/14/1 1/1/1 3/3/1
f 1/273/2 4/4/2 2/6/2
f 4/13/3 6/7/3 5/9/3
f 6/274/4 8/10/4 7/12/4
f 6/7/5 4/13/5 8/14/5
f 16/28/1 9/15/1 11/17/1
f 9/275/2 12/18/2 10/20/2
f 12/27/3 14/21/3 13/23/3
f 14/276/4 16/24/4 15/26/4
f 14/21/5 12/27/5 16/28/5
f 24/44/6 17/29/6 19/31/6
f 17/277/2 20/32/2 18/34/2
f 20/43/7 22/35/7 21/37/7
f 22/278/4 24/38/4 23/40/4
f 23/40/4 19/39/4 26/42/4
f 22/35/5 20/43/5 24/44/5
f 25/279/8 27/45/8 26/47/8
f 21/37/9 23/36/9 28/49/9
f 19/31/10 18/30/10 25/51/10
f 18/34/2 21/33/2 27/53/2
f 32/57/11 29/54/11 31/56/11
f 34/59/12 32/57/12 33/58/12
f 156/280/13 34/59/13 35/60/13
f 156/280/14 35/60/14 37/62/14
f 37/62/15 36/61/15 39/64/15
f 39/64/16 38/63/16 41/66/16
f 35/67/4 33/281/4 31/282/4
f 38/69/4 36/283/4 35/67/4
f 42/68/4 40/284/4 38/69/4
f 31/282/4 30/285/4 42/68/4
f 42/68/4 35/67/4 31/282/4
f 43/73/17 42/70/17 29/72/17
f 41/66/18 40/65/18 43/73/18
f 99/286/19 47/77/19 49/79/19
f 97/138/20 53/83/20 55/85/20
f 98/215/21 56/86/21 58/88/21
f 53/287/4 48/288/4 47/89/4
f 57/289/4 54/290/4 53/287/4
f 47/89/4 58/91/4 57/289/4
f 47/89/4 60/291/4 59/90/4
f 57/289/4 53/287/4 47/89/4
f 94/134/22 59/92/22 61/94/22
f 82/119/2 62/95/2 61/97/2
f 117/207/55 51/98/55 64/100/55
f 88/158/56 65/101/56 67/103/56
f 73/110/20 63/104/20 69/106/20
f 116/199/57 70/107/57 72/109/57
f 104/192/9 73/110/9 74/111/9
f 89/127/19 77/114/19 79/116/19
f 105/165/2 87/124/2 88/126/2
f 103/198/5 89/127/5 90/128/5
f 46/76/2 45/75/2 55/130/2
f 52/82/2 51/81/2 98/140/2
f 101/146/2 80/117/2 99/144/2
f 49/217/2 100/145/2 99/144/2
f 102/150/2 65/147/2 97/149/2
f 91/129/2 102/150/2 55/130/2
f 89/153/2 103/151/2 56/152/2
f 98/140/2 77/139/2 56/152/2
f 73/156/2 104/154/2 94/155/2
f 61/97/2 63/96/2 94/155/2
f 95/135/2 81/118/2 84/161/2
f 92/159/2 75/164/2 44/74/2
f 84/161/2 87/124/2 75/164/2
f 108/292/2 107/172/2 114/177/2
f 119/293/2 115/178/2 113/176/2
f 85/294/2 74/179/2 83/181/2
f 67/295/2 66/182/2 107/172/2
f 112/175/2 116/184/2 113/176/2
f 78/169/2 117/186/2 76/170/2
f 68/183/2 118/188/2 83/181/2
f 79/168/2 76/170/2 90/191/2
f 86/210/58 104/192/58 85/122/58
f 118/197/59 62/193/59 106/160/59
f 50/80/2 86/123/2 75/164/2
f 81/214/60 80/194/60 119/196/60
f 63/104/8 62/193/8 68/105/8
f 92/131/61 103/198/61 93/132/61
f 100/206/10 70/107/10 112/200/10
f 80/194/8 101/201/8 115/195/8
f 114/204/62 45/203/62 108/163/62
f 91/211/5 45/203/5 109/205/5
f 111/202/21 101/201/21 112/200/21
f 77/114/9 51/98/9 78/115/9
f 65/101/10 102/208/10 66/102/10
f 110/209/22 102/208/22 109/205/22
f 96/148/2 70/216/2 49/217/2
f 132/296/39 120/218/39 122/220/39
f 157/297/40 122/220/40 123/221/40
f 157/298/41 123/222/41 125/224/41
f 158/299/42 125/224/42 126/225/42
f 158/300/43 126/225/43 128/227/43
f 128/227/44 127/226/44 130/229/44
f 124/301/4 123/302/4 121/230/4
f 127/303/4 126/304/4 124/301/4
f 121/230/4 129/232/4 127/303/4
f 121/230/4 120/305/4 131/231/4
f 127/303/4 124/301/4 121/230/4
f 159/306/45 131/233/45 132/235/45
f 159/306/46 130/236/46 131/233/46
f 160/307/11 133/238/11 135/240/11
f 160/308/12 135/241/12 137/243/12
f 137/243/13 136/242/13 139/245/13
f 139/309/14 138/246/14 141/248/14
f 141/248/15 140/247/15 143/250/15
f 143/310/16 142/251/16 145/253/16
f 140/267/47 138/254/47 147/256/47
f 149/311/17 148/257/17 133/238/17
f 145/253/18 144/252/18 149/259/18
f 146/255/4 154/266/4 150/260/4
f 152/262/4 147/256/4 146/255/4
f 151/261/4 153/264/4 152/262/4
f 150/260/4 155/269/4 151/261/4
f 152/262/4 146/255/4 150/260/4
f 148/268/48 144/263/48 151/261/48
f 136/271/49 135/265/49 154/266/49
f 142/272/50 140/267/50 152/262/50
f 134/270/51 148/268/51 155/269/51
f 150/260/52 135/265/52 155/269/52
f 146/255/53 138/254/53 154/266/53
f 144/263/54 142/272/54 153/264/54
