# Blender v2.77 (sub 0) OBJ File: 'lowertank.blend'
# www.blender.org
mtllib sawBlade.mtl
o Saw
v 0.511500 0.683394 0.971596
v 0.511500 0.676035 0.924984
v 0.488500 0.676035 0.924984
v 0.511500 0.865516 0.150095
v 0.511500 0.825269 0.174731
v 0.488500 0.825269 0.174731
v 0.511500 0.075015 0.323966
v 0.511500 -0.005880 0.488962
v 0.488500 -0.005880 0.488962
v 0.511500 0.488962 1.005880
v 0.511500 0.500000 0.960000
v 0.488500 0.500000 0.960000
v 0.511500 0.971596 0.316606
v 0.511500 0.924984 0.323966
v 0.488500 0.924984 0.323966
v 0.511500 0.174731 0.174731
v 0.511500 0.036852 0.296210
v 0.488500 0.036852 0.296210
v 0.511500 0.296210 0.963148
v 0.511500 0.323966 0.924985
v 0.488500 0.323966 0.924985
v 0.511500 0.323966 0.075015
v 0.511500 0.150094 0.134484
v 0.488500 0.150094 0.134484
v 0.511500 0.924985 0.676034
v 0.511500 1.005879 0.511038
v 0.488500 1.005879 0.511038
v 0.511500 0.134484 0.849906
v 0.511500 0.174731 0.825269
v 0.488500 0.174731 0.825269
v 0.488500 0.500000 0.040000
v 0.511500 0.500000 0.040000
v 0.511500 0.316606 0.028404
v 0.511500 0.825269 0.825269
v 0.511500 0.963148 0.703789
v 0.488500 0.963148 0.703789
v 0.511500 0.028404 0.683394
v 0.511500 0.075015 0.676035
v 0.488500 0.075015 0.676035
v 0.488500 0.676034 0.075016
v 0.511500 0.676034 0.075016
v 0.511500 0.511038 -0.005879
v 0.511500 0.849906 0.865516
v 0.488500 0.849906 0.865516
v 0.511500 0.703790 0.036852
v 0.488500 0.703790 0.036852
v 0.511500 0.040000 0.500000
v 0.488500 0.040000 0.500000
v 0.488500 0.683394 0.971596
v 0.488500 0.075015 0.323966
v 0.488500 0.488962 1.005880
v 0.511500 0.960000 0.500000
v 0.488500 0.971596 0.316606
v 0.488500 0.174731 0.174731
v 0.488500 0.960000 0.500000
v 0.488500 0.296210 0.963148
v 0.488500 0.323966 0.075015
v 0.488500 0.134484 0.849906
v 0.488500 0.511038 -0.005879
v 0.488500 0.825269 0.825269
v 0.488500 0.924985 0.676034
v 0.488500 0.865516 0.150095
v 0.488500 0.316606 0.028404
v 0.488500 0.028404 0.683394
vt 0.0625 0.4531
vt 0.0625 0.4375
vt 0.0469 0.4375
vt 0.0625 0.7031
vt 0.0625 0.7031
vt 0.0469 0.7031
vt 0.0625 0.5781
vt 0.0625 0.5625
vt 0.0469 0.5625
vt 0.0625 0.4688
vt 0.0625 0.4688
vt 0.0469 0.4688
vt 0.0625 0.7344
vt 0.0625 0.7188
vt 0.0469 0.7188
vt 0.0625 0.6094
vt 0.0625 0.5938
vt 0.0469 0.5938
vt 0.0625 0.5000
vt 0.0625 0.4844
vt 0.0469 0.4844
vt 0.0625 0.6250
vt 0.0625 0.6094
vt 0.0469 0.6094
vt 0.0625 0.7656
vt 0.0625 0.7500
vt 0.0469 0.7500
vt 0.0625 0.5156
vt 0.0625 0.5156
vt 0.0469 0.5156
vt 0.0469 0.6562
vt 0.0625 0.6562
vt 0.0625 0.6406
vt 0.0625 0.7969
vt 0.0625 0.7812
vt 0.0469 0.7812
vt 0.0625 0.5469
vt 0.0625 0.5312
vt 0.0469 0.5312
vt 0.0469 0.6719
vt 0.0625 0.6719
vt 0.0625 0.6562
vt 0.0625 0.4219
vt 0.0469 0.4219
vt 0.0625 0.6875
vt 0.0469 0.6875
vt 0.0625 0.5625
vt 0.0469 0.5625
vt 0.0469 0.4531
vt 0.0469 0.5781
vt 0.0469 0.4688
vt 0.0625 0.7500
vt 0.0469 0.7344
vt 0.0469 0.6094
vt 0.0469 0.7500
vt 0.0469 0.5000
vt 0.0469 0.6250
vt 0.0469 0.5156
vt 0.0469 0.6562
vt 0.0625 0.4219
vt 0.0469 0.4219
vt 0.2656 0.2812
vt 0.0938 0.3125
vt 0.1250 0.4844
vt 0.2188 0.7656
vt 0.1250 0.7500
vt 0.1719 0.5312
vt 0.0469 0.7031
vt 0.0469 0.7656
vt 0.0469 0.6406
vt 0.0469 0.7969
vt 0.0469 0.5469
vt 0.1094 0.5000
vt 0.1719 0.5000
vt 0.1719 0.5156
vt 0.2188 0.5000
vt 0.2188 0.5156
vt 0.2656 0.4844
vt 0.2656 0.5000
vt 0.2969 0.4531
vt 0.3125 0.4531
vt 0.3125 0.4062
vt 0.3281 0.4062
vt 0.3125 0.3594
vt 0.3281 0.3594
vt 0.2969 0.3125
vt 0.3125 0.3125
vt 0.2656 0.2656
vt 0.2188 0.2656
vt 0.2188 0.2500
vt 0.1719 0.2656
vt 0.1719 0.2500
vt 0.1250 0.2812
vt 0.1094 0.2656
vt 0.0781 0.3125
vt 0.0781 0.3594
vt 0.0625 0.3594
vt 0.0781 0.4062
vt 0.0625 0.4062
vt 0.0938 0.4531
vt 0.0781 0.4531
vt 0.2188 0.5156
vt 0.2188 0.5312
vt 0.2656 0.5312
vt 0.2656 0.5469
vt 0.3125 0.5781
vt 0.2969 0.5781
vt 0.3281 0.6250
vt 0.3125 0.6250
vt 0.3281 0.6719
vt 0.3125 0.6719
vt 0.3125 0.7188
vt 0.2969 0.7188
vt 0.2656 0.7656
vt 0.2656 0.7500
vt 0.2188 0.7812
vt 0.1719 0.7812
vt 0.1719 0.7656
vt 0.1094 0.7656
vt 0.0781 0.7188
vt 0.0938 0.7188
vt 0.0625 0.6719
vt 0.0781 0.6719
vt 0.0625 0.6250
vt 0.0781 0.6250
vt 0.0781 0.5781
vt 0.0938 0.5781
vt 0.1094 0.5312
vt 0.1250 0.5469
vt 0.1719 0.5156
vn 0.0000 0.9878 -0.1559
vn 0.0000 -0.5221 -0.8529
vn 0.0000 -0.8979 -0.4402
vn 0.0000 0.9723 0.2339
vn 0.0000 -0.1560 -0.9878
vn 0.0000 -0.6611 -0.7503
vn 0.0000 0.8087 0.5882
vn 0.0000 -0.3236 -0.9462
vn 0.0000 0.8979 0.4402
vn 0.0000 0.5221 0.8529
vn 0.0000 0.0631 -0.9980
vn 0.0000 0.6611 0.7503
vn 0.0000 0.1559 0.9878
vn 0.0000 0.4402 -0.8979
vn 0.0000 0.3236 0.9462
vn 0.0000 0.7503 -0.6611
vn 0.0000 -0.2339 0.9723
vn 0.0000 -0.0631 0.9980
vn 0.0000 0.9462 -0.3236
vn 0.0000 -0.5882 0.8087
vn 0.0000 -0.4402 0.8979
vn 0.0000 0.9980 0.0631
vn 0.0000 -0.8529 0.5221
vn 0.0000 0.2339 -0.9723
vn 0.0000 -0.7503 0.6611
vn 0.0000 -0.9878 0.1560
vn 0.0000 0.5882 -0.8087
vn 0.0000 -0.9462 0.3236
vn 0.0000 -0.9723 -0.2339
vn 0.0000 0.8529 -0.5221
vn 0.0000 -0.9980 -0.0631
vn 0.0000 -0.8087 -0.5882
vn 1.0000 0.0000 0.0000
vn -1.0000 0.0000 0.0000
usemtl Material
s 1
f 1/1/1 2/2/1 3/3/1
f 4/4/2 5/5/2 6/6/2
f 7/7/3 8/8/3 9/9/3
f 10/10/4 11/11/4 12/12/4
f 13/13/5 14/14/5 15/15/5
f 16/16/6 17/17/6 18/18/6
f 19/19/7 20/20/7 21/21/7
f 22/22/8 23/23/8 24/24/8
f 25/25/9 26/26/9 27/27/9
f 28/28/10 29/29/10 30/30/10
f 31/31/11 32/32/11 33/33/11
f 34/34/12 35/35/12 36/36/12
f 37/37/13 38/38/13 39/39/13
f 40/40/14 41/41/14 42/42/14
f 2/2/15 43/43/15 44/44/15
f 5/5/16 45/45/16 46/46/16
f 8/8/17 47/47/17 48/48/17
f 11/11/18 1/1/18 49/49/18
f 15/15/19 14/14/19 4/4/19
f 17/17/20 7/7/20 50/50/20
f 20/20/21 10/10/21 51/51/21
f 52/52/22 13/13/22 53/53/22
f 23/23/23 16/16/23 54/54/23
f 26/26/24 52/52/24 55/55/24
f 29/29/25 19/19/25 56/56/25
f 33/33/26 22/22/26 57/57/26
f 36/36/27 35/35/27 25/25/27
f 38/38/28 28/28/28 58/58/28
f 59/59/29 42/42/29 32/32/29
f 43/43/30 34/60/30 60/61/30
f 48/48/31 47/47/31 37/37/31
f 45/45/32 41/41/32 40/40/32
f 29/62/33 16/63/33 5/64/33
f 50/65/34 39/66/34 61/67/34
f 49/49/1 1/1/1 3/3/1
f 62/68/2 4/4/2 6/6/2
f 50/50/3 7/7/3 9/9/3
f 51/51/4 10/10/4 12/12/4
f 53/53/5 13/13/5 15/15/5
f 54/54/6 16/16/6 18/18/6
f 56/56/7 19/19/7 21/21/7
f 57/57/8 22/22/8 24/24/8
f 61/69/9 25/25/9 27/27/9
f 58/58/10 28/28/10 30/30/10
f 63/70/11 31/31/11 33/33/11
f 60/71/12 34/34/12 36/36/12
f 64/72/13 37/37/13 39/39/13
f 59/59/14 40/40/14 42/42/14
f 3/3/15 2/2/15 44/44/15
f 6/6/16 5/5/16 46/46/16
f 9/9/17 8/8/17 48/48/17
f 12/12/18 11/11/18 49/49/18
f 62/68/19 15/15/19 4/4/19
f 18/18/20 17/17/20 50/50/20
f 21/21/21 20/20/21 51/51/21
f 55/55/22 52/52/22 53/53/22
f 24/24/23 23/23/23 54/54/23
f 27/27/24 26/26/24 55/55/24
f 30/30/25 29/29/25 56/56/25
f 63/70/26 33/33/26 57/57/26
f 61/69/27 36/36/27 25/25/27
f 39/39/28 38/38/28 58/58/28
f 31/31/29 59/59/29 32/32/29
f 44/44/30 43/43/30 60/61/30
f 64/72/31 48/48/31 37/37/31
f 46/46/32 45/45/32 40/40/32
f 5/64/33 4/73/33 14/74/33
f 14/74/33 13/75/33 52/76/33
f 52/76/33 26/77/33 25/78/33
f 25/78/33 35/79/33 34/80/33
f 34/80/33 43/81/33 2/82/33
f 2/82/33 1/83/33 11/84/33
f 11/84/33 10/85/33 20/86/33
f 20/86/33 19/87/33 29/62/33
f 29/62/33 28/88/33 38/89/33
f 38/89/33 37/90/33 47/91/33
f 47/91/33 8/92/33 7/93/33
f 7/93/33 17/94/33 16/63/33
f 16/63/33 23/95/33 22/96/33
f 22/96/33 33/97/33 32/98/33
f 32/98/33 42/99/33 41/100/33
f 41/100/33 45/101/33 5/64/33
f 5/64/33 14/74/33 52/76/33
f 52/76/33 25/78/33 34/80/33
f 34/80/33 2/82/33 11/84/33
f 11/84/33 20/86/33 29/62/33
f 29/62/33 38/89/33 47/91/33
f 47/91/33 7/93/33 16/63/33
f 5/64/33 22/96/33 32/98/33
f 32/98/33 41/100/33 5/64/33
f 5/64/33 52/76/33 34/80/33
f 5/64/33 11/84/33 29/62/33
f 29/62/33 47/91/33 16/63/33
f 16/63/33 22/96/33 5/64/33
f 5/64/33 34/80/33 11/84/33
f 61/67/34 27/102/34 55/103/34
f 55/103/34 53/104/34 15/105/34
f 15/105/34 62/106/34 6/107/34
f 6/107/34 46/108/34 40/109/34
f 40/109/34 59/110/34 31/111/34
f 31/111/34 63/112/34 57/113/34
f 57/113/34 24/114/34 54/115/34
f 54/115/34 18/116/34 50/65/34
f 50/65/34 9/117/34 48/118/34
f 48/118/34 64/119/34 39/66/34
f 39/66/34 58/120/34 30/121/34
f 30/121/34 56/122/34 21/123/34
f 21/123/34 51/124/34 12/125/34
f 12/125/34 49/126/34 3/127/34
f 3/127/34 44/128/34 60/129/34
f 60/129/34 36/130/34 61/67/34
f 40/109/34 55/103/34 15/105/34
f 15/105/34 6/107/34 40/109/34
f 40/109/34 31/111/34 57/113/34
f 57/113/34 54/115/34 50/65/34
f 50/65/34 48/118/34 39/66/34
f 39/66/34 30/121/34 21/123/34
f 61/67/34 12/125/34 3/127/34
f 3/127/34 60/129/34 61/67/34
f 61/67/34 55/103/34 40/109/34
f 61/67/34 57/113/34 50/65/34
f 61/67/34 39/66/34 21/123/34
f 21/123/34 12/125/34 61/67/34
f 61/67/34 40/109/34 57/113/34
o Chassis
v 0.815000 0.124500 0.000000
v 0.690000 0.124500 0.000000
v 0.690000 0.625000 0.437500
v 0.690000 0.124500 1.000000
v 0.690000 0.625000 0.562500
v 0.815000 0.124500 1.000000
v 0.815000 0.625000 0.562500
v 0.815000 0.625000 0.437500
v 0.690000 -0.000500 0.000000
v 0.690000 -0.000500 1.000000
v 0.815000 -0.000500 1.000000
v 0.815000 -0.000500 0.000000
v 0.315000 0.625000 0.437500
v 0.315000 0.124500 0.000000
v 0.190000 0.124500 0.000000
v 0.315000 0.625000 0.562500
v 0.315000 0.124500 1.000000
v 0.190000 0.625000 0.562500
v 0.190000 0.124500 1.000000
v 0.190000 0.625000 0.437500
v 0.315000 -0.000500 1.000000
v 0.315000 -0.000500 0.000000
v 0.190000 -0.000500 0.000000
v 0.190000 -0.000500 1.000000
v 0.000000 0.582500 0.500000
v 0.000000 0.551250 0.554127
v 1.000000 0.551250 0.554127
v 0.000000 0.488750 0.554127
v 1.000000 0.488750 0.554127
v 0.000000 0.457500 0.500000
v 1.000000 0.457500 0.500000
v 0.000000 0.488750 0.445873
v 0.000000 0.551250 0.445873
v 1.000000 0.582500 0.500000
v 1.000000 0.551250 0.445873
v 1.000000 0.488750 0.445873
vt 0.6719 0.9688
vt 0.6406 0.9688
vt 0.6406 0.7656
vt 0.3281 0.8594
vt 0.6094 0.8594
vt 0.4844 1.0000
vt 0.6406 0.9688
vt 0.6094 0.9688
vt 0.6094 0.7656
vt 0.6094 0.7969
vt 0.3281 0.7969
vt 0.4531 0.6562
vt 0.3281 0.8281
vt 0.6094 0.8281
vt 0.6094 0.7344
vt 0.6406 0.7344
vt 0.6406 0.7656
vt 0.6094 0.8281
vt 0.3281 0.8281
vt 0.6406 1.0000
vt 0.6094 1.0000
vt 0.6719 1.0000
vt 0.6406 1.0000
vt 0.6406 0.7656
vt 0.6406 0.9688
vt 0.6719 0.9688
vt 0.4844 1.0000
vt 0.6094 0.8594
vt 0.3281 0.8594
vt 0.6094 0.7656
vt 0.6094 0.9688
vt 0.6406 0.9688
vt 0.4531 0.6562
vt 0.3281 0.7969
vt 0.6094 0.7969
vt 0.6094 0.8281
vt 0.3281 0.8281
vt 0.6406 0.7656
vt 0.6406 0.7344
vt 0.6094 0.7344
vt 0.3281 0.8281
vt 0.6094 0.8281
vt 0.6094 1.0000
vt 0.6406 1.0000
vt 0.6406 1.0000
vt 0.6719 1.0000
vt 0.2969 0.7969
vt 0.2812 0.7969
vt 0.2812 1.0000
vt 0.2656 0.7969
vt 0.2656 1.0000
vt 0.2500 0.7969
vt 0.2500 1.0000
vt 0.2344 0.7969
vt 0.2969 1.0000
vt 0.3125 0.9844
vt 0.2969 0.9844
vt 0.2344 0.7969
vt 0.2188 0.7969
vt 0.2188 1.0000
vt 0.2344 1.0000
vt 0.3125 0.9844
vt 0.3125 0.9688
vt 0.2969 0.9844
vt 0.6719 0.7656
vt 0.4531 1.0000
vt 0.4844 0.6562
vt 0.6719 0.7656
vt 0.4531 1.0000
vt 0.4844 0.6562
vt 0.2969 1.0000
vt 0.2344 1.0000
vt 0.2969 0.9844
vt 0.2969 0.9844
vt 0.3125 0.9844
vt 0.2969 0.9844
vt 0.2969 0.9688
vt 0.2969 0.9688
vn 0.0000 0.6581 -0.7529
vn -1.0000 0.0000 0.0000
vn 0.0000 0.6581 0.7529
vn 1.0000 0.0000 0.0000
vn 0.0000 1.0000 0.0000
vn 0.0000 0.0000 1.0000
vn 0.0000 0.0000 -1.0000
vn 0.0000 0.8660 0.5000
vn 0.0000 -0.8660 0.5000
vn 0.0000 -0.8660 -0.5000
vn 0.0000 0.8660 -0.5000
usemtl Material
s 1
f 65/131/35 66/132/35 67/133/35
f 66/134/36 68/135/36 69/136/36
f 68/137/37 70/138/37 71/139/37
f 70/140/38 65/141/38 72/142/38
f 73/143/36 74/144/36 68/135/36
f 72/145/39 67/146/39 69/147/39
f 75/148/38 76/149/38 65/141/38
f 74/150/40 75/151/40 70/138/40
f 76/152/41 73/153/41 66/132/41
f 77/154/35 78/155/35 79/156/35
f 80/157/38 81/158/38 78/159/38
f 82/160/37 83/161/37 81/162/37
f 84/163/36 79/164/36 83/165/36
f 81/158/38 85/166/38 86/167/38
f 80/168/39 77/169/39 84/170/39
f 79/164/36 87/171/36 88/172/36
f 83/161/40 88/173/40 85/174/40
f 78/155/41 86/175/41 87/176/41
f 89/177/42 90/178/42 91/179/42
f 90/178/40 92/180/40 93/181/40
f 92/180/43 94/182/43 95/183/43
f 95/183/44 94/182/44 96/184/44
f 90/185/36 97/186/36 94/187/36
f 97/188/45 89/189/45 98/190/45
f 96/184/41 97/188/41 99/191/41
f 98/192/38 91/193/38 100/194/38
f 72/195/35 65/131/35 67/133/35
f 67/196/36 66/134/36 69/136/36
f 69/147/37 68/137/37 71/139/37
f 71/197/38 70/140/38 72/142/38
f 66/134/36 73/143/36 68/135/36
f 71/139/39 72/145/39 69/147/39
f 70/140/38 75/148/38 65/141/38
f 68/137/40 74/150/40 70/138/40
f 65/131/41 76/152/41 66/132/41
f 84/198/35 77/154/35 79/156/35
f 77/199/38 80/157/38 78/159/38
f 80/168/37 82/160/37 81/162/37
f 82/200/36 84/163/36 83/165/36
f 78/159/38 81/158/38 86/167/38
f 82/160/39 80/168/39 84/170/39
f 83/165/36 79/164/36 88/172/36
f 81/162/40 83/161/40 85/174/40
f 79/156/41 78/155/41 87/176/41
f 98/201/42 89/177/42 91/179/42
f 91/179/40 90/178/40 93/181/40
f 93/181/43 92/180/43 95/183/43
f 100/202/44 95/183/44 96/184/44
f 94/187/36 92/203/36 90/185/36
f 97/186/36 96/204/36 94/187/36
f 90/185/36 89/205/36 97/186/36
f 99/191/45 97/188/45 98/190/45
f 100/202/41 96/184/41 99/191/41
f 100/194/38 99/206/38 98/192/38
f 93/207/38 95/208/38 100/194/38
f 100/194/38 91/193/38 93/207/38
