# Blender v2.78 (sub 0) OBJ File: ''
# www.blender.org
mtllib advancedbipropellantrocketengine.mtl
o Material
v 0.050000 0.760000 0.400000
v 0.093301 0.577936 0.425000
v 0.050000 0.560000 0.400000
v 0.006699 0.760000 0.425000
v 0.006699 0.542064 0.425000
v 0.006699 0.760000 0.475000
v 0.050000 0.560000 0.500000
v 0.050000 0.760000 0.500000
v 0.093301 0.577936 0.475000
v 0.093301 0.760000 0.475000
v 0.093301 0.760000 0.425000
v 0.187823 0.416497 0.414000
v 0.209869 0.438542 0.432000
v 0.165778 0.394452 0.432000
v 0.006699 0.542064 0.475000
v 0.165778 0.394452 0.468000
v 0.187823 0.416497 0.486000
v 0.209869 0.438542 0.468000
v 0.950000 0.760000 0.600000
v 0.906699 0.577936 0.575000
v 0.950000 0.560000 0.600000
v 0.993301 0.760000 0.575000
v 0.993301 0.542064 0.575000
v 0.993301 0.760000 0.525000
v 0.950000 0.560000 0.500000
v 0.950000 0.760000 0.500000
v 0.906699 0.577936 0.525000
v 0.906699 0.760000 0.525000
v 0.906699 0.760000 0.575000
v 0.812177 0.416497 0.586000
v 0.790131 0.438542 0.568000
v 0.834222 0.394452 0.568000
v 0.993301 0.542064 0.525000
v 0.834222 0.394452 0.532000
v 0.812177 0.416497 0.514000
v 0.790131 0.438542 0.532000
v 0.050000 0.760000 0.500000
v 0.093301 0.577936 0.525000
v 0.050000 0.560000 0.500000
v 0.006699 0.760000 0.525000
v 0.006699 0.542064 0.525000
v 0.006699 0.760000 0.575000
v 0.050000 0.560000 0.600000
v 0.050000 0.760000 0.600000
v 0.093301 0.577936 0.575000
v 0.093301 0.760000 0.575000
v 0.093301 0.760000 0.525000
v 0.187823 0.416497 0.514000
v 0.209869 0.438542 0.532000
v 0.165778 0.394452 0.532000
v 0.006699 0.542064 0.575000
v 0.165778 0.394452 0.568000
v 0.187823 0.416497 0.586000
v 0.209869 0.438542 0.568000
v 0.950000 0.760000 0.500000
v 0.906699 0.577936 0.475000
v 0.950000 0.560000 0.500000
v 0.993301 0.760000 0.475000
v 0.993301 0.542064 0.475000
v 0.993301 0.760000 0.425000
v 0.950000 0.560000 0.400000
v 0.950000 0.760000 0.400000
v 0.906699 0.577936 0.425000
v 0.906699 0.760000 0.425000
v 0.906699 0.760000 0.475000
v 0.812177 0.416497 0.486000
v 0.790131 0.438542 0.468000
v 0.834222 0.394452 0.468000
v 0.993301 0.542064 0.425000
v 0.834222 0.394452 0.432000
v 0.812177 0.416497 0.414000
v 0.790131 0.438542 0.432000
v 0.302010 0.456373 0.302010
v 0.500000 0.005000 -0.000500
v 0.500000 0.456373 0.220000
v 1.000000 1.000000 0.000000
v 0.000000 0.750000 0.000000
v 0.000000 1.000000 0.000000
v 0.000000 0.750000 1.000000
v 0.000000 1.000000 1.000000
v 0.146093 0.005000 0.853907
v 0.170542 0.403115 0.500000
v -0.000500 0.005000 0.500000
v 1.000000 1.000000 1.000000
v 1.000000 0.750000 0.000000
v 1.000000 0.750000 1.000000
v 0.220000 0.456373 0.500000
v 0.302010 0.456373 0.697990
v 0.500000 0.005000 1.000500
v 0.500000 0.456373 0.780000
v 0.853907 0.005000 0.146093
v 0.853907 0.005000 0.853907
v 0.780000 0.456373 0.500000
v 1.000500 0.005000 0.500000
v 0.697990 0.456373 0.302010
v 0.732960 0.403115 0.267040
v 0.800000 0.755000 0.500000
v 0.829458 0.403115 0.500000
v 0.697990 0.456373 0.697990
v 0.500000 0.755000 0.200000
v 0.500000 0.403115 0.170542
v 0.267040 0.403115 0.732960
v 0.200000 0.755000 0.500000
v 0.732960 0.403115 0.732960
v 0.267040 0.403115 0.267040
v 0.500000 0.755000 0.800000
v 0.500000 0.403115 0.829458
v 0.287868 0.755000 0.712132
v 0.146093 0.005000 0.146093
v 0.712132 0.755000 0.287868
v 0.712132 0.755000 0.712132
v 0.287868 0.755000 0.287868
vt 0.9493 0.2636
vt 0.9602 0.3123
vt 0.9464 0.3124
vt 0.9369 0.2628
vt 0.9346 0.3124
vt 0.9235 0.2625
vt 0.9119 0.3127
vt 0.9110 0.2627
vt 0.9836 0.2629
vt 0.9745 0.3127
vt 0.9721 0.2637
vt 0.9607 0.2639
vt 0.9493 0.3616
vt 0.9608 0.3612
vt 0.9369 0.3623
vt 0.9240 0.3127
vt 0.9234 0.3625
vt 0.9836 0.3621
vt 0.9885 0.3127
vt 0.9723 0.3614
vt 0.9493 0.3886
vt 0.9602 0.4373
vt 0.9464 0.4374
vt 0.9369 0.3878
vt 0.9346 0.4374
vt 0.9235 0.3875
vt 0.9119 0.4377
vt 0.9110 0.3877
vt 0.9836 0.3879
vt 0.9745 0.4377
vt 0.9721 0.3887
vt 0.9607 0.3889
vt 0.9493 0.4866
vt 0.9608 0.4862
vt 0.9369 0.4873
vt 0.9240 0.4377
vt 0.9234 0.4875
vt 0.9836 0.4871
vt 0.9885 0.4377
vt 0.9723 0.4864
vt 0.9493 0.3886
vt 0.9602 0.4373
vt 0.9464 0.4374
vt 0.9369 0.3878
vt 0.9346 0.4374
vt 0.9235 0.3875
vt 0.9119 0.4377
vt 0.9110 0.3877
vt 0.9836 0.3879
vt 0.9745 0.4377
vt 0.9721 0.3887
vt 0.9607 0.3889
vt 0.9493 0.4866
vt 0.9608 0.4862
vt 0.9369 0.4873
vt 0.9240 0.4377
vt 0.9234 0.4875
vt 0.9836 0.4871
vt 0.9885 0.4377
vt 0.9723 0.4864
vt 0.9493 0.2636
vt 0.9602 0.3123
vt 0.9464 0.3124
vt 0.9369 0.2628
vt 0.9346 0.3124
vt 0.9235 0.2625
vt 0.9119 0.3127
vt 0.9110 0.2627
vt 0.9836 0.2629
vt 0.9745 0.3127
vt 0.9721 0.2637
vt 0.9607 0.2639
vt 0.9493 0.3616
vt 0.9608 0.3612
vt 0.9369 0.3623
vt 0.9240 0.3127
vt 0.9234 0.3625
vt 0.9836 0.3621
vt 0.9885 0.3127
vt 0.9723 0.3614
vt 0.9110 0.3623
vt 0.9110 0.4873
vt 0.9110 0.4873
vt 0.9110 0.3623
vt 0.6250 0.7500
vt 0.5000 0.5000
vt 0.5000 0.7500
vt 0.0938 0.0938
vt 0.4062 0.0000
vt 0.4062 0.0938
vt 0.5000 0.4062
vt 0.4062 0.4062
vt 0.8750 0.7500
vt 0.7500 0.8750
vt 0.7500 0.7500
vt 0.0938 0.4062
vt 0.0000 0.0938
vt 0.0938 0.5000
vt 0.7500 0.5000
vt 0.7500 0.7500
vt 0.8750 0.5000
vt 0.8750 0.7500
vt 1.0000 0.5000
vt 1.0000 0.7500
vt 0.3750 0.5000
vt 0.9688 0.0312
vt 1.0000 0.1250
vt 0.9688 0.1562
vt 0.1250 0.5000
vt 0.2500 0.7500
vt 0.2500 0.5000
vt 0.3750 0.7500
vt 0.9062 0.1562
vt 0.8750 0.0625
vt 0.8750 0.1250
vt 0.3750 0.8750
vt 0.2500 1.0000
vt 0.2500 0.8750
vt 0.0000 0.5000
vt 0.1250 0.7500
vt 0.5000 1.0000
vt 0.5000 0.8750
vt 0.8750 0.8750
vt 0.7500 1.0000
vt 0.1250 0.8750
vt 0.6250 0.8750
vt 0.0000 1.0000
vt 0.0000 0.8750
vt 1.0000 1.0000
vt 0.8750 1.0000
vt 0.6250 0.7500
vt 1.0000 0.8750
vt 0.1250 0.7500
vt 0.2500 0.7500
vt 0.0000 0.7500
vt 0.3750 0.7500
vt 0.5000 0.7500
vt 0.8125 0.4062
vt 0.5000 0.0938
vt 0.8125 0.0938
vt 0.6250 0.5000
vt 0.0938 0.0000
vt 0.0000 0.4062
vt 0.4062 0.5000
vt 1.0000 0.0625
vt 0.9062 0.0312
vt 0.3750 1.0000
vt 0.0000 0.7500
vt 0.1250 1.0000
vt 0.6250 1.0000
vt 1.0000 0.7500
vn 0.5000 0.0000 -0.8660
vn -0.5000 0.0000 -0.8660
vn -1.0000 0.0000 0.0000
vn -0.5000 0.0000 0.8660
vn 0.5000 -0.0000 0.8660
vn 1.0000 0.0000 0.0000
vn 0.4075 0.2974 -0.8634
vn -0.3303 -0.3965 -0.8565
vn -0.6802 -0.7330 0.0000
vn -0.3303 -0.3965 0.8565
vn 0.3873 0.2865 0.8763
vn 0.7671 0.6415 0.0000
vn -0.4075 0.2974 0.8634
vn 0.3303 -0.3965 0.8565
vn 0.6802 -0.7330 0.0000
vn 0.3303 -0.3965 -0.8565
vn -0.3873 0.2865 -0.8763
vn -0.7671 0.6415 0.0000
vn 0.3873 0.2865 -0.8763
vn -0.3172 -0.3890 -0.8649
vn -0.3172 -0.3890 0.8649
vn 0.4075 0.2974 0.8634
vn -0.3873 0.2865 0.8763
vn 0.3172 -0.3890 0.8649
vn 0.3172 -0.3890 -0.8649
vn -0.4075 0.2974 -0.8634
vn 0.3488 -0.4114 0.8421
vn 0.0000 0.0000 -1.0000
vn -0.3883 -0.3253 0.8622
vn -0.8587 0.3689 0.3557
vn -0.8854 -0.3239 -0.3335
vn 0.0000 1.0000 0.0000
vn 0.0000 0.0000 1.0000
vn 0.8421 -0.4114 0.3488
vn 0.8421 -0.4114 -0.3488
vn 0.3488 -0.4114 -0.8421
vn -0.3488 -0.4114 0.8421
vn -0.0000 -1.0000 0.0000
vn -0.8421 -0.4114 -0.3488
vn -0.8421 -0.4114 0.3488
vn 0.9211 0.0771 -0.3816
vn -0.3488 -0.4114 -0.8421
vn 0.3815 0.0771 -0.9211
vn 0.3816 0.0771 -0.9211
vn -0.9211 0.0771 0.3816
vn 0.9211 0.0771 0.3815
vn 0.9211 0.0771 0.3816
vn -0.3816 0.0771 -0.9211
vn -0.9211 0.0771 -0.3815
vn -0.9211 0.0771 -0.3816
vn 0.3816 0.0771 0.9211
vn -0.3816 0.0771 0.9211
vn -0.3815 0.0771 0.9211
vn -0.8587 0.3689 -0.3557
vn -0.3883 -0.3254 -0.8622
vn -0.8854 -0.3237 0.3335
vn -0.8622 -0.3254 0.3883
vn -0.3557 0.3689 0.8587
vn 0.8587 0.3689 0.3557
vn 0.3890 -0.3249 0.8621
vn 0.8854 -0.3237 -0.3335
vn 0.8621 -0.3247 0.3890
vn 0.3557 0.3689 0.8587
vn -0.3346 -0.3247 0.8846
vn 0.3557 0.3689 -0.8587
vn 0.8622 -0.3254 -0.3883
vn -0.3335 -0.3239 -0.8854
vn -0.8622 -0.3253 -0.3883
vn -0.3557 0.3689 -0.8587
vn 0.3335 -0.3237 -0.8854
vn 0.3883 -0.3253 -0.8622
vn 0.8587 0.3689 -0.3557
vn 0.8854 -0.3239 0.3335
vn 0.9211 0.0771 -0.3815
vn -0.9211 0.0771 0.3815
vn -0.3815 0.0771 -0.9211
vn 0.3815 0.0771 0.9211
vn 0.3345 -0.3248 0.8847
usemtl Material
f 1/1/1 2/2/1 3/3/1
f 3/3/2 4/4/2 1/1/2
f 5/5/3 6/6/3 4/4/3
f 6/6/4 7/7/4 8/8/4
f 8/9/5 9/10/5 10/11/5
f 9/10/6 11/12/6 10/11/6
f 12/13/7 2/2/7 13/14/7
f 3/3/8 14/15/8 5/5/8
f 14/15/9 15/16/9 5/5/9
f 16/17/10 7/7/10 15/16/10
f 17/18/11 9/10/11 7/19/11
f 18/20/12 2/2/12 9/10/12
f 19/21/4 20/22/4 21/23/4
f 21/23/5 22/24/5 19/21/5
f 23/25/6 24/26/6 22/24/6
f 24/26/1 25/27/1 26/28/1
f 26/29/2 27/30/2 28/31/2
f 27/30/3 29/32/3 28/31/3
f 30/33/13 20/22/13 31/34/13
f 21/23/14 32/35/14 23/25/14
f 32/35/15 33/36/15 23/25/15
f 34/37/16 25/27/16 33/36/16
f 35/38/17 27/30/17 25/39/17
f 36/40/18 20/22/18 27/30/18
f 37/41/1 38/42/1 39/43/1
f 39/43/2 40/44/2 37/41/2
f 41/45/3 42/46/3 40/44/3
f 42/46/4 43/47/4 44/48/4
f 44/49/5 45/50/5 46/51/5
f 45/50/6 47/52/6 46/51/6
f 48/53/7 38/42/7 49/54/7
f 39/43/8 50/55/8 41/45/8
f 50/55/9 51/56/9 41/45/9
f 52/57/10 43/47/10 51/56/10
f 53/58/11 45/50/11 43/59/11
f 54/60/12 38/42/12 45/50/12
f 55/61/4 56/62/4 57/63/4
f 57/63/5 58/64/5 55/61/5
f 59/65/6 60/66/6 58/64/6
f 60/66/1 61/67/1 62/68/1
f 62/69/2 63/70/2 64/71/2
f 63/70/3 65/72/3 64/71/3
f 66/73/13 56/62/13 67/74/13
f 57/63/14 68/75/14 59/65/14
f 68/75/15 69/76/15 59/65/15
f 70/77/16 61/67/16 69/76/16
f 71/78/17 63/70/17 61/79/17
f 72/80/18 56/62/18 63/70/18
f 1/1/1 11/12/1 2/2/1
f 3/3/2 5/5/2 4/4/2
f 5/5/3 15/16/3 6/6/3
f 6/6/4 15/16/4 7/7/4
f 8/9/5 7/19/5 9/10/5
f 9/10/6 2/2/6 11/12/6
f 12/13/19 3/3/19 2/2/19
f 3/3/20 12/13/20 14/15/20
f 14/15/9 16/17/9 15/16/9
f 16/17/21 17/81/21 7/7/21
f 17/18/22 18/20/22 9/10/22
f 18/20/12 13/14/12 2/2/12
f 19/21/4 29/32/4 20/22/4
f 21/23/5 23/25/5 22/24/5
f 23/25/6 33/36/6 24/26/6
f 24/26/1 33/36/1 25/27/1
f 26/29/2 25/39/2 27/30/2
f 27/30/3 20/22/3 29/32/3
f 30/33/23 21/23/23 20/22/23
f 21/23/24 30/33/24 32/35/24
f 32/35/15 34/37/15 33/36/15
f 34/37/25 35/82/25 25/27/25
f 35/38/26 36/40/26 27/30/26
f 36/40/18 31/34/18 20/22/18
f 37/41/1 47/52/1 38/42/1
f 39/43/2 41/45/2 40/44/2
f 41/45/3 51/56/3 42/46/3
f 42/46/4 51/56/4 43/47/4
f 44/49/5 43/59/5 45/50/5
f 45/50/6 38/42/6 47/52/6
f 48/53/19 39/43/19 38/42/19
f 39/43/20 48/53/20 50/55/20
f 50/55/9 52/57/9 51/56/9
f 52/57/21 53/83/21 43/47/21
f 53/58/22 54/60/22 45/50/22
f 54/60/12 49/54/12 38/42/12
f 55/61/4 65/72/4 56/62/4
f 57/63/5 59/65/5 58/64/5
f 59/65/6 69/76/6 60/66/6
f 60/66/1 69/76/1 61/67/1
f 62/69/2 61/79/2 63/70/2
f 63/70/3 56/62/3 65/72/3
f 66/73/23 57/63/23 56/62/23
f 57/63/24 66/73/24 68/75/24
f 68/75/15 70/77/15 69/76/15
f 70/77/25 71/84/25 61/67/25
f 71/78/26 72/80/26 63/70/26
f 72/80/18 67/74/18 56/62/18
f 73/85/27 74/86/27 75/87/27
f 76/88/28 77/89/28 78/90/28
f 78/90/3 79/91/3 80/92/3
f 81/93/29 82/94/30 83/95/31
f 80/92/32 76/88/32 78/90/32
f 84/96/6 85/97/6 76/88/6
f 80/92/33 86/98/33 84/96/33
f 83/99/34 73/85/34 87/100/34
f 81/101/35 87/100/35 88/102/35
f 89/103/36 88/102/36 90/104/36
f 91/105/37 75/87/37 74/86/37
f 90/106/38 87/107/38 73/108/38
f 92/109/39 93/110/39 94/111/39
f 94/111/40 95/112/40 91/105/40
f 75/113/38 90/106/38 73/108/38
f 93/114/38 75/113/38 95/115/38
f 96/116/41 97/117/41 98/118/41
f 89/119/42 99/120/42 92/109/42
f 100/121/43 96/116/44 101/122/44
f 102/123/45 103/124/45 82/94/45
f 97/117/46 104/125/47 98/118/47
f 105/126/48 100/121/48 101/122/48
f 103/124/49 105/126/50 82/94/50
f 104/125/51 106/127/51 107/128/51
f 102/123/52 106/129/53 108/130/53
f 82/94/54 109/131/55 83/95/56
f 81/93/57 107/132/58 102/123/58
f 98/118/59 92/133/60 94/134/61
f 92/133/62 107/128/63 89/135/64
f 101/122/65 91/136/66 74/137/67
f 109/131/68 101/122/69 74/137/70
f 91/136/71 98/118/72 94/134/73
f 86/138/38 77/139/38 85/140/38
f 73/85/27 109/141/27 74/86/27
f 76/88/28 85/142/28 77/89/28
f 78/90/3 77/139/3 79/91/3
f 81/93/29 102/123/30 82/94/30
f 80/92/32 84/96/32 76/88/32
f 84/96/6 86/143/6 85/97/6
f 80/92/33 79/144/33 86/98/33
f 83/99/34 109/141/34 73/85/34
f 81/101/35 83/99/35 87/100/35
f 89/103/36 81/101/36 88/102/36
f 91/105/37 95/112/37 75/87/37
f 90/106/38 88/145/38 87/107/38
f 92/109/39 99/120/39 93/110/39
f 94/111/40 93/110/40 95/112/40
f 75/113/38 99/146/38 90/106/38
f 93/114/38 99/146/38 75/113/38
f 96/116/74 110/147/74 97/117/74
f 89/119/42 90/148/42 99/120/42
f 100/121/43 110/147/43 96/116/44
f 102/123/75 108/130/75 103/124/75
f 97/117/46 111/149/46 104/125/47
f 105/126/76 112/150/76 100/121/76
f 103/124/49 112/150/49 105/126/50
f 104/125/77 111/149/77 106/127/77
f 102/123/52 107/132/52 106/129/53
f 82/94/54 105/126/54 109/131/55
f 81/93/57 89/151/78 107/132/58
f 98/118/59 104/125/59 92/133/60
f 92/133/62 104/125/63 107/128/63
f 101/122/65 96/116/65 91/136/66
f 109/131/68 105/126/69 101/122/69
f 91/136/71 96/116/72 98/118/72
f 86/138/38 79/91/38 77/139/38
