# Blender v2.79 (sub 0) OBJ File: ''
# www.blender.org
mtllib tank.mtl
o tank
v 1.000000 1.000000 0.750000
v 1.000000 -0.000000 0.750000
v 1.000000 1.000000 0.250000
v 1.000000 -0.000000 0.250000
v 0.000000 1.000000 0.750000
v -0.000000 0.000000 0.750000
v 0.000000 1.000000 0.250000
v -0.000000 0.000000 0.250000
v 1.000000 1.000000 0.250000
v 1.000000 -0.000000 0.250000
v 0.750000 1.000000 0.000000
v 0.750000 -0.000000 0.000000
v 0.000000 1.000000 0.250000
v -0.000000 0.000000 0.250000
v 0.250000 1.000000 0.000000
v 0.250000 0.000000 0.000000
v 0.750000 1.000000 1.000000
v 0.750000 -0.000000 1.000000
v 1.000000 1.000000 0.750000
v 1.000000 -0.000000 0.750000
v 0.250000 1.000000 1.000000
v 0.250000 0.000000 1.000000
v 0.000000 1.000000 0.750000
v -0.000000 0.000000 0.750000
v -0.000000 1.000000 0.250000
v 0.000000 -0.000000 0.250000
v -0.000000 1.000000 0.750000
v 0.000000 -0.000000 0.750000
v 1.000000 1.000000 0.250000
v 1.000000 0.000000 0.250000
v 1.000000 1.000000 0.750000
v 1.000000 0.000000 0.750000
vt 0.000000 0.375000
vt 0.500000 0.375000
vt 0.500000 0.625000
vt 0.000000 0.625000
vt 0.000000 0.375000
vt 0.500000 0.375000
vt 0.500000 0.625000
vt 0.000000 0.625000
vt 0.000000 0.625000
vt 0.500000 0.625000
vt 0.500000 0.750000
vt 0.000000 0.750000
vt 0.000000 0.375000
vt 0.500000 0.375000
vt 0.500000 0.625000
vt 0.000000 0.625000
vt 0.500000 0.750000
vt 0.000000 0.750000
vt 0.625000 0.500000
vt 0.875000 0.500000
vt 1.000000 0.625000
vt 0.500000 0.625000
vt 0.625000 0.500000
vt 0.875000 0.500000
vt 1.000000 0.625000
vt 0.500000 0.625000
vt 0.000000 0.625000
vt 0.500000 0.625000
vt 0.500000 0.750000
vt 0.000000 0.750000
vt 0.000000 0.625000
vt 0.500000 0.625000
vt 0.500000 0.750000
vt 0.000000 0.750000
vt 0.000000 0.375000
vt 0.500000 0.375000
vt 0.500000 0.875000
vt 1.000000 0.875000
vt 0.875000 1.000000
vt 0.625000 1.000000
vt 0.500000 0.875000
vt 1.000000 0.875000
vt 0.875000 1.000000
vt 0.625000 1.000000
vt 0.500000 0.625000
vt 1.000000 0.625000
vt 1.000000 0.875000
vt 0.500000 0.875000
vt 0.500000 0.625000
vt 1.000000 0.625000
vt 1.000000 0.875000
vt 0.500000 0.875000
vn 1.0000 -0.0000 0.0000
vn -1.0000 0.0000 0.0000
vn 0.7071 -0.0000 -0.7071
vn 0.0000 0.0000 -1.0000
vn -0.7071 0.0000 -0.7071
vn 0.0000 1.0000 0.0000
vn -0.0000 -1.0000 0.0000
vn 0.7071 -0.0000 0.7071
vn -0.7071 0.0000 0.7071
vn 0.0000 0.0000 1.0000
usemtl tank
s off
f 1/1/1 2/2/1 4/3/1 3/4/1
f 7/5/2 8/6/2 6/7/2 5/8/2
f 9/9/3 10/10/3 12/11/3 11/12/3
f 11/13/4 12/14/4 16/15/4 15/16/4
f 15/16/5 16/15/5 14/17/5 13/18/5
f 11/19/6 15/20/6 13/21/6 9/22/6
f 16/23/7 12/24/7 10/25/7 14/26/7
f 17/27/8 18/28/8 20/29/8 19/30/8
f 23/31/9 24/32/9 22/33/9 21/34/9
f 21/35/10 22/36/10 18/28/10 17/27/10
f 19/37/6 23/38/6 21/39/6 17/40/6
f 24/41/7 20/42/7 18/43/7 22/44/7
f 27/45/6 31/46/6 29/47/6 25/48/6
f 32/49/7 28/50/7 26/51/7 30/52/7
