# Blender v2.79 (sub 0) OBJ File: 'rocket.blend'
# www.blender.org
mtllib nuclearrocketengine.mtl
o rocketmotor
v 0.302010 0.456373 0.302010
v 0.500000 0.005000 -0.000500
v 0.500000 0.456373 0.220000
v 1.000000 1.000000 0.000000
v 0.000000 0.750000 0.000000
v 0.000000 1.000000 0.000000
v 0.000000 0.750000 1.000000
v 0.000000 1.000000 1.000000
v 0.146093 0.005000 0.853907
v 0.042419 0.399992 0.500000
v -0.000500 0.005000 0.500000
v 1.000000 1.000000 1.000000
v 1.000000 0.750000 0.000000
v 1.000000 0.750000 1.000000
v 0.146093 0.005000 0.146093
v 0.220000 0.456373 0.500000
v 0.302010 0.456373 0.697990
v 0.500000 0.005000 1.000500
v 0.500000 0.456373 0.780000
v 0.697990 0.456373 0.302010
v 0.853907 0.005000 0.853907
v 0.780000 0.456373 0.500000
v 1.000500 0.005000 0.500000
v 0.853907 0.005000 0.146093
v 0.823556 0.399993 0.176444
v 0.800000 0.755000 0.500000
v 0.957581 0.399992 0.500000
v 0.697990 0.456373 0.697990
v 0.500000 0.755000 0.200000
v 0.500000 0.399992 0.042419
v 0.176444 0.399993 0.823556
v 0.200000 0.755000 0.500000
v 0.823556 0.399993 0.823556
v 0.176444 0.399993 0.176444
v 0.500000 0.755000 0.800000
v 0.500000 0.399992 0.957581
v 0.287868 0.755000 0.712132
v 0.712132 0.755000 0.287868
v 0.712132 0.755000 0.712132
v 0.287868 0.755000 0.287868
v 0.790131 0.438542 0.432000
v 0.812177 0.416497 0.414000
v 0.834222 0.394452 0.432000
v 0.993301 0.542064 0.425000
v 0.834222 0.394452 0.468000
v 0.790131 0.438542 0.468000
v 0.812177 0.416497 0.486000
v 0.906699 0.760000 0.475000
v 0.906699 0.760000 0.425000
v 0.906699 0.577936 0.425000
v 0.950000 0.760000 0.400000
v 0.950000 0.560000 0.400000
v 0.993301 0.760000 0.425000
v 0.993301 0.542064 0.475000
v 0.993301 0.760000 0.475000
v 0.950000 0.560000 0.500000
v 0.906699 0.577936 0.475000
v 0.950000 0.760000 0.500000
v 0.209869 0.438542 0.568000
v 0.187823 0.416497 0.586000
v 0.165778 0.394452 0.568000
v 0.006699 0.542064 0.575000
v 0.165778 0.394452 0.532000
v 0.209869 0.438542 0.532000
v 0.187823 0.416497 0.514000
v 0.093301 0.760000 0.525000
v 0.093301 0.760000 0.575000
v 0.093301 0.577936 0.575000
v 0.050000 0.760000 0.600000
v 0.050000 0.560000 0.600000
v 0.006699 0.760000 0.575000
v 0.006699 0.542064 0.525000
v 0.006699 0.760000 0.525000
v 0.050000 0.560000 0.500000
v 0.093301 0.577936 0.525000
v 0.050000 0.760000 0.500000
v 0.790131 0.438542 0.532000
v 0.812177 0.416497 0.514000
v 0.834222 0.394452 0.532000
v 0.993301 0.542064 0.525000
v 0.834222 0.394452 0.568000
v 0.790131 0.438542 0.568000
v 0.812177 0.416497 0.586000
v 0.906699 0.760000 0.575000
v 0.906699 0.760000 0.525000
v 0.906699 0.577936 0.525000
v 0.950000 0.760000 0.500000
v 0.950000 0.560000 0.500000
v 0.993301 0.760000 0.525000
v 0.993301 0.542064 0.575000
v 0.993301 0.760000 0.575000
v 0.950000 0.560000 0.600000
v 0.906699 0.577936 0.575000
v 0.950000 0.760000 0.600000
v 0.209869 0.438542 0.468000
v 0.187823 0.416497 0.486000
v 0.165778 0.394452 0.468000
v 0.006699 0.542064 0.475000
v 0.165778 0.394452 0.432000
v 0.209869 0.438542 0.432000
v 0.187823 0.416497 0.414000
v 0.093301 0.760000 0.425000
v 0.093301 0.760000 0.475000
v 0.093301 0.577936 0.475000
v 0.050000 0.760000 0.500000
v 0.050000 0.560000 0.500000
v 0.006699 0.760000 0.475000
v 0.006699 0.542064 0.425000
v 0.006699 0.760000 0.425000
v 0.050000 0.560000 0.400000
v 0.093301 0.577936 0.425000
v 0.050000 0.760000 0.400000
vt 0.625000 0.750000
vt 0.500000 0.500000
vt 0.500000 0.750000
vt 0.093800 0.093800
vt 0.406200 0.000000
vt 0.406200 0.093800
vt 0.500000 0.406200
vt 0.406200 0.406200
vt 0.875000 0.750000
vt 0.750000 0.875000
vt 0.750000 0.750000
vt 0.093800 0.406200
vt 0.000000 0.093800
vt 0.093800 0.500000
vt 0.625000 0.500000
vt 0.750000 0.750000
vt 0.750000 0.500000
vt 0.875000 0.750000
vt 1.000000 0.500000
vt 1.000000 0.750000
vt 0.375000 0.750000
vt 0.968800 0.031200
vt 1.000000 0.125000
vt 0.968800 0.156200
vt 0.125000 0.500000
vt 0.250000 0.750000
vt 0.250000 0.500000
vt 0.375000 0.500000
vt 0.906200 0.156200
vt 0.875000 0.062500
vt 0.875000 0.125000
vt 0.375000 0.875000
vt 0.250000 1.000000
vt 0.250000 0.875000
vt 0.000000 0.500000
vt 0.125000 0.750000
vt 0.500000 1.000000
vt 0.500000 0.875000
vt 0.875000 0.875000
vt 0.750000 1.000000
vt 0.125000 0.875000
vt 0.625000 0.875000
vt 0.000000 1.000000
vt 0.000000 0.875000
vt 1.000000 1.000000
vt 0.875000 1.000000
vt 0.625000 0.750000
vt 1.000000 0.875000
vt 0.125000 0.750000
vt 0.250000 0.750000
vt 0.000000 0.750000
vt 0.375000 0.750000
vt 0.500000 0.750000
vt 0.812500 0.406200
vt 0.500000 0.093800
vt 0.812500 0.093800
vt 0.093800 0.000000
vt 0.000000 0.406200
vt 0.406200 0.500000
vt 0.875000 0.500000
vt 1.000000 0.062500
vt 0.906200 0.031200
vt 0.375000 1.000000
vt 0.000000 0.750000
vt 0.125000 1.000000
vt 0.625000 1.000000
vt 1.000000 0.750000
vt 0.972300 0.361400
vt 0.960800 0.361200
vt 0.960200 0.312300
vt 0.983600 0.362100
vt 0.974500 0.312700
vt 0.923400 0.362500
vt 0.911000 0.362300
vt 0.911900 0.312700
vt 0.936900 0.362300
vt 0.924000 0.312700
vt 0.946400 0.312400
vt 0.949300 0.361600
vt 0.960700 0.263900
vt 0.983600 0.262900
vt 0.988500 0.312700
vt 0.923500 0.262500
vt 0.934600 0.312400
vt 0.936900 0.262800
vt 0.949300 0.263600
vt 0.972300 0.486400
vt 0.960800 0.486200
vt 0.960200 0.437300
vt 0.983600 0.487100
vt 0.974500 0.437700
vt 0.923400 0.487500
vt 0.911000 0.487300
vt 0.911900 0.437700
vt 0.936900 0.487300
vt 0.924000 0.437700
vt 0.946400 0.437400
vt 0.949300 0.486600
vt 0.960700 0.388900
vt 0.983600 0.387900
vt 0.988500 0.437700
vt 0.923500 0.387500
vt 0.934600 0.437400
vt 0.936900 0.387800
vt 0.949300 0.388600
vt 0.972300 0.486400
vt 0.960800 0.486200
vt 0.960200 0.437300
vt 0.983600 0.487100
vt 0.974500 0.437700
vt 0.923400 0.487500
vt 0.911000 0.487300
vt 0.911900 0.437700
vt 0.936900 0.487300
vt 0.924000 0.437700
vt 0.946400 0.437400
vt 0.949300 0.486600
vt 0.960700 0.388900
vt 0.983600 0.387900
vt 0.988500 0.437700
vt 0.923500 0.387500
vt 0.934600 0.437400
vt 0.936900 0.387800
vt 0.949300 0.388600
vt 0.972300 0.361400
vt 0.960800 0.361200
vt 0.960200 0.312300
vt 0.983600 0.362100
vt 0.974500 0.312700
vt 0.923400 0.362500
vt 0.911000 0.362300
vt 0.911900 0.312700
vt 0.936900 0.362300
vt 0.924000 0.312700
vt 0.946400 0.312400
vt 0.949300 0.361600
vt 0.960700 0.263900
vt 0.983600 0.262900
vt 0.988500 0.312700
vt 0.923500 0.262500
vt 0.934600 0.312400
vt 0.936900 0.262800
vt 0.949300 0.263600
vt 0.972100 0.263700
vt 0.911000 0.262700
vt 0.972100 0.388700
vt 0.911000 0.387700
vt 0.972100 0.388700
vt 0.911000 0.387700
vt 0.972100 0.263700
vt 0.911000 0.262700
vn 0.3488 -0.4114 0.8421
vn 0.0000 0.0000 -1.0000
vn -1.0000 0.0000 0.0000
vn -0.2968 -0.5364 0.7901
vn -0.9193 0.0999 0.3808
vn -0.7700 -0.5354 -0.3471
vn 0.0000 1.0000 0.0000
vn 1.0000 -0.0000 0.0000
vn 0.0000 0.0000 1.0000
vn 0.8421 -0.4114 0.3488
vn 0.8421 -0.4114 -0.3488
vn 0.3488 -0.4114 -0.8421
vn -0.3488 -0.4114 0.8421
vn 0.0000 -1.0000 0.0000
vn -0.8421 -0.4114 -0.3488
vn -0.8421 -0.4114 0.3488
vn 0.8548 0.3794 -0.3541
vn -0.3488 -0.4114 -0.8421
vn 0.3541 0.3794 -0.8548
vn -0.8548 0.3794 0.3541
vn 0.8548 0.3794 0.3541
vn -0.3541 0.3794 -0.8548
vn -0.8548 0.3794 -0.3541
vn 0.3541 0.3794 0.8548
vn -0.3541 0.3794 0.8548
vn -0.9193 0.0999 -0.3808
vn -0.2968 -0.5365 -0.7900
vn -0.7701 -0.5352 0.3471
vn -0.7900 -0.5365 0.2968
vn -0.3808 0.0999 0.9193
vn 0.9193 0.0999 0.3808
vn 0.2976 -0.5361 0.7900
vn 0.7701 -0.5352 -0.3471
vn 0.3808 0.0999 0.9193
vn -0.3482 -0.5360 0.7691
vn 0.7900 -0.5360 0.2976
vn 0.3808 0.0999 -0.9193
vn 0.7900 -0.5365 -0.2968
vn -0.3471 -0.5354 -0.7700
vn -0.7901 -0.5364 -0.2968
vn -0.3808 0.0999 -0.9193
vn 0.3471 -0.5352 -0.7701
vn 0.2968 -0.5364 -0.7901
vn 0.9193 0.0999 -0.3808
vn 0.7700 -0.5354 0.3471
vn 0.3481 -0.5361 0.7691
vn -0.7671 0.6415 0.0000
vn -0.4075 0.2974 -0.8634
vn 0.3172 -0.3890 -0.8649
vn 0.6802 -0.7330 0.0000
vn 0.3172 -0.3890 0.8649
vn -0.3873 0.2865 0.8763
vn -0.5000 0.0000 -0.8660
vn 0.5000 0.0000 -0.8660
vn 0.5000 -0.0000 0.8660
vn -0.5000 0.0000 0.8660
vn 0.7671 0.6415 0.0000
vn 0.4075 0.2974 0.8634
vn -0.3172 -0.3890 0.8649
vn -0.6802 -0.7330 0.0000
vn -0.3172 -0.3890 -0.8649
vn 0.3873 0.2865 -0.8763
vn -0.3873 0.2865 -0.8763
vn 0.3303 -0.3965 -0.8565
vn 0.3303 -0.3965 0.8565
vn -0.4075 0.2974 0.8634
vn 0.3873 0.2865 0.8763
vn -0.3303 -0.3965 0.8565
vn -0.3303 -0.3965 -0.8565
vn 0.4075 0.2974 -0.8634
usemtl Material
s 1
f 1/1/1 2/2/1 3/3/1
f 4/4/2 5/5/2 6/6/2
f 6/6/3 7/7/3 8/8/3
f 9/9/4 10/10/5 11/11/6
f 8/8/7 4/4/7 6/6/7
f 12/12/8 13/13/8 4/4/8
f 8/8/9 14/14/9 12/12/9
f 15/15/10 16/16/10 11/17/10
f 17/18/11 11/17/11 16/16/11
f 18/19/12 17/18/12 19/20/12
f 2/2/13 20/21/13 3/3/13
f 19/22/14 16/23/14 1/24/14
f 21/25/15 22/26/15 23/27/15
f 23/27/16 20/21/16 24/28/16
f 3/29/14 19/22/14 1/24/14
f 22/30/14 3/29/14 20/31/14
f 25/32/17 26/33/17 27/34/17
f 18/35/18 28/36/18 21/25/18
f 29/37/19 25/32/19 30/38/19
f 31/39/20 32/40/20 10/10/20
f 26/33/21 33/41/21 27/34/21
f 34/42/22 29/37/22 30/38/22
f 32/40/23 34/42/23 10/10/23
f 33/41/24 35/43/24 36/44/24
f 31/39/25 35/45/25 37/46/25
f 10/10/26 15/47/27 11/11/28
f 9/9/29 36/48/30 31/39/30
f 27/34/31 21/49/32 23/50/33
f 33/41/34 18/51/35 21/49/36
f 30/38/37 24/52/38 2/53/39
f 15/47/40 30/38/41 2/53/42
f 24/52/43 27/34/44 23/50/45
f 14/54/14 5/55/14 13/56/14
f 1/1/1 15/15/1 2/2/1
f 4/4/2 13/57/2 5/5/2
f 6/6/3 5/55/3 7/7/3
f 9/9/4 31/39/5 10/10/5
f 8/8/7 12/12/7 4/4/7
f 12/12/8 14/58/8 13/13/8
f 8/8/9 7/59/9 14/14/9
f 15/15/10 1/1/10 16/16/10
f 17/18/11 9/60/11 11/17/11
f 18/19/12 9/60/12 17/18/12
f 2/2/13 24/28/13 20/21/13
f 19/22/14 17/61/14 16/23/14
f 21/25/15 28/36/15 22/26/15
f 23/27/16 22/26/16 20/21/16
f 3/29/14 28/62/14 19/22/14
f 22/30/14 28/62/14 3/29/14
f 25/32/17 38/63/17 26/33/17
f 18/35/18 19/64/18 28/36/18
f 29/37/19 38/63/19 25/32/19
f 31/39/20 37/46/20 32/40/20
f 26/33/21 39/65/21 33/41/21
f 34/42/22 40/66/22 29/37/22
f 32/40/23 40/66/23 34/42/23
f 33/41/24 39/65/24 35/43/24
f 31/39/25 36/48/25 35/45/25
f 10/10/26 34/42/26 15/47/27
f 9/9/29 18/67/46 36/48/30
f 27/34/31 33/41/31 21/49/32
f 33/41/34 36/44/34 18/51/35
f 30/38/37 25/32/37 24/52/38
f 15/47/40 34/42/41 30/38/41
f 24/52/43 25/32/44 27/34/44
f 14/54/14 7/7/14 5/55/14
usemtl Material
f 41/68/47 46/69/47 57/70/47
f 42/71/48 41/68/48 50/72/48
f 43/73/49 42/74/49 52/75/49
f 45/76/50 43/73/50 44/77/50
f 56/78/51 47/79/51 45/76/51
f 47/79/52 56/78/52 57/70/52
f 50/72/3 57/70/3 48/80/3
f 51/81/53 52/82/53 50/72/53
f 53/83/54 44/77/54 52/75/54
f 54/84/8 44/77/8 53/83/8
f 56/78/55 54/84/55 55/85/55
f 58/86/56 48/80/56 57/70/56
f 59/87/57 64/88/57 75/89/57
f 60/90/58 59/87/58 68/91/58
f 61/92/59 60/93/59 70/94/59
f 63/95/60 61/92/60 62/96/60
f 74/97/61 65/98/61 63/95/61
f 65/98/62 74/97/62 75/89/62
f 68/91/8 75/89/8 66/99/8
f 69/100/55 70/101/55 68/91/55
f 71/102/56 62/96/56 70/94/56
f 72/103/3 62/96/3 71/102/3
f 74/97/53 72/103/53 73/104/53
f 76/105/54 66/99/54 75/89/54
f 77/106/47 82/107/47 93/108/47
f 78/109/48 77/106/48 86/110/48
f 79/111/49 78/112/49 88/113/49
f 81/114/50 79/111/50 80/115/50
f 92/116/51 83/117/51 81/114/51
f 83/117/52 92/116/52 93/108/52
f 86/110/3 93/108/3 84/118/3
f 87/119/53 88/120/53 86/110/53
f 89/121/54 80/115/54 88/113/54
f 90/122/8 80/115/8 89/121/8
f 92/116/55 90/122/55 91/123/55
f 94/124/56 84/118/56 93/108/56
f 95/125/57 100/126/57 111/127/57
f 96/128/58 95/125/58 104/129/58
f 97/130/59 96/131/59 106/132/59
f 99/133/60 97/130/60 98/134/60
f 110/135/61 101/136/61 99/133/61
f 101/136/62 110/135/62 111/127/62
f 104/129/8 111/127/8 102/137/8
f 105/138/55 106/139/55 104/129/55
f 107/140/56 98/134/56 106/132/56
f 108/141/3 98/134/3 107/140/3
f 110/135/53 108/141/53 109/142/53
f 112/143/54 102/137/54 111/127/54
f 41/68/47 57/70/47 50/72/47
f 42/71/63 50/72/63 52/82/63
f 43/73/64 52/75/64 44/77/64
f 45/76/50 44/77/50 54/84/50
f 56/78/65 45/76/65 54/84/65
f 47/79/66 57/70/66 46/69/66
f 50/72/3 48/80/3 49/144/3
f 51/81/53 50/72/53 49/144/53
f 53/83/54 52/75/54 51/145/54
f 54/84/8 53/83/8 55/85/8
f 56/78/55 55/85/55 58/86/55
f 58/86/56 57/70/56 56/78/56
f 59/87/57 75/89/57 68/91/57
f 60/90/67 68/91/67 70/101/67
f 61/92/68 70/94/68 62/96/68
f 63/95/60 62/96/60 72/103/60
f 74/97/69 63/95/69 72/103/69
f 65/98/70 75/89/70 64/88/70
f 68/91/8 66/99/8 67/146/8
f 69/100/55 68/91/55 67/146/55
f 71/102/56 70/94/56 69/147/56
f 72/103/3 71/102/3 73/104/3
f 74/97/53 73/104/53 76/105/53
f 76/105/54 75/89/54 74/97/54
f 77/106/47 93/108/47 86/110/47
f 78/109/63 86/110/63 88/120/63
f 79/111/64 88/113/64 80/115/64
f 81/114/50 80/115/50 90/122/50
f 92/116/65 81/114/65 90/122/65
f 83/117/66 93/108/66 82/107/66
f 86/110/3 84/118/3 85/148/3
f 87/119/53 86/110/53 85/148/53
f 89/121/54 88/113/54 87/149/54
f 90/122/8 89/121/8 91/123/8
f 92/116/55 91/123/55 94/124/55
f 94/124/56 93/108/56 92/116/56
f 95/125/57 111/127/57 104/129/57
f 96/128/67 104/129/67 106/139/67
f 97/130/68 106/132/68 98/134/68
f 99/133/60 98/134/60 108/141/60
f 110/135/69 99/133/69 108/141/69
f 101/136/70 111/127/70 100/126/70
f 104/129/8 102/137/8 103/150/8
f 105/138/55 104/129/55 103/150/55
f 107/140/56 106/132/56 105/151/56
f 108/141/3 107/140/3 109/142/3
f 110/135/53 109/142/53 112/143/53
f 112/143/54 111/127/54 110/135/54
